<svg id="Layer_1" data-name="Layer 1" xmlns="http://www.w3.org/2000/svg" viewBox="0 0 1624.29 1638.35">
  <title>patio</title>
  <g>
    <g>
      <path d="M6407.74,3464.59a39.81,39.81,0,0,1-4,11.43,36.8,36.8,0,0,1-6.32,8.47,41,41,0,0,1-8.09,6.25,88.65,88.65,0,0,1-9.23,4.73q-11.32,5-20.93,4.82a40.39,40.39,0,0,1-17.35-4,41.94,41.94,0,0,1-13.48-10.54,60,60,0,0,1-9.3-14.82,58,58,0,0,1-4.93-18.86,43.29,43.29,0,0,1,2.15-17.71,41.36,41.36,0,0,1,9.63-15.33,55,55,0,0,1,17.6-11.75q4.32-1.91,8.51-3.28a43.69,43.69,0,0,1,8.42-1.88,37.87,37.87,0,0,1,8.53,0,34.54,34.54,0,0,1,8.82,2.22l-6.95,18.75a62.82,62.82,0,0,0-6-2.14,22.84,22.84,0,0,0-5.29-.91,19.54,19.54,0,0,0-5.12.43,28.83,28.83,0,0,0-5.44,1.83,19.71,19.71,0,0,0-8.6,6.8,23.43,23.43,0,0,0-3.81,9.47,31.32,31.32,0,0,0,.1,10.66,44.75,44.75,0,0,0,3.12,10.37,59.23,59.23,0,0,0,6.53,11.4,32.43,32.43,0,0,0,8.21,8,21.56,21.56,0,0,0,9.62,3.51,21,21,0,0,0,10.79-1.94,30,30,0,0,0,4.94-2.74,17.87,17.87,0,0,0,4.06-3.9,23.62,23.62,0,0,0,3.1-5.64,41.94,41.94,0,0,0,2.16-8Z" transform="translate(-5925.24 -3298.91)" fill="#1e467e"/>
      <path d="M6392.12,3344.39l21.47-6.18,13.52,47a49.71,49.71,0,0,1,3.23-4.15,30.94,30.94,0,0,1,4.36-4.12,37.25,37.25,0,0,1,5.74-3.66,38.38,38.38,0,0,1,7.19-2.83,47.82,47.82,0,0,1,15.11-2,31.56,31.56,0,0,1,12.83,3.11,28.43,28.43,0,0,1,9.91,8.19,38.17,38.17,0,0,1,6.39,13l16.75,58.23-21.47,6.18-16.65-57.89q-2.49-8.67-8-11.42t-13.29-.51a41.17,41.17,0,0,0-4.75,1.68,38.6,38.6,0,0,0-4.49,2.27q-2.22,1.31-4.49,2.9t-4.74,3.55l20.1,69.87-21.47,6.18Z" transform="translate(-5925.24 -3298.91)" fill="#1e467e"/>
      <path d="M6511.12,3327a12,12,0,0,1,.11-5,12.27,12.27,0,0,1,1.95-4.27,11.87,11.87,0,0,1,3.45-3.19,13,13,0,0,1,4.62-1.74,12.08,12.08,0,0,1,9.36,2,11.38,11.38,0,0,1,3.15,3.46,13.45,13.45,0,0,1,1.68,4.55,13.06,13.06,0,0,1,0,4.8,11.88,11.88,0,0,1-1.76,4.33,12.5,12.5,0,0,1-3.33,3.38,11.75,11.75,0,0,1-4.73,1.89,11.23,11.23,0,0,1-5-.21,13.13,13.13,0,0,1-4.39-2.1,13.72,13.72,0,0,1-3.33-3.51A11.62,11.62,0,0,1,6511.12,3327Zm6.19,28.4,22-3.92,16.26,91.38-22,3.92Z" transform="translate(-5925.24 -3298.91)" fill="#1e467e"/>
      <path d="M6566.4,3305.29l22.21-2.41,12.13,111.58q0.47,4.36,2.08,6a4.7,4.7,0,0,0,4.08,1.37,13.27,13.27,0,0,0,4.7-1.29l4.33-2.29,5,11a42.9,42.9,0,0,1-4.36,3.24,44.43,44.43,0,0,1-5.05,2.84,42.74,42.74,0,0,1-5.55,2.2,29.59,29.59,0,0,1-5.79,1.23,32.39,32.39,0,0,1-7.17,0,14.45,14.45,0,0,1-6.39-2.29,15.41,15.41,0,0,1-4.93-5.56,25.87,25.87,0,0,1-2.7-9.73Z" transform="translate(-5925.24 -3298.91)" fill="#1e467e"/>
      <path d="M6627.45,3299.79l22.33-.88,4.44,112.15q0.17,4.38,1.66,6.13a4.69,4.69,0,0,0,4,1.65,13.23,13.23,0,0,0,4.78-1l4.48-2,4.23,11.36a42.89,42.89,0,0,1-4.57,2.93,44.5,44.5,0,0,1-5.23,2.49,42.81,42.81,0,0,1-5.69,1.82,29.6,29.6,0,0,1-5.86.83,32.44,32.44,0,0,1-7.16-.49,14.46,14.46,0,0,1-6.21-2.72,15.38,15.38,0,0,1-4.53-5.88,25.83,25.83,0,0,1-2-9.9Z" transform="translate(-5925.24 -3298.91)" fill="#1e467e"/>
      <path d="M6815.75,3448.27a53.26,53.26,0,0,1-19.09-7.12,39.6,39.6,0,0,1-12.58-12.51,43,43,0,0,1-6-17,64.24,64.24,0,0,1,.72-20.62,56.68,56.68,0,0,1,6.08-17.23,42.21,42.21,0,0,1,11.17-13.14,40.89,40.89,0,0,1,16.1-7.42,51.21,51.21,0,0,1,20.84,0q11.58,2.14,19.25,7.41a38.13,38.13,0,0,1,11.89,12.73,42.56,42.56,0,0,1,5.17,16.69,67.12,67.12,0,0,1-.89,19.19A56,56,0,0,1,6862,3427a45.14,45.14,0,0,1-11.48,13.39,41.75,41.75,0,0,1-15.74,7.57A44.57,44.57,0,0,1,6815.75,3448.27Zm2.06-15.35a15.87,15.87,0,0,0,10.2-1.26,23.91,23.91,0,0,0,8.16-6.79,42.68,42.68,0,0,0,6-10.52,65.21,65.21,0,0,0,3.63-12.52,55.54,55.54,0,0,0,1-11.58,27.94,27.94,0,0,0-2-10.08,19.91,19.91,0,0,0-5.58-7.63,20.32,20.32,0,0,0-9.62-4.23,18.31,18.31,0,0,0-9.87.71,20.73,20.73,0,0,0-8,5.46,33.64,33.64,0,0,0-6,9.38,56,56,0,0,0-3.75,12.46,55,55,0,0,0-.87,11.55,37.52,37.52,0,0,0,1.95,11.2,24,24,0,0,0,5.41,9A17,17,0,0,0,6817.81,3432.92Z" transform="translate(-5925.24 -3298.91)" fill="#1e467e"/>
      <path d="M6904.82,3386.85q0.88-2.6,2.16-6.75a55.25,55.25,0,0,0,1.9-8.66l19.94,6.77a10.87,10.87,0,0,1-.05,1.75q-0.1,1.1-.22,2.38t-0.34,2.61q-0.23,1.33-.42,2.44a37.68,37.68,0,0,1,5.94-2,43.61,43.61,0,0,1,7.15-1.16,42.05,42.05,0,0,1,7.89.14,38.49,38.49,0,0,1,8.26,1.85,39.55,39.55,0,0,1,12,6.44,31.69,31.69,0,0,1,8.18,9.58,30.14,30.14,0,0,1,3.56,12.1,34.29,34.29,0,0,1-1.92,14l-19.75,58.19-21.16-7.18,18.39-54.2a34.54,34.54,0,0,0,2-9.31,15.23,15.23,0,0,0-1.13-7,12.81,12.81,0,0,0-4-5,22.81,22.81,0,0,0-6.57-3.36,37.1,37.1,0,0,0-5-1.29,46.66,46.66,0,0,0-5.7-.71q-3-.19-6-0.11a41.2,41.2,0,0,0-5.67.53l-23.06,68-21.16-7.18Z" transform="translate(-5925.24 -3298.91)" fill="#1e467e"/>
      <path d="M7098.63,3457.55l14,3.35,17.71-17.18,14,8.78-12.77,20.3,19.28,12.13-10.26,12.43-17.53-11-25.21,40.08a32.92,32.92,0,0,0-3,5.9,13.07,13.07,0,0,0-.94,4.48,5.87,5.87,0,0,0,.95,3.34,8.57,8.57,0,0,0,2.62,2.46,34.45,34.45,0,0,0,5.62,2.77,45.6,45.6,0,0,0,7.79,2.21l-1.45,12a50.16,50.16,0,0,1-14-.51,32.06,32.06,0,0,1-11.09-4.24,34.22,34.22,0,0,1-9.69-8.48,19,19,0,0,1-3.66-9.11,21.81,21.81,0,0,1,1.34-9.87,56.27,56.27,0,0,1,5.38-10.73l26.54-42.19-11.57-7.27Z" transform="translate(-5925.24 -3298.91)" fill="#1e467e"/>
      <path d="M7198.45,3466.62l17.45,14-30.54,38.19a49.1,49.1,0,0,1,5.25.24,30.94,30.94,0,0,1,5.88,1.18,37.28,37.28,0,0,1,6.31,2.57,38.36,38.36,0,0,1,6.46,4.23,47.82,47.82,0,0,1,10.38,11.16,31.57,31.57,0,0,1,4.88,12.27,28.42,28.42,0,0,1-1,12.82,38.18,38.18,0,0,1-7,12.76l-37.84,47.32-17.45-14,37.62-47q5.63-7,4.68-13.15t-7.26-11.14a41.46,41.46,0,0,0-4.12-2.91,38.53,38.53,0,0,0-4.45-2.35q-2.35-1.05-5-2t-5.64-1.82l-45.4,56.78-17.45-14Z" transform="translate(-5925.24 -3298.91)" fill="#1e467e"/>
      <path d="M7263.26,3687.83a66.5,66.5,0,0,1-13.68-1.17,45.31,45.31,0,0,1-10.61-3.49,42.31,42.31,0,0,1-8.64-5.54,89.91,89.91,0,0,1-7.72-7.25q-8.17-8.6-11-17.58a38.77,38.77,0,0,1-1.56-17.61,45.57,45.57,0,0,1,6-16.62,67.65,67.65,0,0,1,11.71-14.62,59.61,59.61,0,0,1,14.67-10.32,42.77,42.77,0,0,1,16.31-4.48,39.22,39.22,0,0,1,16.77,2.68,44.07,44.07,0,0,1,16,11.2,50.66,50.66,0,0,1,9.91,14.29,32.68,32.68,0,0,1,3,14.21,31.91,31.91,0,0,1-3.63,13.71A47.57,47.57,0,0,1,7291,3658q-2.43,2.31-5.16,4.61a65.2,65.2,0,0,1-6,4.47l-40-42.05a30.61,30.61,0,0,0-5.41,7.16,34.81,34.81,0,0,0-3.64,9.33,25.45,25.45,0,0,0-.37,9.9,16.28,16.28,0,0,0,4.46,8.81,42.17,42.17,0,0,0,6.09,5.41,23.81,23.81,0,0,0,6.06,3.13,25.68,25.68,0,0,0,6.87,1.3,65.41,65.41,0,0,0,8.57-.15Zm15.21-74.2a18.79,18.79,0,0,0-7.53-5.18,15.21,15.21,0,0,0-7.46-.62,20.36,20.36,0,0,0-7.12,2.74,38.36,38.36,0,0,0-6.51,5l24.45,25.73a57.6,57.6,0,0,0,5.1-5.55,19.73,19.73,0,0,0,3.57-6.59,14.69,14.69,0,0,0,.28-7.44Q7282.44,3617.81,7278.47,3613.64Z" transform="translate(-5925.24 -3298.91)" fill="#1e467e"/>
      <path d="M7407.31,3759.28a31.06,31.06,0,0,1-2.66,2.75,35.22,35.22,0,0,1-3.61,3q2.58,0.93,5.24,2.11a28.74,28.74,0,0,1,5.2,3,34.06,34.06,0,0,1,5,4.47,33,33,0,0,1,4.56,6.47q5.41,9.78,5.68,18.27a32.46,32.46,0,0,1-3.19,15.56,42,42,0,0,1-9.89,12.83,78.12,78.12,0,0,1-14.41,10.17,67.87,67.87,0,0,1-17.85,6.87,48,48,0,0,1-17.81.81,38.81,38.81,0,0,1-16.11-6.32,40.79,40.79,0,0,1-12.73-14.51,30.42,30.42,0,0,1-3.56-20.12l-37.76,20.87-10.81-19.56,99.88-55.21,2.23-1.29q1.78-1,4-2.42t4.57-3a28.44,28.44,0,0,0,3.85-3.16Zm-3.61,25.27a34.86,34.86,0,0,0-5.16-7.11,39.86,39.86,0,0,0-7.38-6l-46.48,25.69a21.14,21.14,0,0,0-.33,5.44,23.16,23.16,0,0,0,.89,4.81,26.87,26.87,0,0,0,1.8,4.5q1.11,2.19,2.36,4.44a13.78,13.78,0,0,0,6.78,6.32,21.61,21.61,0,0,0,9.54,1.55,41.46,41.46,0,0,0,11.06-2.19,67.15,67.15,0,0,0,11.29-5,54.35,54.35,0,0,0,9.72-6.75,28.89,28.89,0,0,0,6.37-7.75,17.68,17.68,0,0,0,2.2-8.63A19.46,19.46,0,0,0,7403.7,3784.55Z" transform="translate(-5925.24 -3298.91)" fill="#1e467e"/>
      <path d="M7439.34,3847.73a53.1,53.1,0,0,1,15.89,12.49,60.16,60.16,0,0,1,11.07,18.39,59,59,0,0,1,3.54,14,39.2,39.2,0,0,1-.52,13.27,26.59,26.59,0,0,1-5.41,11.19,25.9,25.9,0,0,1-11.09,7.67l-38.67,14.86a30.69,30.69,0,0,0-4.57,2.13A7.75,7.75,0,0,0,7407,3944a4.37,4.37,0,0,0-.77,2.55,9.28,9.28,0,0,0,.7,3.14,23,23,0,0,0,1.16,2.31q0.92,1.67,1.86,3.15l-8.36,5.79q-1.94-1.46-3.76-3.07a31.65,31.65,0,0,1-3.46-3.6,38.42,38.42,0,0,1-3.15-4.5,35.81,35.81,0,0,1-2.75-5.71,18.69,18.69,0,0,1-1.1-11.13,13.24,13.24,0,0,1,5.91-8.21,41.38,41.38,0,0,1-14-11,42.81,42.81,0,0,1-4.49-6.65,58.13,58.13,0,0,1-3.21-6.91,36.09,36.09,0,0,1-2.51-11.09,23,23,0,0,1,1.48-9.68,21.24,21.24,0,0,1,5.52-7.92,30.08,30.08,0,0,1,9.71-5.76,33,33,0,0,1,12.46-2.44,27.7,27.7,0,0,1,10.8,2.34,32.79,32.79,0,0,1,9.28,6.29,56.93,56.93,0,0,1,7.91,9.44,95.25,95.25,0,0,1,6.72,11.73q3.09,6.36,5.71,13.18l3.13-1.2a21.28,21.28,0,0,0,6.84-4,14,14,0,0,0,3.69-5.24,14.34,14.34,0,0,0,.89-6.19,23.67,23.67,0,0,0-1.61-6.93,32.87,32.87,0,0,0-2.74-5.58,24.16,24.16,0,0,0-4-4.79,37.44,37.44,0,0,0-5.73-4.38,76.47,76.47,0,0,0-8.18-4.4Zm-10.09,62.15a77.63,77.63,0,0,0-7.88-14.51,29.9,29.9,0,0,0-7.85-7.85,15,15,0,0,0-8-2.51,22.35,22.35,0,0,0-8.19,1.58,19.5,19.5,0,0,0-5.55,3.05,10.1,10.1,0,0,0-2.89,3.74,8.9,8.9,0,0,0-.67,4.36,17.63,17.63,0,0,0,1.15,4.8,48.92,48.92,0,0,0,2,4.52,31.77,31.77,0,0,0,2.79,4.5,33.74,33.74,0,0,0,3.83,4.33,37.9,37.9,0,0,0,5.05,4Z" transform="translate(-5925.24 -3298.91)" fill="#1e467e"/>
      <path d="M7482.71,3943.45l7.94,12,24.68-.4,4.17,16-23.2,6.05,5.75,22-16,2-5.23-20-45.82,12a32.82,32.82,0,0,0-6.26,2.21A13.08,13.08,0,0,0,7425,3998a5.87,5.87,0,0,0-1.59,3.08,8.6,8.6,0,0,0,.22,3.58,34.55,34.55,0,0,0,2.2,5.87,45.54,45.54,0,0,0,4.17,7l-9.26,7.75a50.12,50.12,0,0,1-9.89-10,32.06,32.06,0,0,1-5.19-10.68,34.24,34.24,0,0,1-1.26-12.82,19,19,0,0,1,3.56-9.15,21.82,21.82,0,0,1,7.73-6.28,56.32,56.32,0,0,1,11.27-4.14l48.23-12.59-3.45-13.22Z" transform="translate(-5925.24 -3298.91)" fill="#1e467e"/>
      <path d="M7506.69,4023.4l4,22-91.34,16.47-4-22Zm28.39-6.25a12,12,0,0,1,5,.1,12.26,12.26,0,0,1,4.28,1.94,11.85,11.85,0,0,1,3.2,3.44,13,13,0,0,1,1.75,4.62,12.08,12.08,0,0,1-2,9.36,11.35,11.35,0,0,1-3.45,3.15,13.43,13.43,0,0,1-4.54,1.69,13.07,13.07,0,0,1-4.8,0,11.87,11.87,0,0,1-4.33-1.75,12.48,12.48,0,0,1-3.39-3.32,11.77,11.77,0,0,1-1.9-4.72,11.24,11.24,0,0,1,.2-5,13.13,13.13,0,0,1,2.09-4.39,13.74,13.74,0,0,1,3.5-3.34A11.66,11.66,0,0,1,7535.08,4017.15Z" transform="translate(-5925.24 -3298.91)" fill="#1e467e"/>
      <path d="M7425,4130.13a53.24,53.24,0,0,1,2-20.27,39.59,39.59,0,0,1,8.9-15.35,43,43,0,0,1,14.94-10.11,64.32,64.32,0,0,1,20.13-4.55,56.72,56.72,0,0,1,18.21,1.5,42.19,42.19,0,0,1,15.55,7.47,40.88,40.88,0,0,1,11.27,13.69,51.22,51.22,0,0,1,5.28,20.16q0.87,11.74-2.27,20.5a38.12,38.12,0,0,1-9.29,14.73,42.51,42.51,0,0,1-14.83,9.24,67,67,0,0,1-18.79,4,56,56,0,0,1-18.78-1.67,45.14,45.14,0,0,1-15.87-7.7,41.77,41.77,0,0,1-11.32-13.29A44.57,44.57,0,0,1,7425,4130.13Zm15.37-1.91a15.87,15.87,0,0,0,3.81,9.54,23.89,23.89,0,0,0,8.64,6.17,42.67,42.67,0,0,0,11.69,3.1,65,65,0,0,0,13,.33,55.46,55.46,0,0,0,11.44-2,27.92,27.92,0,0,0,9.23-4.52,19.9,19.9,0,0,0,6-7.33,20.32,20.32,0,0,0,1.65-10.38,18.33,18.33,0,0,0-3.19-9.37,20.74,20.74,0,0,0-7.32-6.39,33.64,33.64,0,0,0-10.59-3.4,56,56,0,0,0-13-.46,55.09,55.09,0,0,0-11.39,2.09,37.53,37.53,0,0,0-10.34,4.73,24,24,0,0,0-7.33,7.52A17,17,0,0,0,7440.36,4128.21Z" transform="translate(-5925.24 -3298.91)" fill="#1e467e"/>
    </g>
    <circle cx="752.03" cy="886.31" r="752.03" fill="none"/>
  </g>
</svg>
