<svg id="Layer_1" data-name="Layer 1" xmlns="http://www.w3.org/2000/svg" viewBox="0 0 1290.6 51.28">
  <title>border-bottom</title>
  <g>
    <path d="M3261.18,2299.21a14.7,14.7,0,0,1,1.56-4.7,11.1,11.1,0,0,1,2.6-3.2,9.85,9.85,0,0,1,3.36-1.83,12.85,12.85,0,0,1,3.86-.58,12.52,12.52,0,0,1,2.79.31,6.41,6.41,0,0,1,2.23.9l-2.28,3.36a8.29,8.29,0,0,0-.71-0.48,5.28,5.28,0,0,0-.87-0.42,7,7,0,0,0-1.08-.31,6.39,6.39,0,0,0-1.31-.12,6.1,6.1,0,0,0-3.65,1,5.86,5.86,0,0,0-2,3.15q-0.27.94-.58,2.45t-0.63,3.24h5.32l-0.82,3.26h-5.07l-3.91,23.3a33.88,33.88,0,0,1-1,4.37,18,18,0,0,1-1.26,3.14,8.6,8.6,0,0,1-1.51,2.1,6.63,6.63,0,0,1-3.67,1.88,13.26,13.26,0,0,1-2.09.16,9.81,9.81,0,0,1-1.17-.07,8.7,8.7,0,0,1-1.2-.24,9.74,9.74,0,0,1-1.14-.38,4.84,4.84,0,0,1-1-.52l1.63-3.59q0.87,0.62,1.67,1.09a3.31,3.31,0,0,0,1.69.47,3.61,3.61,0,0,0,2-.53,4.48,4.48,0,0,0,1.42-1.55,10.39,10.39,0,0,0,1-2.52,35,35,0,0,0,.73-3.49l3.86-23.62h-3.61l0.45-2.35,3.86-.92Z" transform="translate(-2669.74 -2288.89)" fill="#1e457d"/>
    <path d="M3282.35,2329.09a13.66,13.66,0,0,1-4.64-.72,8.32,8.32,0,0,1-5.29-5.38,13.58,13.58,0,0,1-.66-4.37,19.37,19.37,0,0,1,.48-4.32,18.64,18.64,0,0,1,1.41-4,17.37,17.37,0,0,1,2.26-3.51,14.84,14.84,0,0,1,3-2.77,14.33,14.33,0,0,1,3.72-1.82,14.11,14.11,0,0,1,4.35-.65,11.31,11.31,0,0,1,4.35.78,8.72,8.72,0,0,1,3.15,2.18,9.19,9.19,0,0,1,1.92,3.34,13.51,13.51,0,0,1,.64,4.27,17.84,17.84,0,0,1-.48,4.11,19.46,19.46,0,0,1-1.38,3.95,18.34,18.34,0,0,1-2.2,3.53,15.21,15.21,0,0,1-2.94,2.83,14.08,14.08,0,0,1-3.59,1.89A12.26,12.26,0,0,1,3282.35,2329.09Zm0.37-3.14a7.82,7.82,0,0,0,2.94-.56,9.15,9.15,0,0,0,2.52-1.52,11.69,11.69,0,0,0,2-2.26,15.29,15.29,0,0,0,1.53-2.79,16,16,0,0,0,1-3.12,16.47,16.47,0,0,0,.32-3.2,11.21,11.21,0,0,0-.4-3,7.2,7.2,0,0,0-1.21-2.5,5.92,5.92,0,0,0-2.07-1.69,6.54,6.54,0,0,0-3-.63,8.76,8.76,0,0,0-4.18,1,10.34,10.34,0,0,0-3.34,2.84,13.9,13.9,0,0,0-2.21,4.32,17.58,17.58,0,0,0-.8,5.42,8.29,8.29,0,0,0,.54,3,7.93,7.93,0,0,0,1.47,2.45,6.64,6.64,0,0,0,2.18,1.62A6.26,6.26,0,0,0,3282.73,2325.94Z" transform="translate(-2669.74 -2288.89)" fill="#1e457d"/>
    <path d="M3313.27,2329.09a13.66,13.66,0,0,1-4.64-.72,8.32,8.32,0,0,1-5.29-5.38,13.61,13.61,0,0,1-.66-4.37,19.37,19.37,0,0,1,.48-4.32,18.53,18.53,0,0,1,1.41-4,17.36,17.36,0,0,1,2.26-3.51,14.87,14.87,0,0,1,3-2.77,14.32,14.32,0,0,1,3.72-1.82,14.11,14.11,0,0,1,4.35-.65,11.3,11.3,0,0,1,4.35.78,8.72,8.72,0,0,1,3.15,2.18,9.16,9.16,0,0,1,1.92,3.34,13.51,13.51,0,0,1,.64,4.27,17.9,17.9,0,0,1-.48,4.11,19.46,19.46,0,0,1-1.38,3.95,18.3,18.3,0,0,1-2.2,3.53,15.18,15.18,0,0,1-2.94,2.83,14.09,14.09,0,0,1-3.59,1.89A12.26,12.26,0,0,1,3313.27,2329.09Zm0.37-3.14a7.82,7.82,0,0,0,2.94-.56,9.15,9.15,0,0,0,2.52-1.52,11.69,11.69,0,0,0,2-2.26,15.35,15.35,0,0,0,1.53-2.79,16.1,16.1,0,0,0,1-3.12,16.47,16.47,0,0,0,.32-3.2,11.21,11.21,0,0,0-.4-3,7.22,7.22,0,0,0-1.21-2.5,5.94,5.94,0,0,0-2.07-1.69,6.54,6.54,0,0,0-3-.63,8.76,8.76,0,0,0-4.18,1,10.36,10.36,0,0,0-3.34,2.84,14,14,0,0,0-2.21,4.32,17.58,17.58,0,0,0-.8,5.42,8.31,8.31,0,0,0,.54,3,7.94,7.94,0,0,0,1.47,2.45,6.65,6.65,0,0,0,2.18,1.62A6.27,6.27,0,0,0,3313.64,2325.94Z" transform="translate(-2669.74 -2288.89)" fill="#1e457d"/>
    <path d="M3347.11,2301.53a13.06,13.06,0,0,1,3.86.49,9.77,9.77,0,0,1,2.87,1.43l2.33-13.55h3.91l-5.27,30.32q-0.27,1.48-.42,3t-0.15,2.83q0,0.79.06,1.46a6,6,0,0,0,.21,1.16h-3.56a6.2,6.2,0,0,1-.19-0.72q-0.09-.42-0.16-0.89c0-.31-0.09-0.63-0.12-0.94a8.26,8.26,0,0,1,0-.87,15.73,15.73,0,0,1-1.79,1.72,9.32,9.32,0,0,1-1.91,1.2,9.12,9.12,0,0,1-2.16.69,13.57,13.57,0,0,1-2.55.22,8.3,8.3,0,0,1-3.71-.8,8,8,0,0,1-2.76-2.23,10,10,0,0,1-1.71-3.35,14.34,14.34,0,0,1-.58-4.16,20.48,20.48,0,0,1,1.58-7.79,19.72,19.72,0,0,1,2-3.56,14.15,14.15,0,0,1,2.71-2.94,12.46,12.46,0,0,1,3.45-2A11.52,11.52,0,0,1,3347.11,2301.53Zm-3.93,24.26a8.4,8.4,0,0,0,1.87-.22,10.29,10.29,0,0,0,1.92-.64,10.49,10.49,0,0,0,1.81-1,9.91,9.91,0,0,0,1.58-1.41l3-16.05a8.83,8.83,0,0,0-2.82-1.12,15.64,15.64,0,0,0-3.41-.36,7.89,7.89,0,0,0-3,.56,8.19,8.19,0,0,0-2.42,1.52,9.85,9.85,0,0,0-1.83,2.24,14.68,14.68,0,0,0-1.27,2.72,17.4,17.4,0,0,0-.75,3,18.92,18.92,0,0,0-.25,3,12.25,12.25,0,0,0,.33,2.86,8.26,8.26,0,0,0,1,2.5,5.66,5.66,0,0,0,1.76,1.78A4.58,4.58,0,0,0,3343.18,2325.8Z" transform="translate(-2669.74 -2288.89)" fill="#1e457d"/>
    <path d="M3363.28,2322.19a17.83,17.83,0,0,0,1.52,1.66,9,9,0,0,0,1.56,1.2,6.79,6.79,0,0,0,1.71.73,7.48,7.48,0,0,0,2,.25,9.49,9.49,0,0,0,2.41-.31,7.43,7.43,0,0,0,2.09-.89,4.76,4.76,0,0,0,1.47-1.45,3.58,3.58,0,0,0,.56-2,3.46,3.46,0,0,0-.32-1.56,4,4,0,0,0-.82-1.11,4.54,4.54,0,0,0-1.13-.78q-0.63-.31-1.22-0.53l-0.69-.26-1.06-.41-1.08-.42-0.68-.27q-0.87-.32-1.92-0.79a8.79,8.79,0,0,1-2-1.2,6.42,6.42,0,0,1-1.52-1.79,5.08,5.08,0,0,1-.62-2.6,7.12,7.12,0,0,1,.92-3.71,7.69,7.69,0,0,1,2.4-2.51,10.93,10.93,0,0,1,3.34-1.45,15.09,15.09,0,0,1,3.71-.47,14,14,0,0,1,4.56.69,8.41,8.41,0,0,1,3.57,2.45l-2.55,2.52a15.84,15.84,0,0,0-1.29-1.16,6.9,6.9,0,0,0-1.31-.83,6.6,6.6,0,0,0-1.51-.51,9.27,9.27,0,0,0-1.9-.17,10.09,10.09,0,0,0-2.13.23,6.78,6.78,0,0,0-2,.74,4.45,4.45,0,0,0-1.45,1.32,3.41,3.41,0,0,0-.57,2,2.64,2.64,0,0,0,.35,1.36,3.7,3.7,0,0,0,.93,1.05,6.65,6.65,0,0,0,1.32.8,15.7,15.7,0,0,0,1.53.62l1.73,0.63,1.76,0.66a19.78,19.78,0,0,1,2,.87,7.09,7.09,0,0,1,1.74,1.24,5.67,5.67,0,0,1,1.24,1.81,6.36,6.36,0,0,1,.47,2.57,7.47,7.47,0,0,1-1,3.83A8.51,8.51,0,0,1,3377,2327a10.88,10.88,0,0,1-3.46,1.59,14.82,14.82,0,0,1-3.88.52,14.19,14.19,0,0,1-3-.28,10.21,10.21,0,0,1-2.44-.84,10.09,10.09,0,0,1-2.05-1.36,16.75,16.75,0,0,1-1.83-1.84Z" transform="translate(-2669.74 -2288.89)" fill="#1e457d"/>
  </g>
  <path d="M2670.12,2302.92a35.63,35.63,0,0,1,3.65,3.14c0.76,0.73,1.19.58,1.67-.37a8,8,0,0,1,6.58-4.46,13.59,13.59,0,0,1,6.57.8c3,1.16,5.88,2.67,8.87,3.89a23.82,23.82,0,0,0,8.2,2.11,19.23,19.23,0,0,0,8.12-2c2.74-1.17,4.37-3.62,6.38-5.63,0.42-.42,0-0.66-0.21-0.85a37,37,0,0,1-4.11-3.67c-4,4.94-9.78,6.49-15.49,3.44-2.61-1.39-5.29-2.65-7.95-4a17.77,17.77,0,0,0-6-1.51,13.68,13.68,0,0,0-8.22,1.21,28,28,0,0,0-8.13,6.63C2669.66,2302.21,2669.57,2302.52,2670.12,2302.92Z" transform="translate(-2669.74 -2288.89)" fill="#1e457d"/>
  <path d="M2732.12,2302.92a35.63,35.63,0,0,1,3.65,3.14c0.76,0.73,1.19.58,1.67-.37a8,8,0,0,1,6.58-4.46,13.59,13.59,0,0,1,6.57.8c3,1.16,5.88,2.67,8.87,3.89a23.82,23.82,0,0,0,8.2,2.11,19.23,19.23,0,0,0,8.12-2c2.74-1.17,4.37-3.62,6.38-5.63,0.42-.42,0-0.66-0.21-0.85a37,37,0,0,1-4.11-3.67c-4,4.94-9.78,6.49-15.49,3.44-2.61-1.39-5.29-2.65-7.95-4a17.77,17.77,0,0,0-6-1.51,13.68,13.68,0,0,0-8.22,1.21,28,28,0,0,0-8.13,6.63C2731.66,2302.21,2731.57,2302.52,2732.12,2302.92Z" transform="translate(-2669.74 -2288.89)" fill="#1e457d"/>
  <path d="M2794.12,2302.92a35.63,35.63,0,0,1,3.65,3.14c0.76,0.73,1.19.58,1.67-.37a8,8,0,0,1,6.58-4.46,13.59,13.59,0,0,1,6.57.8c3,1.16,5.88,2.67,8.87,3.89a23.82,23.82,0,0,0,8.2,2.11,19.23,19.23,0,0,0,8.12-2c2.74-1.17,4.37-3.62,6.38-5.63,0.42-.42,0-0.66-0.21-0.85a37,37,0,0,1-4.11-3.67c-4,4.94-9.78,6.49-15.49,3.44-2.61-1.39-5.29-2.65-7.95-4a17.77,17.77,0,0,0-6-1.51,13.68,13.68,0,0,0-8.22,1.21,28,28,0,0,0-8.13,6.63C2793.66,2302.21,2793.57,2302.52,2794.12,2302.92Z" transform="translate(-2669.74 -2288.89)" fill="#1e457d"/>
  <path d="M2856.12,2302.92a35.63,35.63,0,0,1,3.65,3.14c0.76,0.73,1.19.58,1.67-.37a8,8,0,0,1,6.58-4.46,13.59,13.59,0,0,1,6.57.8c3,1.16,5.88,2.67,8.87,3.89a23.82,23.82,0,0,0,8.2,2.11,19.23,19.23,0,0,0,8.12-2c2.74-1.17,4.37-3.62,6.38-5.63,0.42-.42,0-0.66-0.21-0.85a37,37,0,0,1-4.11-3.67c-4,4.94-9.78,6.49-15.49,3.44-2.61-1.39-5.29-2.65-7.95-4a17.77,17.77,0,0,0-6-1.51,13.68,13.68,0,0,0-8.22,1.21,28,28,0,0,0-8.13,6.63C2855.66,2302.21,2855.57,2302.52,2856.12,2302.92Z" transform="translate(-2669.74 -2288.89)" fill="#1e457d"/>
  <path d="M2918.12,2302.92a35.63,35.63,0,0,1,3.65,3.14c0.76,0.73,1.19.58,1.67-.37a8,8,0,0,1,6.58-4.46,13.59,13.59,0,0,1,6.57.8c3,1.16,5.88,2.67,8.87,3.89a23.82,23.82,0,0,0,8.2,2.11,19.23,19.23,0,0,0,8.12-2c2.74-1.17,4.37-3.62,6.38-5.63,0.42-.42,0-0.66-0.21-0.85a37,37,0,0,1-4.11-3.67c-4,4.94-9.78,6.49-15.49,3.44-2.61-1.39-5.29-2.65-7.95-4a17.77,17.77,0,0,0-6-1.51,13.68,13.68,0,0,0-8.22,1.21,28,28,0,0,0-8.13,6.63C2917.66,2302.21,2917.57,2302.52,2918.12,2302.92Z" transform="translate(-2669.74 -2288.89)" fill="#1e457d"/>
  <path d="M2980.12,2302.92a35.63,35.63,0,0,1,3.65,3.14c0.76,0.73,1.19.58,1.67-.37a8,8,0,0,1,6.58-4.46,13.59,13.59,0,0,1,6.57.8c3,1.16,5.88,2.67,8.87,3.89a23.82,23.82,0,0,0,8.2,2.11,19.23,19.23,0,0,0,8.12-2c2.74-1.17,4.37-3.62,6.38-5.63,0.42-.42,0-0.66-0.21-0.85a37,37,0,0,1-4.11-3.67c-4,4.94-9.78,6.49-15.49,3.44-2.61-1.39-5.29-2.65-7.95-4a17.77,17.77,0,0,0-6-1.51,13.68,13.68,0,0,0-8.22,1.21,28,28,0,0,0-8.13,6.63C2979.66,2302.21,2979.57,2302.52,2980.12,2302.92Z" transform="translate(-2669.74 -2288.89)" fill="#1e457d"/>
  <path d="M3042.12,2302.92a35.63,35.63,0,0,1,3.65,3.14c0.76,0.73,1.19.58,1.67-.37a8,8,0,0,1,6.58-4.46,13.59,13.59,0,0,1,6.57.8c3,1.16,5.88,2.67,8.87,3.89a23.82,23.82,0,0,0,8.2,2.11,19.23,19.23,0,0,0,8.12-2c2.74-1.17,4.37-3.62,6.38-5.63,0.42-.42,0-0.66-0.21-0.85a37,37,0,0,1-4.11-3.67c-4,4.94-9.78,6.49-15.49,3.44-2.61-1.39-5.29-2.65-7.95-4a17.77,17.77,0,0,0-6-1.51,13.68,13.68,0,0,0-8.22,1.21,28,28,0,0,0-8.13,6.63C3041.66,2302.21,3041.57,2302.52,3042.12,2302.92Z" transform="translate(-2669.74 -2288.89)" fill="#1e457d"/>
  <path d="M3104.12,2302.92a35.63,35.63,0,0,1,3.65,3.14c0.76,0.73,1.19.58,1.67-.37a8,8,0,0,1,6.58-4.46,13.59,13.59,0,0,1,6.57.8c3,1.16,5.88,2.67,8.87,3.89a23.82,23.82,0,0,0,8.2,2.11,19.23,19.23,0,0,0,8.12-2c2.74-1.17,4.37-3.62,6.38-5.63,0.42-.42,0-0.66-0.21-0.85a37,37,0,0,1-4.11-3.67c-4,4.94-9.78,6.49-15.49,3.44-2.61-1.39-5.29-2.65-7.95-4a17.77,17.77,0,0,0-6-1.51,13.68,13.68,0,0,0-8.22,1.21,28,28,0,0,0-8.13,6.63C3103.66,2302.21,3103.57,2302.52,3104.12,2302.92Z" transform="translate(-2669.74 -2288.89)" fill="#1e457d"/>
  <path d="M3166.12,2302.92a35.63,35.63,0,0,1,3.65,3.14c0.76,0.73,1.19.58,1.67-.37a8,8,0,0,1,6.58-4.46,13.59,13.59,0,0,1,6.57.8c3,1.16,5.88,2.67,8.87,3.89a23.82,23.82,0,0,0,8.2,2.11,19.23,19.23,0,0,0,8.12-2c2.74-1.17,4.37-3.62,6.38-5.63,0.42-.42,0-0.66-0.21-0.85a37,37,0,0,1-4.11-3.67c-4,4.94-9.78,6.49-15.49,3.44-2.61-1.39-5.29-2.65-7.95-4a17.77,17.77,0,0,0-6-1.51,13.68,13.68,0,0,0-8.22,1.21,28,28,0,0,0-8.13,6.63C3165.66,2302.21,3165.57,2302.52,3166.12,2302.92Z" transform="translate(-2669.74 -2288.89)" fill="#1e457d"/>
  <path d="M2670.12,2324.92a35.63,35.63,0,0,1,3.65,3.14c0.76,0.73,1.19.58,1.67-.37a8,8,0,0,1,6.58-4.46,13.59,13.59,0,0,1,6.57.8c3,1.16,5.88,2.67,8.87,3.89a23.82,23.82,0,0,0,8.2,2.11,19.23,19.23,0,0,0,8.12-2c2.74-1.17,4.37-3.62,6.38-5.63,0.42-.42,0-0.66-0.21-0.85a37,37,0,0,1-4.11-3.67c-4,4.94-9.78,6.49-15.49,3.44-2.61-1.39-5.29-2.65-7.95-4a17.77,17.77,0,0,0-6-1.51,13.68,13.68,0,0,0-8.22,1.21,28,28,0,0,0-8.13,6.63C2669.66,2324.21,2669.57,2324.52,2670.12,2324.92Z" transform="translate(-2669.74 -2288.89)" fill="#1e457d"/>
  <path d="M2732.12,2324.92a35.63,35.63,0,0,1,3.65,3.14c0.76,0.73,1.19.58,1.67-.37a8,8,0,0,1,6.58-4.46,13.59,13.59,0,0,1,6.57.8c3,1.16,5.88,2.67,8.87,3.89a23.82,23.82,0,0,0,8.2,2.11,19.23,19.23,0,0,0,8.12-2c2.74-1.17,4.37-3.62,6.38-5.63,0.42-.42,0-0.66-0.21-0.85a37,37,0,0,1-4.11-3.67c-4,4.94-9.78,6.49-15.49,3.44-2.61-1.39-5.29-2.65-7.95-4a17.77,17.77,0,0,0-6-1.51,13.68,13.68,0,0,0-8.22,1.21,28,28,0,0,0-8.13,6.63C2731.66,2324.21,2731.57,2324.52,2732.12,2324.92Z" transform="translate(-2669.74 -2288.89)" fill="#1e457d"/>
  <path d="M2794.12,2324.92a35.63,35.63,0,0,1,3.65,3.14c0.76,0.73,1.19.58,1.67-.37a8,8,0,0,1,6.58-4.46,13.59,13.59,0,0,1,6.57.8c3,1.16,5.88,2.67,8.87,3.89a23.82,23.82,0,0,0,8.2,2.11,19.23,19.23,0,0,0,8.12-2c2.74-1.17,4.37-3.62,6.38-5.63,0.42-.42,0-0.66-0.21-0.85a37,37,0,0,1-4.11-3.67c-4,4.94-9.78,6.49-15.49,3.44-2.61-1.39-5.29-2.65-7.95-4a17.77,17.77,0,0,0-6-1.51,13.68,13.68,0,0,0-8.22,1.21,28,28,0,0,0-8.13,6.63C2793.66,2324.21,2793.57,2324.52,2794.12,2324.92Z" transform="translate(-2669.74 -2288.89)" fill="#1e457d"/>
  <path d="M2856.12,2324.92a35.63,35.63,0,0,1,3.65,3.14c0.76,0.73,1.19.58,1.67-.37a8,8,0,0,1,6.58-4.46,13.59,13.59,0,0,1,6.57.8c3,1.16,5.88,2.67,8.87,3.89a23.82,23.82,0,0,0,8.2,2.11,19.23,19.23,0,0,0,8.12-2c2.74-1.17,4.37-3.62,6.38-5.63,0.42-.42,0-0.66-0.21-0.85a37,37,0,0,1-4.11-3.67c-4,4.94-9.78,6.49-15.49,3.44-2.61-1.39-5.29-2.65-7.95-4a17.77,17.77,0,0,0-6-1.51,13.68,13.68,0,0,0-8.22,1.21,28,28,0,0,0-8.13,6.63C2855.66,2324.21,2855.57,2324.52,2856.12,2324.92Z" transform="translate(-2669.74 -2288.89)" fill="#1e457d"/>
  <path d="M2918.12,2324.92a35.63,35.63,0,0,1,3.65,3.14c0.76,0.73,1.19.58,1.67-.37a8,8,0,0,1,6.58-4.46,13.59,13.59,0,0,1,6.57.8c3,1.16,5.88,2.67,8.87,3.89a23.82,23.82,0,0,0,8.2,2.11,19.23,19.23,0,0,0,8.12-2c2.74-1.17,4.37-3.62,6.38-5.63,0.42-.42,0-0.66-0.21-0.85a37,37,0,0,1-4.11-3.67c-4,4.94-9.78,6.49-15.49,3.44-2.61-1.39-5.29-2.65-7.95-4a17.77,17.77,0,0,0-6-1.51,13.68,13.68,0,0,0-8.22,1.21,28,28,0,0,0-8.13,6.63C2917.66,2324.21,2917.57,2324.52,2918.12,2324.92Z" transform="translate(-2669.74 -2288.89)" fill="#1e457d"/>
  <path d="M2980.12,2324.92a35.63,35.63,0,0,1,3.65,3.14c0.76,0.73,1.19.58,1.67-.37a8,8,0,0,1,6.58-4.46,13.59,13.59,0,0,1,6.57.8c3,1.16,5.88,2.67,8.87,3.89a23.82,23.82,0,0,0,8.2,2.11,19.23,19.23,0,0,0,8.12-2c2.74-1.17,4.37-3.62,6.38-5.63,0.42-.42,0-0.66-0.21-0.85a37,37,0,0,1-4.11-3.67c-4,4.94-9.78,6.49-15.49,3.44-2.61-1.39-5.29-2.65-7.95-4a17.77,17.77,0,0,0-6-1.51,13.68,13.68,0,0,0-8.22,1.21,28,28,0,0,0-8.13,6.63C2979.66,2324.21,2979.57,2324.52,2980.12,2324.92Z" transform="translate(-2669.74 -2288.89)" fill="#1e457d"/>
  <path d="M3042.12,2324.92a35.63,35.63,0,0,1,3.65,3.14c0.76,0.73,1.19.58,1.67-.37a8,8,0,0,1,6.58-4.46,13.59,13.59,0,0,1,6.57.8c3,1.16,5.88,2.67,8.87,3.89a23.82,23.82,0,0,0,8.2,2.11,19.23,19.23,0,0,0,8.12-2c2.74-1.17,4.37-3.62,6.38-5.63,0.42-.42,0-0.66-0.21-0.85a37,37,0,0,1-4.11-3.67c-4,4.94-9.78,6.49-15.49,3.44-2.61-1.39-5.29-2.65-7.95-4a17.77,17.77,0,0,0-6-1.51,13.68,13.68,0,0,0-8.22,1.21,28,28,0,0,0-8.13,6.63C3041.66,2324.21,3041.57,2324.52,3042.12,2324.92Z" transform="translate(-2669.74 -2288.89)" fill="#1e457d"/>
  <path d="M3104.12,2324.92a35.63,35.63,0,0,1,3.65,3.14c0.76,0.73,1.19.58,1.67-.37a8,8,0,0,1,6.58-4.46,13.59,13.59,0,0,1,6.57.8c3,1.16,5.88,2.67,8.87,3.89a23.82,23.82,0,0,0,8.2,2.11,19.23,19.23,0,0,0,8.12-2c2.74-1.17,4.37-3.62,6.38-5.63,0.42-.42,0-0.66-0.21-0.85a37,37,0,0,1-4.11-3.67c-4,4.94-9.78,6.49-15.49,3.44-2.61-1.39-5.29-2.65-7.95-4a17.77,17.77,0,0,0-6-1.51,13.68,13.68,0,0,0-8.22,1.21,28,28,0,0,0-8.13,6.63C3103.66,2324.21,3103.57,2324.52,3104.12,2324.92Z" transform="translate(-2669.74 -2288.89)" fill="#1e457d"/>
  <path d="M3166.12,2324.92a35.63,35.63,0,0,1,3.65,3.14c0.76,0.73,1.19.58,1.67-.37a8,8,0,0,1,6.58-4.46,13.59,13.59,0,0,1,6.57.8c3,1.16,5.88,2.67,8.87,3.89a23.82,23.82,0,0,0,8.2,2.11,19.23,19.23,0,0,0,8.12-2c2.74-1.17,4.37-3.62,6.38-5.63,0.42-.42,0-0.66-0.21-0.85a37,37,0,0,1-4.11-3.67c-4,4.94-9.78,6.49-15.49,3.44-2.61-1.39-5.29-2.65-7.95-4a17.77,17.77,0,0,0-6-1.51,13.68,13.68,0,0,0-8.22,1.21,28,28,0,0,0-8.13,6.63C3165.66,2324.21,3165.57,2324.52,3166.12,2324.92Z" transform="translate(-2669.74 -2288.89)" fill="#1e457d"/>
  <path d="M3414.12,2324.92a35.63,35.63,0,0,1,3.65,3.14c0.76,0.73,1.19.58,1.67-.37a8,8,0,0,1,6.58-4.46,13.59,13.59,0,0,1,6.57.8c3,1.16,5.88,2.67,8.87,3.89a23.82,23.82,0,0,0,8.2,2.11,19.23,19.23,0,0,0,8.12-2c2.74-1.17,4.37-3.62,6.38-5.63,0.42-.42,0-0.66-0.21-0.85a37,37,0,0,1-4.11-3.67c-4,4.94-9.78,6.49-15.49,3.44-2.61-1.39-5.29-2.65-7.95-4a17.77,17.77,0,0,0-6-1.51,13.68,13.68,0,0,0-8.22,1.21,28,28,0,0,0-8.13,6.63C3413.66,2324.21,3413.57,2324.52,3414.12,2324.92Z" transform="translate(-2669.74 -2288.89)" fill="#1e457d"/>
  <path d="M3476.12,2324.92a35.63,35.63,0,0,1,3.65,3.14c0.76,0.73,1.19.58,1.67-.37a8,8,0,0,1,6.58-4.46,13.59,13.59,0,0,1,6.57.8c3,1.16,5.88,2.67,8.87,3.89a23.82,23.82,0,0,0,8.2,2.11,19.23,19.23,0,0,0,8.12-2c2.74-1.17,4.37-3.62,6.38-5.63,0.42-.42,0-0.66-0.21-0.85a37,37,0,0,1-4.11-3.67c-4,4.94-9.78,6.49-15.49,3.44-2.61-1.39-5.29-2.65-7.95-4a17.77,17.77,0,0,0-6-1.51,13.68,13.68,0,0,0-8.22,1.21,28,28,0,0,0-8.13,6.63C3475.66,2324.21,3475.57,2324.52,3476.12,2324.92Z" transform="translate(-2669.74 -2288.89)" fill="#1e457d"/>
  <path d="M3538.12,2324.92a35.63,35.63,0,0,1,3.65,3.14c0.76,0.73,1.19.58,1.67-.37a8,8,0,0,1,6.58-4.46,13.59,13.59,0,0,1,6.57.8c3,1.16,5.88,2.67,8.87,3.89a23.82,23.82,0,0,0,8.2,2.11,19.23,19.23,0,0,0,8.12-2c2.74-1.17,4.37-3.62,6.38-5.63,0.42-.42,0-0.66-0.21-0.85a37,37,0,0,1-4.11-3.67c-4,4.94-9.78,6.49-15.49,3.44-2.61-1.39-5.29-2.65-7.95-4a17.77,17.77,0,0,0-6-1.51,13.68,13.68,0,0,0-8.22,1.21,28,28,0,0,0-8.13,6.63C3537.66,2324.21,3537.57,2324.52,3538.12,2324.92Z" transform="translate(-2669.74 -2288.89)" fill="#1e457d"/>
  <path d="M3600.12,2324.92a35.63,35.63,0,0,1,3.65,3.14c0.76,0.73,1.19.58,1.67-.37a8,8,0,0,1,6.58-4.46,13.59,13.59,0,0,1,6.57.8c3,1.16,5.88,2.67,8.87,3.89a23.82,23.82,0,0,0,8.2,2.11,19.23,19.23,0,0,0,8.12-2c2.74-1.17,4.37-3.62,6.38-5.63,0.42-.42,0-0.66-0.21-0.85a37,37,0,0,1-4.11-3.67c-4,4.94-9.78,6.49-15.49,3.44-2.61-1.39-5.29-2.65-7.95-4a17.77,17.77,0,0,0-6-1.51,13.68,13.68,0,0,0-8.22,1.21,28,28,0,0,0-8.13,6.63C3599.66,2324.21,3599.57,2324.52,3600.12,2324.92Z" transform="translate(-2669.74 -2288.89)" fill="#1e457d"/>
  <path d="M3662.12,2324.92a35.63,35.63,0,0,1,3.65,3.14c0.76,0.73,1.19.58,1.67-.37a8,8,0,0,1,6.58-4.46,13.59,13.59,0,0,1,6.57.8c3,1.16,5.88,2.67,8.87,3.89a23.82,23.82,0,0,0,8.2,2.11,19.23,19.23,0,0,0,8.12-2c2.74-1.17,4.37-3.62,6.38-5.63,0.42-.42,0-0.66-0.21-0.85a37,37,0,0,1-4.11-3.67c-4,4.94-9.78,6.49-15.49,3.44-2.61-1.39-5.29-2.65-7.95-4a17.77,17.77,0,0,0-6-1.51,13.68,13.68,0,0,0-8.22,1.21,28,28,0,0,0-8.13,6.63C3661.66,2324.21,3661.57,2324.52,3662.12,2324.92Z" transform="translate(-2669.74 -2288.89)" fill="#1e457d"/>
  <path d="M3724.12,2324.92a35.63,35.63,0,0,1,3.65,3.14c0.76,0.73,1.19.58,1.67-.37a8,8,0,0,1,6.58-4.46,13.59,13.59,0,0,1,6.57.8c3,1.16,5.88,2.67,8.87,3.89a23.82,23.82,0,0,0,8.2,2.11,19.23,19.23,0,0,0,8.12-2c2.74-1.17,4.37-3.62,6.38-5.63,0.42-.42,0-0.66-0.21-0.85a37,37,0,0,1-4.11-3.67c-4,4.94-9.78,6.49-15.49,3.44-2.61-1.39-5.29-2.65-7.95-4a17.77,17.77,0,0,0-6-1.51,13.68,13.68,0,0,0-8.22,1.21,28,28,0,0,0-8.13,6.63C3723.66,2324.21,3723.57,2324.52,3724.12,2324.92Z" transform="translate(-2669.74 -2288.89)" fill="#1e457d"/>
  <path d="M3786.12,2324.92a35.63,35.63,0,0,1,3.65,3.14c0.76,0.73,1.19.58,1.67-.37a8,8,0,0,1,6.58-4.46,13.59,13.59,0,0,1,6.57.8c3,1.16,5.88,2.67,8.87,3.89a23.82,23.82,0,0,0,8.2,2.11,19.23,19.23,0,0,0,8.12-2c2.74-1.17,4.37-3.62,6.38-5.63,0.42-.42,0-0.66-0.21-0.85a37,37,0,0,1-4.11-3.67c-4,4.94-9.78,6.49-15.49,3.44-2.61-1.39-5.29-2.65-7.95-4a17.77,17.77,0,0,0-6-1.51,13.68,13.68,0,0,0-8.22,1.21,28,28,0,0,0-8.13,6.63C3785.66,2324.21,3785.57,2324.52,3786.12,2324.92Z" transform="translate(-2669.74 -2288.89)" fill="#1e457d"/>
  <path d="M3848.12,2324.92a35.63,35.63,0,0,1,3.65,3.14c0.76,0.73,1.19.58,1.67-.37a8,8,0,0,1,6.58-4.46,13.59,13.59,0,0,1,6.57.8c3,1.16,5.88,2.67,8.87,3.89a23.82,23.82,0,0,0,8.2,2.11,19.23,19.23,0,0,0,8.12-2c2.74-1.17,4.37-3.62,6.38-5.63,0.42-.42,0-0.66-0.21-0.85a37,37,0,0,1-4.11-3.67c-4,4.94-9.78,6.49-15.49,3.44-2.61-1.39-5.29-2.65-7.95-4a17.77,17.77,0,0,0-6-1.51,13.68,13.68,0,0,0-8.22,1.21,28,28,0,0,0-8.13,6.63C3847.66,2324.21,3847.57,2324.52,3848.12,2324.92Z" transform="translate(-2669.74 -2288.89)" fill="#1e457d"/>
  <path d="M3910.12,2324.92a35.63,35.63,0,0,1,3.65,3.14c0.76,0.73,1.19.58,1.67-.37a8,8,0,0,1,6.58-4.46,13.59,13.59,0,0,1,6.57.8c3,1.16,5.88,2.67,8.87,3.89a23.82,23.82,0,0,0,8.2,2.11,19.23,19.23,0,0,0,8.12-2c2.74-1.17,4.37-3.62,6.38-5.63,0.42-.42,0-0.66-0.21-0.85a37,37,0,0,1-4.11-3.67c-4,4.94-9.78,6.49-15.49,3.44-2.61-1.39-5.29-2.65-7.95-4a17.77,17.77,0,0,0-6-1.51,13.68,13.68,0,0,0-8.22,1.21,28,28,0,0,0-8.13,6.63C3909.66,2324.21,3909.57,2324.52,3910.12,2324.92Z" transform="translate(-2669.74 -2288.89)" fill="#1e457d"/>
  <path d="M3414.12,2302.92a35.63,35.63,0,0,1,3.65,3.14c0.76,0.73,1.19.58,1.67-.37a8,8,0,0,1,6.58-4.46,13.59,13.59,0,0,1,6.57.8c3,1.16,5.88,2.67,8.87,3.89a23.82,23.82,0,0,0,8.2,2.11,19.23,19.23,0,0,0,8.12-2c2.74-1.17,4.37-3.62,6.38-5.63,0.42-.42,0-0.66-0.21-0.85a37,37,0,0,1-4.11-3.67c-4,4.94-9.78,6.49-15.49,3.44-2.61-1.39-5.29-2.65-7.95-4a17.77,17.77,0,0,0-6-1.51,13.68,13.68,0,0,0-8.22,1.21,28,28,0,0,0-8.13,6.63C3413.66,2302.21,3413.57,2302.52,3414.12,2302.92Z" transform="translate(-2669.74 -2288.89)" fill="#1e457d"/>
  <path d="M3476.12,2302.92a35.63,35.63,0,0,1,3.65,3.14c0.76,0.73,1.19.58,1.67-.37a8,8,0,0,1,6.58-4.46,13.59,13.59,0,0,1,6.57.8c3,1.16,5.88,2.67,8.87,3.89a23.82,23.82,0,0,0,8.2,2.11,19.23,19.23,0,0,0,8.12-2c2.74-1.17,4.37-3.62,6.38-5.63,0.42-.42,0-0.66-0.21-0.85a37,37,0,0,1-4.11-3.67c-4,4.94-9.78,6.49-15.49,3.44-2.61-1.39-5.29-2.65-7.95-4a17.77,17.77,0,0,0-6-1.51,13.68,13.68,0,0,0-8.22,1.21,28,28,0,0,0-8.13,6.63C3475.66,2302.21,3475.57,2302.52,3476.12,2302.92Z" transform="translate(-2669.74 -2288.89)" fill="#1e457d"/>
  <path d="M3538.12,2302.92a35.63,35.63,0,0,1,3.65,3.14c0.76,0.73,1.19.58,1.67-.37a8,8,0,0,1,6.58-4.46,13.59,13.59,0,0,1,6.57.8c3,1.16,5.88,2.67,8.87,3.89a23.82,23.82,0,0,0,8.2,2.11,19.23,19.23,0,0,0,8.12-2c2.74-1.17,4.37-3.62,6.38-5.63,0.42-.42,0-0.66-0.21-0.85a37,37,0,0,1-4.11-3.67c-4,4.94-9.78,6.49-15.49,3.44-2.61-1.39-5.29-2.65-7.95-4a17.77,17.77,0,0,0-6-1.51,13.68,13.68,0,0,0-8.22,1.21,28,28,0,0,0-8.13,6.63C3537.66,2302.21,3537.57,2302.52,3538.12,2302.92Z" transform="translate(-2669.74 -2288.89)" fill="#1e457d"/>
  <path d="M3600.12,2302.92a35.63,35.63,0,0,1,3.65,3.14c0.76,0.73,1.19.58,1.67-.37a8,8,0,0,1,6.58-4.46,13.59,13.59,0,0,1,6.57.8c3,1.16,5.88,2.67,8.87,3.89a23.82,23.82,0,0,0,8.2,2.11,19.23,19.23,0,0,0,8.12-2c2.74-1.17,4.37-3.62,6.38-5.63,0.42-.42,0-0.66-0.21-0.85a37,37,0,0,1-4.11-3.67c-4,4.94-9.78,6.49-15.49,3.44-2.61-1.39-5.29-2.65-7.95-4a17.77,17.77,0,0,0-6-1.51,13.68,13.68,0,0,0-8.22,1.21,28,28,0,0,0-8.13,6.63C3599.66,2302.21,3599.57,2302.52,3600.12,2302.92Z" transform="translate(-2669.74 -2288.89)" fill="#1e457d"/>
  <path d="M3662.12,2302.92a35.63,35.63,0,0,1,3.65,3.14c0.76,0.73,1.19.58,1.67-.37a8,8,0,0,1,6.58-4.46,13.59,13.59,0,0,1,6.57.8c3,1.16,5.88,2.67,8.87,3.89a23.82,23.82,0,0,0,8.2,2.11,19.23,19.23,0,0,0,8.12-2c2.74-1.17,4.37-3.62,6.38-5.63,0.42-.42,0-0.66-0.21-0.85a37,37,0,0,1-4.11-3.67c-4,4.94-9.78,6.49-15.49,3.44-2.61-1.39-5.29-2.65-7.95-4a17.77,17.77,0,0,0-6-1.51,13.68,13.68,0,0,0-8.22,1.21,28,28,0,0,0-8.13,6.63C3661.66,2302.21,3661.57,2302.52,3662.12,2302.92Z" transform="translate(-2669.74 -2288.89)" fill="#1e457d"/>
  <path d="M3724.12,2302.92a35.63,35.63,0,0,1,3.65,3.14c0.76,0.73,1.19.58,1.67-.37a8,8,0,0,1,6.58-4.46,13.59,13.59,0,0,1,6.57.8c3,1.16,5.88,2.67,8.87,3.89a23.82,23.82,0,0,0,8.2,2.11,19.23,19.23,0,0,0,8.12-2c2.74-1.17,4.37-3.62,6.38-5.63,0.42-.42,0-0.66-0.21-0.85a37,37,0,0,1-4.11-3.67c-4,4.94-9.78,6.49-15.49,3.44-2.61-1.39-5.29-2.65-7.95-4a17.77,17.77,0,0,0-6-1.51,13.68,13.68,0,0,0-8.22,1.21,28,28,0,0,0-8.13,6.63C3723.66,2302.21,3723.57,2302.52,3724.12,2302.92Z" transform="translate(-2669.74 -2288.89)" fill="#1e457d"/>
  <path d="M3786.12,2302.92a35.63,35.63,0,0,1,3.65,3.14c0.76,0.73,1.19.58,1.67-.37a8,8,0,0,1,6.58-4.46,13.59,13.59,0,0,1,6.57.8c3,1.16,5.88,2.67,8.87,3.89a23.82,23.82,0,0,0,8.2,2.11,19.23,19.23,0,0,0,8.12-2c2.74-1.17,4.37-3.62,6.38-5.63,0.42-.42,0-0.66-0.21-0.85a37,37,0,0,1-4.11-3.67c-4,4.94-9.78,6.49-15.49,3.44-2.61-1.39-5.29-2.65-7.95-4a17.77,17.77,0,0,0-6-1.51,13.68,13.68,0,0,0-8.22,1.21,28,28,0,0,0-8.13,6.63C3785.66,2302.21,3785.57,2302.52,3786.12,2302.92Z" transform="translate(-2669.74 -2288.89)" fill="#1e457d"/>
  <path d="M3848.12,2302.92a35.63,35.63,0,0,1,3.65,3.14c0.76,0.73,1.19.58,1.67-.37a8,8,0,0,1,6.58-4.46,13.59,13.59,0,0,1,6.57.8c3,1.16,5.88,2.67,8.87,3.89a23.82,23.82,0,0,0,8.2,2.11,19.23,19.23,0,0,0,8.12-2c2.74-1.17,4.37-3.62,6.38-5.63,0.42-.42,0-0.66-0.21-0.85a37,37,0,0,1-4.11-3.67c-4,4.94-9.78,6.49-15.49,3.44-2.61-1.39-5.29-2.65-7.95-4a17.77,17.77,0,0,0-6-1.51,13.68,13.68,0,0,0-8.22,1.21,28,28,0,0,0-8.13,6.63C3847.66,2302.21,3847.57,2302.52,3848.12,2302.92Z" transform="translate(-2669.74 -2288.89)" fill="#1e457d"/>
  <path d="M3910.12,2302.92a35.63,35.63,0,0,1,3.65,3.14c0.76,0.73,1.19.58,1.67-.37a8,8,0,0,1,6.58-4.46,13.59,13.59,0,0,1,6.57.8c3,1.16,5.88,2.67,8.87,3.89a23.82,23.82,0,0,0,8.2,2.11,19.23,19.23,0,0,0,8.12-2c2.74-1.17,4.37-3.62,6.38-5.63,0.42-.42,0-0.66-0.21-0.85a37,37,0,0,1-4.11-3.67c-4,4.94-9.78,6.49-15.49,3.44-2.61-1.39-5.29-2.65-7.95-4a17.77,17.77,0,0,0-6-1.51,13.68,13.68,0,0,0-8.22,1.21,28,28,0,0,0-8.13,6.63C3909.66,2302.21,3909.57,2302.52,3910.12,2302.92Z" transform="translate(-2669.74 -2288.89)" fill="#1e457d"/>
</svg>
