<svg id="Layer_1" data-name="Layer 1" xmlns="http://www.w3.org/2000/svg" viewBox="0 0 1290.6 44.48">
  <title>border</title>
  <path d="M2670.12,2215.92a35.63,35.63,0,0,1,3.65,3.14c0.76,0.73,1.19.58,1.67-.37a8,8,0,0,1,6.58-4.46,13.59,13.59,0,0,1,6.57.8c3,1.16,5.88,2.67,8.87,3.89a23.82,23.82,0,0,0,8.2,2.11,19.23,19.23,0,0,0,8.12-2c2.74-1.17,4.37-3.62,6.38-5.63,0.42-.42,0-0.66-0.21-0.85a37,37,0,0,1-4.11-3.67c-4,4.94-9.78,6.49-15.49,3.44-2.61-1.39-5.29-2.65-7.95-4a17.77,17.77,0,0,0-6-1.51,13.68,13.68,0,0,0-8.22,1.21,28,28,0,0,0-8.13,6.63C2669.66,2215.21,2669.57,2215.52,2670.12,2215.92Z" transform="translate(-2669.74 -2199.63)" fill="#1e457d"/>
  <path d="M2732.12,2215.92a35.63,35.63,0,0,1,3.65,3.14c0.76,0.73,1.19.58,1.67-.37a8,8,0,0,1,6.58-4.46,13.59,13.59,0,0,1,6.57.8c3,1.16,5.88,2.67,8.87,3.89a23.82,23.82,0,0,0,8.2,2.11,19.23,19.23,0,0,0,8.12-2c2.74-1.17,4.37-3.62,6.38-5.63,0.42-.42,0-0.66-0.21-0.85a37,37,0,0,1-4.11-3.67c-4,4.94-9.78,6.49-15.49,3.44-2.61-1.39-5.29-2.65-7.95-4a17.77,17.77,0,0,0-6-1.51,13.68,13.68,0,0,0-8.22,1.21,28,28,0,0,0-8.13,6.63C2731.66,2215.21,2731.57,2215.52,2732.12,2215.92Z" transform="translate(-2669.74 -2199.63)" fill="#1e457d"/>
  <path d="M2794.12,2215.92a35.63,35.63,0,0,1,3.65,3.14c0.76,0.73,1.19.58,1.67-.37a8,8,0,0,1,6.58-4.46,13.59,13.59,0,0,1,6.57.8c3,1.16,5.88,2.67,8.87,3.89a23.82,23.82,0,0,0,8.2,2.11,19.23,19.23,0,0,0,8.12-2c2.74-1.17,4.37-3.62,6.38-5.63,0.42-.42,0-0.66-0.21-0.85a37,37,0,0,1-4.11-3.67c-4,4.94-9.78,6.49-15.49,3.44-2.61-1.39-5.29-2.65-7.95-4a17.77,17.77,0,0,0-6-1.51,13.68,13.68,0,0,0-8.22,1.21,28,28,0,0,0-8.13,6.63C2793.66,2215.21,2793.57,2215.52,2794.12,2215.92Z" transform="translate(-2669.74 -2199.63)" fill="#1e457d"/>
  <path d="M2856.12,2215.92a35.63,35.63,0,0,1,3.65,3.14c0.76,0.73,1.19.58,1.67-.37a8,8,0,0,1,6.58-4.46,13.59,13.59,0,0,1,6.57.8c3,1.16,5.88,2.67,8.87,3.89a23.82,23.82,0,0,0,8.2,2.11,19.23,19.23,0,0,0,8.12-2c2.74-1.17,4.37-3.62,6.38-5.63,0.42-.42,0-0.66-0.21-0.85a37,37,0,0,1-4.11-3.67c-4,4.94-9.78,6.49-15.49,3.44-2.61-1.39-5.29-2.65-7.95-4a17.77,17.77,0,0,0-6-1.51,13.68,13.68,0,0,0-8.22,1.21,28,28,0,0,0-8.13,6.63C2855.66,2215.21,2855.57,2215.52,2856.12,2215.92Z" transform="translate(-2669.74 -2199.63)" fill="#1e457d"/>
  <path d="M2918.12,2215.92a35.63,35.63,0,0,1,3.65,3.14c0.76,0.73,1.19.58,1.67-.37a8,8,0,0,1,6.58-4.46,13.59,13.59,0,0,1,6.57.8c3,1.16,5.88,2.67,8.87,3.89a23.82,23.82,0,0,0,8.2,2.11,19.23,19.23,0,0,0,8.12-2c2.74-1.17,4.37-3.62,6.38-5.63,0.42-.42,0-0.66-0.21-0.85a37,37,0,0,1-4.11-3.67c-4,4.94-9.78,6.49-15.49,3.44-2.61-1.39-5.29-2.65-7.95-4a17.77,17.77,0,0,0-6-1.51,13.68,13.68,0,0,0-8.22,1.21,28,28,0,0,0-8.13,6.63C2917.66,2215.21,2917.57,2215.52,2918.12,2215.92Z" transform="translate(-2669.74 -2199.63)" fill="#1e457d"/>
  <path d="M2980.12,2215.92a35.63,35.63,0,0,1,3.65,3.14c0.76,0.73,1.19.58,1.67-.37a8,8,0,0,1,6.58-4.46,13.59,13.59,0,0,1,6.57.8c3,1.16,5.88,2.67,8.87,3.89a23.82,23.82,0,0,0,8.2,2.11,19.23,19.23,0,0,0,8.12-2c2.74-1.17,4.37-3.62,6.38-5.63,0.42-.42,0-0.66-0.21-0.85a37,37,0,0,1-4.11-3.67c-4,4.94-9.78,6.49-15.49,3.44-2.61-1.39-5.29-2.65-7.95-4a17.77,17.77,0,0,0-6-1.51,13.68,13.68,0,0,0-8.22,1.21,28,28,0,0,0-8.13,6.63C2979.66,2215.21,2979.57,2215.52,2980.12,2215.92Z" transform="translate(-2669.74 -2199.63)" fill="#1e457d"/>
  <path d="M3042.12,2215.92a35.63,35.63,0,0,1,3.65,3.14c0.76,0.73,1.19.58,1.67-.37a8,8,0,0,1,6.58-4.46,13.59,13.59,0,0,1,6.57.8c3,1.16,5.88,2.67,8.87,3.89a23.82,23.82,0,0,0,8.2,2.11,19.23,19.23,0,0,0,8.12-2c2.74-1.17,4.37-3.62,6.38-5.63,0.42-.42,0-0.66-0.21-0.85a37,37,0,0,1-4.11-3.67c-4,4.94-9.78,6.49-15.49,3.44-2.61-1.39-5.29-2.65-7.95-4a17.77,17.77,0,0,0-6-1.51,13.68,13.68,0,0,0-8.22,1.21,28,28,0,0,0-8.13,6.63C3041.66,2215.21,3041.57,2215.52,3042.12,2215.92Z" transform="translate(-2669.74 -2199.63)" fill="#1e457d"/>
  <path d="M3104.12,2215.92a35.63,35.63,0,0,1,3.65,3.14c0.76,0.73,1.19.58,1.67-.37a8,8,0,0,1,6.58-4.46,13.59,13.59,0,0,1,6.57.8c3,1.16,5.88,2.67,8.87,3.89a23.82,23.82,0,0,0,8.2,2.11,19.23,19.23,0,0,0,8.12-2c2.74-1.17,4.37-3.62,6.38-5.63,0.42-.42,0-0.66-0.21-0.85a37,37,0,0,1-4.11-3.67c-4,4.94-9.78,6.49-15.49,3.44-2.61-1.39-5.29-2.65-7.95-4a17.77,17.77,0,0,0-6-1.51,13.68,13.68,0,0,0-8.22,1.21,28,28,0,0,0-8.13,6.63C3103.66,2215.21,3103.57,2215.52,3104.12,2215.92Z" transform="translate(-2669.74 -2199.63)" fill="#1e457d"/>
  <path d="M2670.12,2237.92a35.63,35.63,0,0,1,3.65,3.14c0.76,0.73,1.19.58,1.67-.37a8,8,0,0,1,6.58-4.46,13.59,13.59,0,0,1,6.57.8c3,1.16,5.88,2.67,8.87,3.89a23.82,23.82,0,0,0,8.2,2.11,19.23,19.23,0,0,0,8.12-2c2.74-1.17,4.37-3.62,6.38-5.63,0.42-.42,0-0.66-0.21-0.85a37,37,0,0,1-4.11-3.67c-4,4.94-9.78,6.49-15.49,3.44-2.61-1.39-5.29-2.65-7.95-4a17.77,17.77,0,0,0-6-1.51,13.68,13.68,0,0,0-8.22,1.21,28,28,0,0,0-8.13,6.63C2669.66,2237.21,2669.57,2237.52,2670.12,2237.92Z" transform="translate(-2669.74 -2199.63)" fill="#1e457d"/>
  <path d="M2732.12,2237.92a35.63,35.63,0,0,1,3.65,3.14c0.76,0.73,1.19.58,1.67-.37a8,8,0,0,1,6.58-4.46,13.59,13.59,0,0,1,6.57.8c3,1.16,5.88,2.67,8.87,3.89a23.82,23.82,0,0,0,8.2,2.11,19.23,19.23,0,0,0,8.12-2c2.74-1.17,4.37-3.62,6.38-5.63,0.42-.42,0-0.66-0.21-0.85a37,37,0,0,1-4.11-3.67c-4,4.94-9.78,6.49-15.49,3.44-2.61-1.39-5.29-2.65-7.95-4a17.77,17.77,0,0,0-6-1.51,13.68,13.68,0,0,0-8.22,1.21,28,28,0,0,0-8.13,6.63C2731.66,2237.21,2731.57,2237.52,2732.12,2237.92Z" transform="translate(-2669.74 -2199.63)" fill="#1e457d"/>
  <path d="M2794.12,2237.92a35.63,35.63,0,0,1,3.65,3.14c0.76,0.73,1.19.58,1.67-.37a8,8,0,0,1,6.58-4.46,13.59,13.59,0,0,1,6.57.8c3,1.16,5.88,2.67,8.87,3.89a23.82,23.82,0,0,0,8.2,2.11,19.23,19.23,0,0,0,8.12-2c2.74-1.17,4.37-3.62,6.38-5.63,0.42-.42,0-0.66-0.21-0.85a37,37,0,0,1-4.11-3.67c-4,4.94-9.78,6.49-15.49,3.44-2.61-1.39-5.29-2.65-7.95-4a17.77,17.77,0,0,0-6-1.51,13.68,13.68,0,0,0-8.22,1.21,28,28,0,0,0-8.13,6.63C2793.66,2237.21,2793.57,2237.52,2794.12,2237.92Z" transform="translate(-2669.74 -2199.63)" fill="#1e457d"/>
  <path d="M2856.12,2237.92a35.63,35.63,0,0,1,3.65,3.14c0.76,0.73,1.19.58,1.67-.37a8,8,0,0,1,6.58-4.46,13.59,13.59,0,0,1,6.57.8c3,1.16,5.88,2.67,8.87,3.89a23.82,23.82,0,0,0,8.2,2.11,19.23,19.23,0,0,0,8.12-2c2.74-1.17,4.37-3.62,6.38-5.63,0.42-.42,0-0.66-0.21-0.85a37,37,0,0,1-4.11-3.67c-4,4.94-9.78,6.49-15.49,3.44-2.61-1.39-5.29-2.65-7.95-4a17.77,17.77,0,0,0-6-1.51,13.68,13.68,0,0,0-8.22,1.21,28,28,0,0,0-8.13,6.63C2855.66,2237.21,2855.57,2237.52,2856.12,2237.92Z" transform="translate(-2669.74 -2199.63)" fill="#1e457d"/>
  <path d="M2918.12,2237.92a35.63,35.63,0,0,1,3.65,3.14c0.76,0.73,1.19.58,1.67-.37a8,8,0,0,1,6.58-4.46,13.59,13.59,0,0,1,6.57.8c3,1.16,5.88,2.67,8.87,3.89a23.82,23.82,0,0,0,8.2,2.11,19.23,19.23,0,0,0,8.12-2c2.74-1.17,4.37-3.62,6.38-5.63,0.42-.42,0-0.66-0.21-0.85a37,37,0,0,1-4.11-3.67c-4,4.94-9.78,6.49-15.49,3.44-2.61-1.39-5.29-2.65-7.95-4a17.77,17.77,0,0,0-6-1.51,13.68,13.68,0,0,0-8.22,1.21,28,28,0,0,0-8.13,6.63C2917.66,2237.21,2917.57,2237.52,2918.12,2237.92Z" transform="translate(-2669.74 -2199.63)" fill="#1e457d"/>
  <path d="M2980.12,2237.92a35.63,35.63,0,0,1,3.65,3.14c0.76,0.73,1.19.58,1.67-.37a8,8,0,0,1,6.58-4.46,13.59,13.59,0,0,1,6.57.8c3,1.16,5.88,2.67,8.87,3.89a23.82,23.82,0,0,0,8.2,2.11,19.23,19.23,0,0,0,8.12-2c2.74-1.17,4.37-3.62,6.38-5.63,0.42-.42,0-0.66-0.21-0.85a37,37,0,0,1-4.11-3.67c-4,4.94-9.78,6.49-15.49,3.44-2.61-1.39-5.29-2.65-7.95-4a17.77,17.77,0,0,0-6-1.51,13.68,13.68,0,0,0-8.22,1.21,28,28,0,0,0-8.13,6.63C2979.66,2237.21,2979.57,2237.52,2980.12,2237.92Z" transform="translate(-2669.74 -2199.63)" fill="#1e457d"/>
  <path d="M3042.12,2237.92a35.63,35.63,0,0,1,3.65,3.14c0.76,0.73,1.19.58,1.67-.37a8,8,0,0,1,6.58-4.46,13.59,13.59,0,0,1,6.57.8c3,1.16,5.88,2.67,8.87,3.89a23.82,23.82,0,0,0,8.2,2.11,19.23,19.23,0,0,0,8.12-2c2.74-1.17,4.37-3.62,6.38-5.63,0.42-.42,0-0.66-0.21-0.85a37,37,0,0,1-4.11-3.67c-4,4.94-9.78,6.49-15.49,3.44-2.61-1.39-5.29-2.65-7.95-4a17.77,17.77,0,0,0-6-1.51,13.68,13.68,0,0,0-8.22,1.21,28,28,0,0,0-8.13,6.63C3041.66,2237.21,3041.57,2237.52,3042.12,2237.92Z" transform="translate(-2669.74 -2199.63)" fill="#1e457d"/>
  <path d="M3104.12,2237.92a35.63,35.63,0,0,1,3.65,3.14c0.76,0.73,1.19.58,1.67-.37a8,8,0,0,1,6.58-4.46,13.59,13.59,0,0,1,6.57.8c3,1.16,5.88,2.67,8.87,3.89a23.82,23.82,0,0,0,8.2,2.11,19.23,19.23,0,0,0,8.12-2c2.74-1.17,4.37-3.62,6.38-5.63,0.42-.42,0-0.66-0.21-0.85a37,37,0,0,1-4.11-3.67c-4,4.94-9.78,6.49-15.49,3.44-2.61-1.39-5.29-2.65-7.95-4a17.77,17.77,0,0,0-6-1.51,13.68,13.68,0,0,0-8.22,1.21,28,28,0,0,0-8.13,6.63C3103.66,2237.21,3103.57,2237.52,3104.12,2237.92Z" transform="translate(-2669.74 -2199.63)" fill="#1e457d"/>
  <g>
    <path d="M3166.12,2215.92a35.63,35.63,0,0,1,3.65,3.14c0.76,0.73,1.19.58,1.67-.37a8,8,0,0,1,6.58-4.46,13.59,13.59,0,0,1,6.57.8c3,1.16,5.88,2.67,8.87,3.89a23.82,23.82,0,0,0,8.2,2.11,19.23,19.23,0,0,0,8.12-2c2.74-1.17,4.37-3.62,6.38-5.63,0.42-.42,0-0.66-0.21-0.85a37,37,0,0,1-4.11-3.67c-4,4.94-9.78,6.49-15.49,3.44-2.61-1.39-5.29-2.65-7.95-4a17.77,17.77,0,0,0-6-1.51,13.68,13.68,0,0,0-8.22,1.21,28,28,0,0,0-8.13,6.63C3165.66,2215.21,3165.57,2215.52,3166.12,2215.92Z" transform="translate(-2669.74 -2199.63)" fill="#1e457d"/>
    <path d="M3166.12,2237.92a35.63,35.63,0,0,1,3.65,3.14c0.76,0.73,1.19.58,1.67-.37a8,8,0,0,1,6.58-4.46,13.59,13.59,0,0,1,6.57.8c3,1.16,5.88,2.67,8.87,3.89a23.82,23.82,0,0,0,8.2,2.11,19.23,19.23,0,0,0,8.12-2c2.74-1.17,4.37-3.62,6.38-5.63,0.42-.42,0-0.66-0.21-0.85a37,37,0,0,1-4.11-3.67c-4,4.94-9.78,6.49-15.49,3.44-2.61-1.39-5.29-2.65-7.95-4a17.77,17.77,0,0,0-6-1.51,13.68,13.68,0,0,0-8.22,1.21,28,28,0,0,0-8.13,6.63C3165.66,2237.21,3165.57,2237.52,3166.12,2237.92Z" transform="translate(-2669.74 -2199.63)" fill="#1e457d"/>
  </g>
  <path d="M3414.12,2237.92a35.63,35.63,0,0,1,3.65,3.14c0.76,0.73,1.19.58,1.67-.37a8,8,0,0,1,6.58-4.46,13.59,13.59,0,0,1,6.57.8c3,1.16,5.88,2.67,8.87,3.89a23.82,23.82,0,0,0,8.2,2.11,19.23,19.23,0,0,0,8.12-2c2.74-1.17,4.37-3.62,6.38-5.63,0.42-.42,0-0.66-0.21-0.85a37,37,0,0,1-4.11-3.67c-4,4.94-9.78,6.49-15.49,3.44-2.61-1.39-5.29-2.65-7.95-4a17.77,17.77,0,0,0-6-1.51,13.68,13.68,0,0,0-8.22,1.21,28,28,0,0,0-8.13,6.63C3413.66,2237.21,3413.57,2237.52,3414.12,2237.92Z" transform="translate(-2669.74 -2199.63)" fill="#1e457d"/>
  <path d="M3476.12,2237.92a35.63,35.63,0,0,1,3.65,3.14c0.76,0.73,1.19.58,1.67-.37a8,8,0,0,1,6.58-4.46,13.59,13.59,0,0,1,6.57.8c3,1.16,5.88,2.67,8.87,3.89a23.82,23.82,0,0,0,8.2,2.11,19.23,19.23,0,0,0,8.12-2c2.74-1.17,4.37-3.62,6.38-5.63,0.42-.42,0-0.66-0.21-0.85a37,37,0,0,1-4.11-3.67c-4,4.94-9.78,6.49-15.49,3.44-2.61-1.39-5.29-2.65-7.95-4a17.77,17.77,0,0,0-6-1.51,13.68,13.68,0,0,0-8.22,1.21,28,28,0,0,0-8.13,6.63C3475.66,2237.21,3475.57,2237.52,3476.12,2237.92Z" transform="translate(-2669.74 -2199.63)" fill="#1e457d"/>
  <path d="M3538.12,2237.92a35.63,35.63,0,0,1,3.65,3.14c0.76,0.73,1.19.58,1.67-.37a8,8,0,0,1,6.58-4.46,13.59,13.59,0,0,1,6.57.8c3,1.16,5.88,2.67,8.87,3.89a23.82,23.82,0,0,0,8.2,2.11,19.23,19.23,0,0,0,8.12-2c2.74-1.17,4.37-3.62,6.38-5.63,0.42-.42,0-0.66-0.21-0.85a37,37,0,0,1-4.11-3.67c-4,4.94-9.78,6.49-15.49,3.44-2.61-1.39-5.29-2.65-7.95-4a17.77,17.77,0,0,0-6-1.51,13.68,13.68,0,0,0-8.22,1.21,28,28,0,0,0-8.13,6.63C3537.66,2237.21,3537.57,2237.52,3538.12,2237.92Z" transform="translate(-2669.74 -2199.63)" fill="#1e457d"/>
  <path d="M3600.12,2237.92a35.63,35.63,0,0,1,3.65,3.14c0.76,0.73,1.19.58,1.67-.37a8,8,0,0,1,6.58-4.46,13.59,13.59,0,0,1,6.57.8c3,1.16,5.88,2.67,8.87,3.89a23.82,23.82,0,0,0,8.2,2.11,19.23,19.23,0,0,0,8.12-2c2.74-1.17,4.37-3.62,6.38-5.63,0.42-.42,0-0.66-0.21-0.85a37,37,0,0,1-4.11-3.67c-4,4.94-9.78,6.49-15.49,3.44-2.61-1.39-5.29-2.65-7.95-4a17.77,17.77,0,0,0-6-1.51,13.68,13.68,0,0,0-8.22,1.21,28,28,0,0,0-8.13,6.63C3599.66,2237.21,3599.57,2237.52,3600.12,2237.92Z" transform="translate(-2669.74 -2199.63)" fill="#1e457d"/>
  <path d="M3662.12,2237.92a35.63,35.63,0,0,1,3.65,3.14c0.76,0.73,1.19.58,1.67-.37a8,8,0,0,1,6.58-4.46,13.59,13.59,0,0,1,6.57.8c3,1.16,5.88,2.67,8.87,3.89a23.82,23.82,0,0,0,8.2,2.11,19.23,19.23,0,0,0,8.12-2c2.74-1.17,4.37-3.62,6.38-5.63,0.42-.42,0-0.66-0.21-0.85a37,37,0,0,1-4.11-3.67c-4,4.94-9.78,6.49-15.49,3.44-2.61-1.39-5.29-2.65-7.95-4a17.77,17.77,0,0,0-6-1.51,13.68,13.68,0,0,0-8.22,1.21,28,28,0,0,0-8.13,6.63C3661.66,2237.21,3661.57,2237.52,3662.12,2237.92Z" transform="translate(-2669.74 -2199.63)" fill="#1e457d"/>
  <path d="M3724.12,2237.92a35.63,35.63,0,0,1,3.65,3.14c0.76,0.73,1.19.58,1.67-.37a8,8,0,0,1,6.58-4.46,13.59,13.59,0,0,1,6.57.8c3,1.16,5.88,2.67,8.87,3.89a23.82,23.82,0,0,0,8.2,2.11,19.23,19.23,0,0,0,8.12-2c2.74-1.17,4.37-3.62,6.38-5.63,0.42-.42,0-0.66-0.21-0.85a37,37,0,0,1-4.11-3.67c-4,4.94-9.78,6.49-15.49,3.44-2.61-1.39-5.29-2.65-7.95-4a17.77,17.77,0,0,0-6-1.51,13.68,13.68,0,0,0-8.22,1.21,28,28,0,0,0-8.13,6.63C3723.66,2237.21,3723.57,2237.52,3724.12,2237.92Z" transform="translate(-2669.74 -2199.63)" fill="#1e457d"/>
  <path d="M3786.12,2237.92a35.63,35.63,0,0,1,3.65,3.14c0.76,0.73,1.19.58,1.67-.37a8,8,0,0,1,6.58-4.46,13.59,13.59,0,0,1,6.57.8c3,1.16,5.88,2.67,8.87,3.89a23.82,23.82,0,0,0,8.2,2.11,19.23,19.23,0,0,0,8.12-2c2.74-1.17,4.37-3.62,6.38-5.63,0.42-.42,0-0.66-0.21-0.85a37,37,0,0,1-4.11-3.67c-4,4.94-9.78,6.49-15.49,3.44-2.61-1.39-5.29-2.65-7.95-4a17.77,17.77,0,0,0-6-1.51,13.68,13.68,0,0,0-8.22,1.21,28,28,0,0,0-8.13,6.63C3785.66,2237.21,3785.57,2237.52,3786.12,2237.92Z" transform="translate(-2669.74 -2199.63)" fill="#1e457d"/>
  <path d="M3848.12,2237.92a35.63,35.63,0,0,1,3.65,3.14c0.76,0.73,1.19.58,1.67-.37a8,8,0,0,1,6.58-4.46,13.59,13.59,0,0,1,6.57.8c3,1.16,5.88,2.67,8.87,3.89a23.82,23.82,0,0,0,8.2,2.11,19.23,19.23,0,0,0,8.12-2c2.74-1.17,4.37-3.62,6.38-5.63,0.42-.42,0-0.66-0.21-0.85a37,37,0,0,1-4.11-3.67c-4,4.94-9.78,6.49-15.49,3.44-2.61-1.39-5.29-2.65-7.95-4a17.77,17.77,0,0,0-6-1.51,13.68,13.68,0,0,0-8.22,1.21,28,28,0,0,0-8.13,6.63C3847.66,2237.21,3847.57,2237.52,3848.12,2237.92Z" transform="translate(-2669.74 -2199.63)" fill="#1e457d"/>
  <path d="M3910.12,2237.92a35.63,35.63,0,0,1,3.65,3.14c0.76,0.73,1.19.58,1.67-.37a8,8,0,0,1,6.58-4.46,13.59,13.59,0,0,1,6.57.8c3,1.16,5.88,2.67,8.87,3.89a23.82,23.82,0,0,0,8.2,2.11,19.23,19.23,0,0,0,8.12-2c2.74-1.17,4.37-3.62,6.38-5.63,0.42-.42,0-0.66-0.21-0.85a37,37,0,0,1-4.11-3.67c-4,4.94-9.78,6.49-15.49,3.44-2.61-1.39-5.29-2.65-7.95-4a17.77,17.77,0,0,0-6-1.51,13.68,13.68,0,0,0-8.22,1.21,28,28,0,0,0-8.13,6.63C3909.66,2237.21,3909.57,2237.52,3910.12,2237.92Z" transform="translate(-2669.74 -2199.63)" fill="#1e457d"/>
  <path d="M3414.12,2215.92a35.63,35.63,0,0,1,3.65,3.14c0.76,0.73,1.19.58,1.67-.37a8,8,0,0,1,6.58-4.46,13.59,13.59,0,0,1,6.57.8c3,1.16,5.88,2.67,8.87,3.89a23.82,23.82,0,0,0,8.2,2.11,19.23,19.23,0,0,0,8.12-2c2.74-1.17,4.37-3.62,6.38-5.63,0.42-.42,0-0.66-0.21-0.85a37,37,0,0,1-4.11-3.67c-4,4.94-9.78,6.49-15.49,3.44-2.61-1.39-5.29-2.65-7.95-4a17.77,17.77,0,0,0-6-1.51,13.68,13.68,0,0,0-8.22,1.21,28,28,0,0,0-8.13,6.63C3413.66,2215.21,3413.57,2215.52,3414.12,2215.92Z" transform="translate(-2669.74 -2199.63)" fill="#1e457d"/>
  <path d="M3476.12,2215.92a35.63,35.63,0,0,1,3.65,3.14c0.76,0.73,1.19.58,1.67-.37a8,8,0,0,1,6.58-4.46,13.59,13.59,0,0,1,6.57.8c3,1.16,5.88,2.67,8.87,3.89a23.82,23.82,0,0,0,8.2,2.11,19.23,19.23,0,0,0,8.12-2c2.74-1.17,4.37-3.62,6.38-5.63,0.42-.42,0-0.66-0.21-0.85a37,37,0,0,1-4.11-3.67c-4,4.94-9.78,6.49-15.49,3.44-2.61-1.39-5.29-2.65-7.95-4a17.77,17.77,0,0,0-6-1.51,13.68,13.68,0,0,0-8.22,1.21,28,28,0,0,0-8.13,6.63C3475.66,2215.21,3475.57,2215.52,3476.12,2215.92Z" transform="translate(-2669.74 -2199.63)" fill="#1e457d"/>
  <path d="M3538.12,2215.92a35.63,35.63,0,0,1,3.65,3.14c0.76,0.73,1.19.58,1.67-.37a8,8,0,0,1,6.58-4.46,13.59,13.59,0,0,1,6.57.8c3,1.16,5.88,2.67,8.87,3.89a23.82,23.82,0,0,0,8.2,2.11,19.23,19.23,0,0,0,8.12-2c2.74-1.17,4.37-3.62,6.38-5.63,0.42-.42,0-0.66-0.21-0.85a37,37,0,0,1-4.11-3.67c-4,4.94-9.78,6.49-15.49,3.44-2.61-1.39-5.29-2.65-7.95-4a17.77,17.77,0,0,0-6-1.51,13.68,13.68,0,0,0-8.22,1.21,28,28,0,0,0-8.13,6.63C3537.66,2215.21,3537.57,2215.52,3538.12,2215.92Z" transform="translate(-2669.74 -2199.63)" fill="#1e457d"/>
  <path d="M3600.12,2215.92a35.63,35.63,0,0,1,3.65,3.14c0.76,0.73,1.19.58,1.67-.37a8,8,0,0,1,6.58-4.46,13.59,13.59,0,0,1,6.57.8c3,1.16,5.88,2.67,8.87,3.89a23.82,23.82,0,0,0,8.2,2.11,19.23,19.23,0,0,0,8.12-2c2.74-1.17,4.37-3.62,6.38-5.63,0.42-.42,0-0.66-0.21-0.85a37,37,0,0,1-4.11-3.67c-4,4.94-9.78,6.49-15.49,3.44-2.61-1.39-5.29-2.65-7.95-4a17.77,17.77,0,0,0-6-1.51,13.68,13.68,0,0,0-8.22,1.21,28,28,0,0,0-8.13,6.63C3599.66,2215.21,3599.57,2215.52,3600.12,2215.92Z" transform="translate(-2669.74 -2199.63)" fill="#1e457d"/>
  <path d="M3662.12,2215.92a35.63,35.63,0,0,1,3.65,3.14c0.76,0.73,1.19.58,1.67-.37a8,8,0,0,1,6.58-4.46,13.59,13.59,0,0,1,6.57.8c3,1.16,5.88,2.67,8.87,3.89a23.82,23.82,0,0,0,8.2,2.11,19.23,19.23,0,0,0,8.12-2c2.74-1.17,4.37-3.62,6.38-5.63,0.42-.42,0-0.66-0.21-0.85a37,37,0,0,1-4.11-3.67c-4,4.94-9.78,6.49-15.49,3.44-2.61-1.39-5.29-2.65-7.95-4a17.77,17.77,0,0,0-6-1.51,13.68,13.68,0,0,0-8.22,1.21,28,28,0,0,0-8.13,6.63C3661.66,2215.21,3661.57,2215.52,3662.12,2215.92Z" transform="translate(-2669.74 -2199.63)" fill="#1e457d"/>
  <path d="M3724.12,2215.92a35.63,35.63,0,0,1,3.65,3.14c0.76,0.73,1.19.58,1.67-.37a8,8,0,0,1,6.58-4.46,13.59,13.59,0,0,1,6.57.8c3,1.16,5.88,2.67,8.87,3.89a23.82,23.82,0,0,0,8.2,2.11,19.23,19.23,0,0,0,8.12-2c2.74-1.17,4.37-3.62,6.38-5.63,0.42-.42,0-0.66-0.21-0.85a37,37,0,0,1-4.11-3.67c-4,4.94-9.78,6.49-15.49,3.44-2.61-1.39-5.29-2.65-7.95-4a17.77,17.77,0,0,0-6-1.51,13.68,13.68,0,0,0-8.22,1.21,28,28,0,0,0-8.13,6.63C3723.66,2215.21,3723.57,2215.52,3724.12,2215.92Z" transform="translate(-2669.74 -2199.63)" fill="#1e457d"/>
  <path d="M3786.12,2215.92a35.63,35.63,0,0,1,3.65,3.14c0.76,0.73,1.19.58,1.67-.37a8,8,0,0,1,6.58-4.46,13.59,13.59,0,0,1,6.57.8c3,1.16,5.88,2.67,8.87,3.89a23.82,23.82,0,0,0,8.2,2.11,19.23,19.23,0,0,0,8.12-2c2.74-1.17,4.37-3.62,6.38-5.63,0.42-.42,0-0.66-0.21-0.85a37,37,0,0,1-4.11-3.67c-4,4.94-9.78,6.49-15.49,3.44-2.61-1.39-5.29-2.65-7.95-4a17.77,17.77,0,0,0-6-1.51,13.68,13.68,0,0,0-8.22,1.21,28,28,0,0,0-8.13,6.63C3785.66,2215.21,3785.57,2215.52,3786.12,2215.92Z" transform="translate(-2669.74 -2199.63)" fill="#1e457d"/>
  <path d="M3848.12,2215.92a35.63,35.63,0,0,1,3.65,3.14c0.76,0.73,1.19.58,1.67-.37a8,8,0,0,1,6.58-4.46,13.59,13.59,0,0,1,6.57.8c3,1.16,5.88,2.67,8.87,3.89a23.82,23.82,0,0,0,8.2,2.11,19.23,19.23,0,0,0,8.12-2c2.74-1.17,4.37-3.62,6.38-5.63,0.42-.42,0-0.66-0.21-0.85a37,37,0,0,1-4.11-3.67c-4,4.94-9.78,6.49-15.49,3.44-2.61-1.39-5.29-2.65-7.95-4a17.77,17.77,0,0,0-6-1.51,13.68,13.68,0,0,0-8.22,1.21,28,28,0,0,0-8.13,6.63C3847.66,2215.21,3847.57,2215.52,3848.12,2215.92Z" transform="translate(-2669.74 -2199.63)" fill="#1e457d"/>
  <path d="M3910.12,2215.92a35.63,35.63,0,0,1,3.65,3.14c0.76,0.73,1.19.58,1.67-.37a8,8,0,0,1,6.58-4.46,13.59,13.59,0,0,1,6.57.8c3,1.16,5.88,2.67,8.87,3.89a23.82,23.82,0,0,0,8.2,2.11,19.23,19.23,0,0,0,8.12-2c2.74-1.17,4.37-3.62,6.38-5.63,0.42-.42,0-0.66-0.21-0.85a37,37,0,0,1-4.11-3.67c-4,4.94-9.78,6.49-15.49,3.44-2.61-1.39-5.29-2.65-7.95-4a17.77,17.77,0,0,0-6-1.51,13.68,13.68,0,0,0-8.22,1.21,28,28,0,0,0-8.13,6.63C3909.66,2215.21,3909.57,2215.52,3910.12,2215.92Z" transform="translate(-2669.74 -2199.63)" fill="#1e457d"/>
  <g>
    <path d="M3339,2207.53a3.48,3.48,0,0,0,2.9-3.42,3.7,3.7,0,0,0-3.71-3,3.08,3.08,0,0,0-3,3.31A3.43,3.43,0,0,0,3339,2207.53Z" transform="translate(-2669.74 -2199.63)" fill="#1e457d"/>
    <path d="M3321.15,2224a2.93,2.93,0,0,0,2.41.62,3.53,3.53,0,0,0,2.35-4,5.9,5.9,0,0,0-4.63-4.78,15.09,15.09,0,0,0-4.21-.5,7.75,7.75,0,0,0-1.68-.1,18.72,18.72,0,0,0-4.27,1.87,9,9,0,0,0-2.24,1.78,7.53,7.53,0,0,0-1.27,2.07,5.8,5.8,0,0,0-.87,3.15,13.44,13.44,0,0,0,.8,2.73,4.91,4.91,0,0,0,2.78,2.69c0.88,0.43,1.84.67,2.72,1.07,1.57,0.7,3.17,1.35,4.7,2.16a3.19,3.19,0,0,1,1.85,2.08,4.57,4.57,0,0,1-.64,3.51,5.46,5.46,0,0,1-3.2,2.35,10.09,10.09,0,0,1-4.08.66c-1.45.15-2.79,0.07-3.78-1.21a1.54,1.54,0,0,1-.12-2.09c0.28-.41.63-0.77,0.89-1.21a2.55,2.55,0,0,0-1.7-3.82,3.33,3.33,0,0,0-3.74,3.8c0.49,2.64,2.17,4.35,4.29,5.73a8,8,0,0,0,5.34,1.1c2.06-.22,4.15-0.35,6-1.44a8,8,0,0,0,4.7-9.27,6,6,0,0,0-1.85-3.34c-1.45-1.56-3.47-2.2-5.4-2.89-1.2-.43-2.54-0.49-3.66-1.19s-2-1.37-1.87-2.84a3.69,3.69,0,0,1,.18-1.79,7.5,7.5,0,0,1,3.31-2.79,10.09,10.09,0,0,1,4.59-.43,4.69,4.69,0,0,1,1.72.55,1.34,1.34,0,0,1,.11,2.12C3319.57,2221.72,3319.71,2223,3321.15,2224Z" transform="translate(-2669.74 -2199.63)" fill="#1e457d"/>
    <path d="M3248.47,2212.57c-0.47,1.83-1,3.66-1.48,5.49-0.41,1.53-.81,3.06-1.24,4.59-0.34,1.2-.73,2.39-1.09,3.58-0.22.74-.41,1.48-0.65,2.21a15,15,0,0,0-.87,4.08,11.24,11.24,0,0,0,.62,4.94,6.28,6.28,0,0,0,1.41,2.41,12.74,12.74,0,0,0,3.61,2.43,6.14,6.14,0,0,0,2.12.49,14.31,14.31,0,0,0,7.81-2.28,19.08,19.08,0,0,0,6.38-6.26,21.06,21.06,0,0,0,2.71-12.11,7.39,7.39,0,0,0-1.06-2.91c-0.43-.74-1.15-1.32-1.52-2a5.82,5.82,0,0,0-2.32-2.09,2.44,2.44,0,0,0-1.22-.43,26.25,26.25,0,0,0-5.18.48,7.92,7.92,0,0,0-3.26,1.51,0.71,0.71,0,0,1-.75.15,0.53,0.53,0,0,1-.11-0.58,19.76,19.76,0,0,1,.59-2.61c0.52-2.53,1.11-5,1.8-7.53,0.52-1.87.82-3.79,1.38-5.64,0.21-.68,0-0.89-0.7-0.78a14,14,0,0,1-2.24.09,10.36,10.36,0,0,0-2.08.14c-1.05.24-2.13,0-3.19,0.23s-1.13.2-1.46,1.33a0.81,0.81,0,0,0,.49,1.07,8.28,8.28,0,0,0,1.78.57,1.75,1.75,0,0,1,1.52,2.33C3249.68,2207.81,3249.08,2210.19,3248.47,2212.57Zm6.66,6.47a6.29,6.29,0,0,1,2.11-.79l0.38-.05c0.52,0,1-.51,1.57-0.13,1,0.65,2.17,1.11,2.61,2.28a11.3,11.3,0,0,1,.51,7.06c-0.38,1.37-.7,2.76-1.16,4.12a20.75,20.75,0,0,1-2.66,5.11,11.18,11.18,0,0,1-3.06,3,4.3,4.3,0,0,1-6.26-1.41,6.49,6.49,0,0,1-.83-4.18c0-1.12,0-2.23,0-3.35a2.43,2.43,0,0,1,.17-0.73,32,32,0,0,1,1.69-4.66C3251.38,2222.84,3252.74,2220.52,3255.12,2219Z" transform="translate(-2669.74 -2199.63)" fill="#1e457d"/>
    <path d="M3297.62,2225.18c-2.14,2.64-5.23,3.47-8.28,1.84-1.4-.74-2.83-1.42-4.25-2.12a9.5,9.5,0,0,0-3.18-.81,7.31,7.31,0,0,0-4.4.65,15,15,0,0,0-4.34,3.54c-0.23.27-.28,0.44,0,0.65a19.07,19.07,0,0,1,1.95,1.68c0.41,0.39.64,0.31,0.89-.2a4.27,4.27,0,0,1,3.52-2.39,7.27,7.27,0,0,1,3.51.43c1.62,0.62,3.14,1.43,4.74,2.08a12.73,12.73,0,0,0,4.38,1.13,10.28,10.28,0,0,0,4.34-1.06c1.47-.63,2.33-1.94,3.41-3,0.22-.22,0-0.35-0.11-0.45A19.77,19.77,0,0,1,3297.62,2225.18Z" transform="translate(-2669.74 -2199.63)" fill="#1e457d"/>
    <path d="M3372.36,2233.54a12.13,12.13,0,0,1,2.33-.7,13.58,13.58,0,0,0,2.74-.84c1-.36,2.06-0.79,3.12-1.09a11.62,11.62,0,0,0,2.79-1.22,13.58,13.58,0,0,0,4.67-4.64,7.11,7.11,0,0,0,1.16-3,6.14,6.14,0,0,0-5.93-6.63,11.51,11.51,0,0,0-5.22,1.05,17.42,17.42,0,0,0-5.34,3.65,20.93,20.93,0,0,0-3.72,4.55,14.87,14.87,0,0,0-1.88,4.19c-0.12.61-.28,1.21-0.41,1.82a16.6,16.6,0,0,0-.2,5.42,1.21,1.21,0,0,1-.26,1c-0.63.7-1.31,1.34-2,2a4.09,4.09,0,0,1-1.37.86,1.22,1.22,0,0,1-1.76-.65,2.27,2.27,0,0,1-.1-1.36,32.32,32.32,0,0,1,1.34-5.46c0.63-2,1.36-3.88,1.95-5.86,0.53-1.77,1.22-3.49,1.7-5.28,0.37-1.36.91-2.67,1.3-4,0.74-2.54,1.41-5.1,2.1-7.66s1.27-5.18,1.93-7.76a0.75,0.75,0,0,0-.89-1c-1.39.22-2.77,0-3.84,0.1a46.33,46.33,0,0,0-5.11.15c-0.57.07-1,.24-0.93,0.9a1.74,1.74,0,0,1-.22.78c-0.22.55-.11,0.66,0.48,0.75,0.94,0.13,1.89-.13,2.81,0,1.46,0.22,1.92.47,1.73,1.91a4,4,0,0,1-.06.44c-0.3,1.19-.58,2.39-0.91,3.58-0.52,1.86-1.09,3.71-1.63,5.57-0.35,1.22-.63,2.46-1.06,3.66a0.59,0.59,0,0,1-.49.5,0.56,0.56,0,0,1-.51-0.39,4.92,4.92,0,0,1-.27-0.49,5.13,5.13,0,0,0-1.87-1.9,6.72,6.72,0,0,0-2.16-.58,11.23,11.23,0,0,0-4.09-.31,17,17,0,0,0-1.93.49,12.29,12.29,0,0,0-5,2.78,22.8,22.8,0,0,0-3.51,4.18,15,15,0,0,0-2,4.88c-0.22,1-.57,1.87-0.74,2.83a11.39,11.39,0,0,0-.33,3,3.28,3.28,0,0,1-.46,2.53,29.12,29.12,0,0,1-2.51,2.9,4.7,4.7,0,0,1-1.68,1.06,1.53,1.53,0,0,1-1.5-.09,1.24,1.24,0,0,1-.48-1.29,62.55,62.55,0,0,1,1.87-6.68c0.46-1.43.93-2.85,1.26-4.31,0.23-1,.49-2.07.76-3.09,0.41-1.57.85-3.13,1.16-4.73,0.21-1.06.4-2.13,0.69-3.17,0.23-.85.28-0.83-0.61-0.83-2.51,0-5,.37-7.51.25-1,0-1.7.09-1.95,1.23-0.1.45-.12,0.61,0.35,0.76a13.1,13.1,0,0,0,2.48.34,1.65,1.65,0,0,1,1.65,2c-0.18,1-.43,2-0.7,3-0.49,1.77-1.14,3.5-1.5,5.29-0.47,2.27-1.24,4.45-1.85,6.68a11.3,11.3,0,0,0-.56,4.27,3.9,3.9,0,0,0,1.65,2.76,6.58,6.58,0,0,0,2.26.67,3.48,3.48,0,0,0,3.12-.65,34.67,34.67,0,0,0,3.91-3.55c0.81-.8,1.06-0.72,1.7.25a6.47,6.47,0,0,0,2.46,2.61c0.81,0.38,1.65.68,2.48,1a15,15,0,0,0,1.85.75,5.63,5.63,0,0,0,4.46-1,14.73,14.73,0,0,0,2.58-1.87,19.33,19.33,0,0,1,1.49-1.25c0.44-.34.71-0.25,0.84,0.3a7.08,7.08,0,0,0,1.13,2.41,2.17,2.17,0,0,0,1,.79,5.36,5.36,0,0,0,2.8.17,4.2,4.2,0,0,0,2.52-1c0.9-.91,2-1.62,2.85-2.57,0.47-.51.66-0.47,1.08,0.08a10.4,10.4,0,0,0,5.23,3.8,9.85,9.85,0,0,0,6.19-.21,16,16,0,0,0,7.15-5.09,1.09,1.09,0,0,0,.62-0.85,2.88,2.88,0,0,0-.64-0.91c-0.46-.57-0.79-0.56-1.26,0a22.87,22.87,0,0,1-4,3.44,6.34,6.34,0,0,1-5.13,1,2.82,2.82,0,0,1-1.64-.69,10.46,10.46,0,0,1-1.76-2.18,7,7,0,0,1-.91-3.64A1,1,0,0,1,3372.36,2233.54Zm0.41-4.12a13.9,13.9,0,0,1,1.06-3.41A19.36,19.36,0,0,1,3376,2222a10.5,10.5,0,0,1,3.22-3.05,3.42,3.42,0,0,1,1.83-.39,3.58,3.58,0,0,1,2.14.6,4.19,4.19,0,0,1,.92,4.08,9.27,9.27,0,0,1-2.79,3.82,11.91,11.91,0,0,1-3.48,1.71c-1.29.42-2.62,0.76-3.89,1.25a3,3,0,0,1-.37.1C3372.84,2230.24,3372.67,2230.11,3372.77,2229.42Zm-13.77-1.63a18.71,18.71,0,0,1-1.17,3.84c-1.19,2.44-2.41,4.85-4.55,6.64-1.45,1.21-3,2.14-5,1.75a2.49,2.49,0,0,0-.57,0,1.7,1.7,0,0,1-1.75-1.08,2.89,2.89,0,0,0-.43-0.62c-0.73-.87-0.47-2-0.66-3a4,4,0,0,1,0-.76,27.63,27.63,0,0,1,1.83-8.82,13.78,13.78,0,0,1,3.42-5,6.85,6.85,0,0,1,4.57-2,5,5,0,0,1,4.24,3,19.43,19.43,0,0,1,.58,3A6.81,6.81,0,0,1,3359,2227.79Z" transform="translate(-2669.74 -2199.63)" fill="#1e457d"/>
  </g>
</svg>
