<svg id="Layer_1" data-name="Layer 1" xmlns="http://www.w3.org/2000/svg" viewBox="0 0 398.21 436.12">
  <title>days-of-the-week</title>
  <g>
    <g>
      <path d="M3434.5,1689.53l-2.52,3.37-19.83-8.09,13.36,16.75-1.51,2-20-7.75,13.45,16.51-2.52,3.37-16.58-22.43,1.64-2.2,20.21,8.13-13.64-16.9,1.64-2.2Z" transform="translate(-3044.59 -1368.88)" fill="#1e457d"/>
      <path d="M3379.26,1720.25a14.16,14.16,0,0,1,.38-5.68,13.07,13.07,0,0,1,3.65-5.65,10.56,10.56,0,0,1,8.61-3.29q4.89,0.4,9.65,5.21a15.25,15.25,0,0,1,4.72,8.88q0.56,4.68-3.41,8.61a10.43,10.43,0,0,1-7.14,3.41,10.65,10.65,0,0,1-7.3-3,30,30,0,0,1-2.65-2.57l12.72-12.6a13.83,13.83,0,0,0-6.79-4,6.27,6.27,0,0,0-6.17,1.64,9,9,0,0,0-2.42,3.89,11.63,11.63,0,0,0-.27,4.72Zm21.48,5.88a6.16,6.16,0,0,0,2.06-5.4,9.49,9.49,0,0,0-2.45-5.18l-9.86,9.76a10.53,10.53,0,0,0,5,2.79Q3398.17,1728.69,3400.75,1726.13Z" transform="translate(-3044.59 -1368.88)" fill="#1e457d"/>
      <path d="M3357.57,1737a14.14,14.14,0,0,1,1.13-5.58,13.07,13.07,0,0,1,4.37-5.11,10.56,10.56,0,0,1,9-2.11q4.79,1,8.87,6.46a15.25,15.25,0,0,1,3.5,9.43q-0.07,4.71-4.53,8.08a10.42,10.42,0,0,1-7.53,2.43,10.64,10.64,0,0,1-6.83-3.92,29.93,29.93,0,0,1-2.28-2.9l14.29-10.79a13.83,13.83,0,0,0-6.2-4.85,6.27,6.27,0,0,0-6.34.8,9,9,0,0,0-2.91,3.53,11.62,11.62,0,0,0-.9,4.64Zm20.51,8.69a6.16,6.16,0,0,0,2.77-5.08,9.49,9.49,0,0,0-1.74-5.46l-11.07,8.36a10.53,10.53,0,0,0,4.57,3.43Q3375.18,1747.93,3378.08,1745.74Z" transform="translate(-3044.59 -1368.88)" fill="#1e457d"/>
      <path d="M3355.08,1752.38l-4.65,14.27-4.12,2.35,4.37-13.85-18-9.1,4-2.29,15.16,8.21,1.22-3.15-6.2-10.87,3.39-1.94,19.22,33.69-3.39,1.94Z" transform="translate(-3044.59 -1368.88)" fill="#1e457d"/>
      <path d="M3310.88,1760.36a14.16,14.16,0,0,1,2.51-5.11,13.07,13.07,0,0,1,5.53-3.83,10.56,10.56,0,0,1,9.22.24q4.37,2.23,6.94,8.5a15.25,15.25,0,0,1,1,10q-1.26,4.54-6.43,6.67a10.42,10.42,0,0,1-7.9.43,10.64,10.64,0,0,1-5.61-5.53,30.09,30.09,0,0,1-1.47-3.38l16.57-6.8a13.84,13.84,0,0,0-4.76-6.27,6.27,6.27,0,0,0-6.33-.84,9,9,0,0,0-3.71,2.67,11.6,11.6,0,0,0-2,4.26Zm17.62,13.62a6.16,6.16,0,0,0,4-4.21,9.49,9.49,0,0,0-.29-5.72l-12.84,5.27a10.53,10.53,0,0,0,3.55,4.48Q3325.14,1775.36,3328.51,1774Z" transform="translate(-3044.59 -1368.88)" fill="#1e457d"/>
      <path d="M3309.57,1780.19a28.54,28.54,0,0,0,1.07,3.27l-3.67.94a16.65,16.65,0,0,1-.88-2.23,18.69,18.69,0,0,1-3.55,2.93,15.11,15.11,0,0,1-4.54,2,8.13,8.13,0,0,1-6.36-.64,8.44,8.44,0,0,1-3.7-5.51l-4.65-18.09,3.79-1,4.57,17.77a6.24,6.24,0,0,0,2.22,3.55,4.28,4.28,0,0,0,3.85.66,15.4,15.4,0,0,0,4.24-1.8,16.21,16.21,0,0,0,3.39-2.71l-5.34-20.79,3.78-1Z" transform="translate(-3044.59 -1368.88)" fill="#1e457d"/>
      <path d="M3268.94,1792.27a18.39,18.39,0,0,1-7-.61l1.41,12.91-3.88.42-3.3-30.14a31.25,31.25,0,0,0-.84-4.92,27.88,27.88,0,0,0-1.21-3.34l3.64-.4a5.42,5.42,0,0,1,.7.93,7.47,7.47,0,0,1,.58,1.17,20.23,20.23,0,0,1,3.4-2.28,12.78,12.78,0,0,1,4.55-1.23,9.76,9.76,0,0,1,8.4,2.89,16.95,16.95,0,0,1,1.84,19.65A10.89,10.89,0,0,1,3268.94,1792.27Zm-2.16-24.12a15.52,15.52,0,0,0-3.85.83,9.58,9.58,0,0,0-3.17,2.3l1.9,17.36a18.51,18.51,0,0,0,6.23.31q4.62-.51,6.3-3.89a14,14,0,0,0-1.58-14.46A6.32,6.32,0,0,0,3266.78,1768.15Z" transform="translate(-3044.59 -1368.88)" fill="#1e457d"/>
      <path d="M3247.52,1773.08a14.5,14.5,0,0,0-3.4-2.92,9,9,0,0,0-4.46-1.11,8,8,0,0,0-4.5,1.06,3.59,3.59,0,0,0-1.82,3.12,3.47,3.47,0,0,0,.84,2.4,9.07,9.07,0,0,0,3.54,2l4,1.44a15.69,15.69,0,0,1,5.19,2.63,5.87,5.87,0,0,1,2.34,5.1,5.93,5.93,0,0,1-2.75,5,11.4,11.4,0,0,1-6.89,1.77,22.21,22.21,0,0,1-2.75-.22,12.78,12.78,0,0,1-2.39-.58,10.8,10.8,0,0,1-2.11-1,11,11,0,0,1-1.91-1.52l2.31-2.65a12.41,12.41,0,0,0,3.23,2.2,9.37,9.37,0,0,0,3.63.74,8.33,8.33,0,0,0,4.19-.85,3,3,0,0,0,1.7-2.71,3.17,3.17,0,0,0-1.47-2.79,13.17,13.17,0,0,0-3.6-1.72q-1.11-.37-2.19-0.76T3236,1781a12.34,12.34,0,0,1-5-3.07,7,7,0,0,1,1.52-10,11.69,11.69,0,0,1,7.07-1.9,18.44,18.44,0,0,1,5.76,1,12.22,12.22,0,0,1,4.79,3.35Z" transform="translate(-3044.59 -1368.88)" fill="#1e457d"/>
      <path d="M3193.22,1787.5l-0.49,2q-1.22,5-4.2,6.92a8.66,8.66,0,0,1-7.07.94,12.12,12.12,0,0,1-2.82-1.07,7.09,7.09,0,0,1-1.89-1.33l2.43-2.87a10.52,10.52,0,0,0,1.29,1.14,5.27,5.27,0,0,0,2,1q2.72,0.67,4.17-.5a4.94,4.94,0,0,0,1.41-2.38q0.6-1.76,1.35-4.84l-6.1-1.5,1.14-3.11,5.74,1.41,5.57-22.75,3.8,0.93L3194,1784.3l3.51,0.86-0.78,3.2Z" transform="translate(-3044.59 -1368.88)" fill="#1e457d"/>
      <path d="M3175.13,1753.78q5.9,2.17,7.57,6.93t-0.54,10.77a13.81,13.81,0,0,1-6.53,7.79,11.69,11.69,0,0,1-9.91.43q-5.48-2-7.08-6.85a15.4,15.4,0,0,1,.45-10.41,14.63,14.63,0,0,1,6.47-7.91A10.81,10.81,0,0,1,3175.13,1753.78Zm-0.92,3a6.59,6.59,0,0,0-3.7-.33,10.35,10.35,0,0,0-4.07,2.22,13.22,13.22,0,0,0-3.8,5.9,12.06,12.06,0,0,0-.42,7.19,6.91,6.91,0,0,0,4.67,5,7.27,7.27,0,0,0,6.86-.64,12.76,12.76,0,0,0,4.74-6.53,11.12,11.12,0,0,0,.73-6.53,10.82,10.82,0,0,0-1.85-4.12A7.12,7.12,0,0,0,3174.21,1756.79Z" transform="translate(-3044.59 -1368.88)" fill="#1e457d"/>
      <path d="M3143.37,1769.59a10.24,10.24,0,0,1,.55-1.65q0.41-1,1.2-2.54a14.56,14.56,0,0,1-5.62,1.19,11.37,11.37,0,0,1-5.35-1.24,4.79,4.79,0,0,1-.58-0.35,4.54,4.54,0,0,1-.43-0.33l2.61-3.25a7.5,7.5,0,0,0,1.58,1,9.49,9.49,0,0,0,5.54,1.16,7.47,7.47,0,0,0,3.82-1.33l8.51-16.65,3.48,1.78-10.47,20.51q-1.41,2.86-1.54,3.35Z" transform="translate(-3044.59 -1368.88)" fill="#1e457d"/>
      <path d="M3107.47,1743.19a28.56,28.56,0,0,0-2.07,2.76l-2.87-2.46a16.51,16.51,0,0,1,1.32-2,18.77,18.77,0,0,1-4.44-1.23,15.13,15.13,0,0,1-4.27-2.56,8.13,8.13,0,0,1-3.12-5.57,8.45,8.45,0,0,1,2.39-6.19l12.15-14.18,3,2.54-11.94,13.93a6.24,6.24,0,0,0-1.64,3.85,4.28,4.28,0,0,0,1.67,3.53,15.41,15.41,0,0,0,3.91,2.44,16.17,16.17,0,0,0,4.16,1.22l14-16.3,3,2.54Z" transform="translate(-3044.59 -1368.88)" fill="#1e457d"/>
      <path d="M3094.54,1698.14q4.14,4.73,3.34,9.7t-5.62,9.2a13.8,13.8,0,0,1-9.46,3.72,11.69,11.69,0,0,1-8.92-4.36q-3.85-4.39-2.95-9.41a15.4,15.4,0,0,1,5.36-8.93,14.62,14.62,0,0,1,9.46-3.86A10.81,10.81,0,0,1,3094.54,1698.14Zm-2.25,2.2a6.59,6.59,0,0,0-3.09-2.06,10.35,10.35,0,0,0-4.64,0,13.22,13.22,0,0,0-6.16,3.37,12.06,12.06,0,0,0-3.8,6.11,6.91,6.91,0,0,0,1.7,6.65,7.27,7.27,0,0,0,6.33,2.72,12.77,12.77,0,0,0,7.28-3.47,11.13,11.13,0,0,0,3.76-5.39,10.83,10.83,0,0,0,.34-4.51A7.12,7.12,0,0,0,3092.3,1700.34Z" transform="translate(-3044.59 -1368.88)" fill="#1e457d"/>
      <path d="M3062.07,1702l-2.25-3.55,14.63-15.64-20.41,6.51-1.35-2.13,14.37-15.92-20.21,6.68-2.25-3.55,26.87-7.5,1.47,2.32-14.79,16,20.65-6.73,1.47,2.32Z" transform="translate(-3044.59 -1368.88)" fill="#1e457d"/>
    </g>
    <circle cx="199.4" cy="198.81" r="198.81" fill="none"/>
  </g>
</svg>
