<svg id="Layer_1" data-name="Layer 1" xmlns="http://www.w3.org/2000/svg" viewBox="0 0 1619.32 1622.48">
  <title>hours</title>
  <g>
    <g>
      <path d="M5777.86,3848.41l10.42-10-4.83-24.2,15-7,10.13,21.73,20.64-9.62,4.88,15.36-18.77,8.75,20,42.92a32.83,32.83,0,0,0,3.3,5.76,13.08,13.08,0,0,0,3.26,3.22,5.86,5.86,0,0,0,3.32,1,8.58,8.58,0,0,0,3.48-.87,34.67,34.67,0,0,0,5.38-3.22,45.61,45.61,0,0,0,6.09-5.35l9.28,7.71a50.13,50.13,0,0,1-8,11.52,32.06,32.06,0,0,1-9.57,7,34.23,34.23,0,0,1-12.38,3.54,19,19,0,0,1-9.64-1.86,21.82,21.82,0,0,1-7.57-6.48,56.35,56.35,0,0,1-6.1-10.34L5795,3852.92l-12.38,5.77Z" transform="translate(-5407.61 -3727.21)" fill="#1e467e"/>
      <path d="M5839.77,3769.41l21.2-7.07,15.47,46.39a49.25,49.25,0,0,1,3.06-4.28,31,31,0,0,1,4.18-4.29,37.28,37.28,0,0,1,5.58-3.9,38.31,38.31,0,0,1,7.07-3.13,47.8,47.8,0,0,1,15-2.65,31.55,31.55,0,0,1,13,2.57,28.42,28.42,0,0,1,10.25,7.77,38.16,38.16,0,0,1,6.93,12.77l19.17,57.47-21.2,7.07L5920.39,3821q-2.85-8.56-8.49-11.07t-13.3,0a41.35,41.35,0,0,0-4.67,1.88,38.67,38.67,0,0,0-4.39,2.46q-2.16,1.4-4.36,3.09t-4.59,3.75l23,69-21.2,7.07Z" transform="translate(-5407.61 -3727.21)" fill="#1e467e"/>
      <path d="M5987.55,3770.12l11.37,62.57a17,17,0,0,0,2.19,6.07,11.84,11.84,0,0,0,3.61,3.75,11.05,11.05,0,0,0,4.62,1.65,17.46,17.46,0,0,0,5.34-.18,57.59,57.59,0,0,0,12.65-3.92,41.7,41.7,0,0,0,11.21-7.06l-12.69-69.84,22-4,13.71,75.42a56.19,56.19,0,0,0,1.65,6.21q1.25,4,3.27,9.32l-20.8,3.78c-0.18-.32-0.47-0.92-0.9-1.8s-0.86-1.84-1.31-2.86l-1.27-2.91q-0.6-1.37-.81-2a44.49,44.49,0,0,1-5.62,5.87,52.66,52.66,0,0,1-6.85,5.09,49.59,49.59,0,0,1-7.47,3.85,37.27,37.27,0,0,1-7.46,2.23q-9.13,1.66-15.63.26a25.08,25.08,0,0,1-10.92-5,25.89,25.89,0,0,1-7-9.21,50.25,50.25,0,0,1-3.8-12.24l-11.08-61Z" transform="translate(-5407.61 -3727.21)" fill="#1e467e"/>
      <path d="M6103.27,3754.65A164.39,164.39,0,0,1,6107,3773a29.15,29.15,0,0,1,4.27-7.66,41.49,41.49,0,0,1,6.48-6.81,37.3,37.3,0,0,1,7.66-5,20.85,20.85,0,0,1,7.83-2.2,30.41,30.41,0,0,1,7.07.18,25.79,25.79,0,0,1,3.76,1l-3.59,20.45a22.66,22.66,0,0,0-5.21-1.45,23.85,23.85,0,0,0-4.7-.19,24.28,24.28,0,0,0-13.45,4.6,29.67,29.67,0,0,0-8.71,10.51l3.83,60.64-22.47,1.36-4.65-77q-0.09-1.46-.27-3.69t-0.36-4.54q-0.18-2.31-.43-4.32t-0.48-3Z" transform="translate(-5407.61 -3727.21)" fill="#1e467e"/>
      <path d="M6168,3818.17q12.09,14.64,26.52,15.26a26,26,0,0,0,6-.39,13.63,13.63,0,0,0,4.81-1.81,10,10,0,0,0,3.29-3.38,10.71,10.71,0,0,0,1.38-5.1,7.9,7.9,0,0,0-.78-3.9,10.47,10.47,0,0,0-2.36-3.11,19.41,19.41,0,0,0-3.33-2.42,31.51,31.51,0,0,0-3.7-1.84q-3.46-1.61-6.88-2.92t-6.88-2.92q-1.95-.77-4.69-2a53.48,53.48,0,0,1-5.68-2.91,47.14,47.14,0,0,1-5.76-4,27.16,27.16,0,0,1-5.06-5.38,25.93,25.93,0,0,1-3.52-7,24.56,24.56,0,0,1-1.08-8.86,19.46,19.46,0,0,1,3.48-10.69,25.61,25.61,0,0,1,8.32-7.42,38.86,38.86,0,0,1,11.5-4.23,53.18,53.18,0,0,1,13.08-1,70.5,70.5,0,0,1,19.25,3.33,44.61,44.61,0,0,1,15.56,9l-10.81,15.18q-2.55-2.78-5-5a31.49,31.49,0,0,0-5.21-3.84,25.29,25.29,0,0,0-6.08-2.54,34.21,34.21,0,0,0-7.61-1.11,19.69,19.69,0,0,0-6.22.59,12.34,12.34,0,0,0-4.35,2.13,8.91,8.91,0,0,0-2.59,3.24,10.35,10.35,0,0,0-.94,3.92,7,7,0,0,0,.94,4,11.13,11.13,0,0,0,2.75,3,19.54,19.54,0,0,0,3.9,2.32q2.19,1,4.48,1.87,3.55,1.44,7.14,2.85t7.14,2.85q1.77,0.77,4.31,1.82a43,43,0,0,1,5.22,2.64,37.92,37.92,0,0,1,5.3,3.8,24.84,24.84,0,0,1,4.63,5.28,25.88,25.88,0,0,1,3.18,7,28.13,28.13,0,0,1,.94,9.12,20.59,20.59,0,0,1-3.67,11.24,27.1,27.1,0,0,1-8.73,7.88,41.11,41.11,0,0,1-12,4.51,53.81,53.81,0,0,1-13.64,1.13,94.41,94.41,0,0,1-11.65-1.2,55,55,0,0,1-10.33-2.77,43.29,43.29,0,0,1-9.21-4.83,42.33,42.33,0,0,1-8.11-7.36Z" transform="translate(-5407.61 -3727.21)" fill="#1e467e"/>
      <path d="M6304.51,3763.72a38.16,38.16,0,0,1,10.92,3.39,27,27,0,0,1,7,5l7.84-44.87,22,3.84-17.67,101.16q-0.62,3.56-1,7.59t-0.31,8.28a84.64,84.64,0,0,0,.52,8.51,55,55,0,0,0,1.53,8.21l-20.57-3.59a11.68,11.68,0,0,1-1.42-2.08q-0.7-1.25-1.32-2.67a22.81,22.81,0,0,1-1.06-2.93,22.58,22.58,0,0,1-.63-2.86,33.28,33.28,0,0,1-12,6.41,31,31,0,0,1-14.1.55,39.68,39.68,0,0,1-16.51-6.63,38,38,0,0,1-11.08-12.23,44.87,44.87,0,0,1-5.37-16.47,63.37,63.37,0,0,1,.55-19.36,52.37,52.37,0,0,1,6.12-17.08,46.57,46.57,0,0,1,11.42-13.45,44.11,44.11,0,0,1,15.79-8A43.2,43.2,0,0,1,6304.51,3763.72Zm-13.44,77.91a40.39,40.39,0,0,0,9.67.6,37.24,37.24,0,0,0,9.8-2.17l9.26-53a41.58,41.58,0,0,0-7.09-3.86,38,38,0,0,0-8.39-2.42,21.68,21.68,0,0,0-10.62.59,23.07,23.07,0,0,0-8.61,5.08,29.75,29.75,0,0,0-6.3,8.58,40.11,40.11,0,0,0-3.6,11.11,53.35,53.35,0,0,0-.75,12,35.23,35.23,0,0,0,2.2,10.85,22.21,22.21,0,0,0,5.45,8.28A16.93,16.93,0,0,0,6291.07,3841.63Z" transform="translate(-5407.61 -3727.21)" fill="#1e467e"/>
      <path d="M6377.19,3793.09a53.09,53.09,0,0,1,19.71-4.48,60.14,60.14,0,0,1,21.26,3,59,59,0,0,1,13.12,6.07,39.17,39.17,0,0,1,10,8.76,26.6,26.6,0,0,1,5.29,11.25,25.91,25.91,0,0,1-1,13.45l-12.8,39.39a30.62,30.62,0,0,0-1.23,4.89,7.75,7.75,0,0,0,.12,3.38,4.36,4.36,0,0,0,1.5,2.2,9.27,9.27,0,0,0,2.88,1.43,23.1,23.1,0,0,0,2.53.55q1.88,0.34,3.62.54l-0.77,10.14q-2.36.59-4.75,1a31.59,31.59,0,0,1-5,.42,38.22,38.22,0,0,1-5.48-.38,35.93,35.93,0,0,1-6.17-1.46,18.68,18.68,0,0,1-9.34-6.15,13.24,13.24,0,0,1-2.66-9.76,41.41,41.41,0,0,1-17.32,4,42.83,42.83,0,0,1-8-.7,58.17,58.17,0,0,1-7.39-1.86,36.11,36.11,0,0,1-10.2-5,23,23,0,0,1-6.59-7.25,21.26,21.26,0,0,1-2.68-9.27,30.08,30.08,0,0,1,1.64-11.17,32.94,32.94,0,0,1,5.95-11.21,27.69,27.69,0,0,1,8.62-6.91,32.79,32.79,0,0,1,10.72-3.25,56.94,56.94,0,0,1,12.31-.2,95.25,95.25,0,0,1,13.35,2.17q6.89,1.61,13.83,3.86l1-3.19a21.33,21.33,0,0,0,1.19-7.84,14,14,0,0,0-1.75-6.17,14.36,14.36,0,0,0-4.25-4.59,23.68,23.68,0,0,0-6.4-3.12,33,33,0,0,0-6.06-1.38,24.19,24.19,0,0,0-6.21.06,37.6,37.6,0,0,0-7,1.7,76.72,76.72,0,0,0-8.57,3.58Zm41.94,47a77.76,77.76,0,0,0-16.23-3,29.9,29.9,0,0,0-11,1.16,15,15,0,0,0-7,4.6,22.36,22.36,0,0,0-3.93,7.35,19.48,19.48,0,0,0-1.12,6.23,10.09,10.09,0,0,0,1.08,4.6,8.92,8.92,0,0,0,3,3.27,17.6,17.6,0,0,0,4.46,2.13,48.83,48.83,0,0,0,4.78,1.28,31.91,31.91,0,0,0,5.25.67,33.85,33.85,0,0,0,5.77-.25,38,38,0,0,0,6.32-1.38Z" transform="translate(-5407.61 -3727.21)" fill="#1e467e"/>
      <path d="M6493.1,3896.56l46.83-53.78,22,10.46-75.88,74.53q-6.46,5.59-11.95,9.74a42.18,42.18,0,0,1-11,6.15,27.86,27.86,0,0,1-11.46,1.6,37.47,37.47,0,0,1-13.32-3.9,38.76,38.76,0,0,1-10.25-7,46.32,46.32,0,0,1-7.13-8.52l9.63-10.46q0.94,1,2.51,2.43a42.18,42.18,0,0,0,3.48,2.79q1.91,1.38,4,2.72a39.78,39.78,0,0,0,4.14,2.3,12.35,12.35,0,0,0,6,1.28,16.1,16.1,0,0,0,6.12-1.66,32.84,32.84,0,0,0,6.58-4.34q3.44-2.84,7.36-6.69a25.39,25.39,0,0,0,2.52-2.61,30.45,30.45,0,0,0,2.47-3.3l5.26-93.48,22,10.46Z" transform="translate(-5407.61 -3727.21)" fill="#1e467e"/>
      <path d="M6637.53,3933.28l60.55,48.12-12.67,15.95-60.55-48.12Z" transform="translate(-5407.61 -3727.21)" fill="#1e467e"/>
      <path d="M6751.54,4090.36q-3,18.74,6,30a25.94,25.94,0,0,0,4.21,4.22,13.65,13.65,0,0,0,4.53,2.42,10,10,0,0,0,4.71.24,10.71,10.71,0,0,0,4.75-2.32,7.9,7.9,0,0,0,2.43-3.16,10.47,10.47,0,0,0,.79-3.83,19.47,19.47,0,0,0-.37-4.11,31.62,31.62,0,0,0-1.06-4q-1.07-3.66-2.34-7.1t-2.34-7.1q-0.7-2-1.61-4.82a53.52,53.52,0,0,1-1.55-6.19,47.34,47.34,0,0,1-.79-7,27.17,27.17,0,0,1,.72-7.35,25.93,25.93,0,0,1,2.94-7.26,24.53,24.53,0,0,1,6-6.65,19.46,19.46,0,0,1,10.33-4.43,25.62,25.62,0,0,1,11.07,1.37,38.93,38.93,0,0,1,10.76,5.86,53.22,53.22,0,0,1,9.38,9.16,70.51,70.51,0,0,1,10.18,16.68,44.61,44.61,0,0,1,3.47,17.65l-18.55,1.87q0.41-3.74.47-7a31.46,31.46,0,0,0-.54-6.45,25.28,25.28,0,0,0-2.09-6.25,34.2,34.2,0,0,0-4.18-6.45,19.7,19.7,0,0,0-4.54-4.29,12.34,12.34,0,0,0-4.47-1.87,8.9,8.9,0,0,0-4.15.19,10.34,10.34,0,0,0-3.57,1.87,7,7,0,0,0-2.42,3.37,11.11,11.11,0,0,0-.48,4.07,19.49,19.49,0,0,0,.82,4.46q0.69,2.31,1.54,4.6,1.25,3.62,2.56,7.25t2.56,7.25q0.59,1.84,1.47,4.44a43,43,0,0,1,1.46,5.66,38,38,0,0,1,.63,6.49,24.89,24.89,0,0,1-.92,7,25.88,25.88,0,0,1-3.19,7,28.13,28.13,0,0,1-6.24,6.71,20.59,20.59,0,0,1-10.87,4.64,27.1,27.1,0,0,1-11.68-1.38,41.07,41.07,0,0,1-11.31-6.08,53.81,53.81,0,0,1-9.83-9.52,94.43,94.43,0,0,1-6.77-9.55,55.09,55.09,0,0,1-4.72-9.6,43.32,43.32,0,0,1-2.43-10.11,42.34,42.34,0,0,1,.2-11Z" transform="translate(-5407.61 -3727.21)" fill="#1e467e"/>
      <path d="M6870.61,4140.65l-54.29,33.13a17,17,0,0,0-4.87,4.23,11.86,11.86,0,0,0-2.21,4.72,11.05,11.05,0,0,0,.13,4.91,17.48,17.48,0,0,0,2.09,4.92,57.56,57.56,0,0,0,8.21,10.4,41.71,41.71,0,0,0,10.62,7.92l60.59-37,11.64,19.07-65.44,39.93a56.18,56.18,0,0,0-5.2,3.77q-3.29,2.61-7.52,6.4l-11-18q0.35-.42,1.36-1.48t2.2-2.25l2.26-2.24q1.07-1.05,1.61-1.49a44.49,44.49,0,0,1-7.5-3.13,52.7,52.7,0,0,1-7.21-4.56,49.78,49.78,0,0,1-6.28-5.58,37.27,37.27,0,0,1-4.76-6.16q-4.84-7.92-5.87-14.49a25.07,25.07,0,0,1,.78-12,25.88,25.88,0,0,1,6.07-9.85,50.26,50.26,0,0,1,10.05-7.95l52.89-32.27Z" transform="translate(-5407.61 -3727.21)" fill="#1e467e"/>
      <path d="M6905.72,4233.65q2.53-1.08,6.47-2.91a55.38,55.38,0,0,0,7.71-4.38l8.29,19.35a11.11,11.11,0,0,1-1.34,1.13l-1.91,1.43q-1,.77-2.17,1.49l-2.1,1.32a37.62,37.62,0,0,1,5.44,3.09,43.63,43.63,0,0,1,5.64,4.55,42.05,42.05,0,0,1,5.17,6,38.49,38.49,0,0,1,4.15,7.39,39.54,39.54,0,0,1,3.24,13.24,31.68,31.68,0,0,1-1.66,12.49,30.15,30.15,0,0,1-6.62,10.74,34.3,34.3,0,0,1-11.67,7.9l-56.48,24.2-8.8-20.54,52.61-22.54a34.52,34.52,0,0,0,8.25-4.75,15.2,15.2,0,0,0,4.42-5.5,12.77,12.77,0,0,0,1-6.29,22.79,22.79,0,0,0-1.89-7.14,37.1,37.1,0,0,0-2.39-4.59,47,47,0,0,0-3.28-4.72q-1.85-2.34-3.89-4.5a41.24,41.24,0,0,0-4.18-3.87l-66,28.26-8.8-20.54Z" transform="translate(-5407.61 -3727.21)" fill="#1e467e"/>
      <path d="M6977.26,4378.47a38.19,38.19,0,0,1,1.5,11.34,27,27,0,0,1-1.59,8.42l44-11.68,5.73,21.6-99.26,26.34q-3.49.93-7.3,2.29t-7.65,3.18a84.52,84.52,0,0,0-7.51,4,55,55,0,0,0-6.81,4.83l-5.36-20.18a11.76,11.76,0,0,1,1.29-2.17q0.85-1.16,1.87-2.32a23.69,23.69,0,0,1,4.55-4,33.28,33.28,0,0,1-10.84-8.19,31,31,0,0,1-6.4-12.57,39.68,39.68,0,0,1-.89-17.77,38,38,0,0,1,6.46-15.18,44.9,44.9,0,0,1,12.7-11.77,63.4,63.4,0,0,1,17.81-7.61,52.37,52.37,0,0,1,18.07-1.59,46.57,46.57,0,0,1,17,4.74,44.1,44.1,0,0,1,13.89,11A43.2,43.2,0,0,1,6977.26,4378.47Zm-76.37,20.44a40.36,40.36,0,0,0,3.51,9,37.26,37.26,0,0,0,6.08,8l52-13.8a41.6,41.6,0,0,0,.53-8.05,38.08,38.08,0,0,0-1.31-8.63,21.68,21.68,0,0,0-5-9.39,23.05,23.05,0,0,0-8.22-5.69,29.76,29.76,0,0,0-10.43-2.12,40.12,40.12,0,0,0-11.59,1.39,53.32,53.32,0,0,0-11.25,4.36,35.22,35.22,0,0,0-8.93,6.55A22.2,22.2,0,0,0,6901,4389,16.93,16.93,0,0,0,6900.89,4398.91Z" transform="translate(-5407.61 -3727.21)" fill="#1e467e"/>
      <path d="M6981,4456.72a53.09,53.09,0,0,1,12.34,16,60.16,60.16,0,0,1,6.21,20.55,59,59,0,0,1,0,14.45,39.17,39.17,0,0,1-3.76,12.74,26.6,26.6,0,0,1-8,9.52,25.92,25.92,0,0,1-12.64,4.71l-41.13,4.9a30.72,30.72,0,0,0-5,.94,7.75,7.75,0,0,0-3,1.53,4.36,4.36,0,0,0-1.37,2.28,9.31,9.31,0,0,0-.09,3.21,23.2,23.2,0,0,0,.56,2.53q0.48,1.85,1,3.51l-9.53,3.56q-1.52-1.9-2.89-3.9a31.65,31.65,0,0,1-2.46-4.34,38.16,38.16,0,0,1-2-5.13,35.86,35.86,0,0,1-1.26-6.21,18.68,18.68,0,0,1,1.67-11.06,13.25,13.25,0,0,1,7.75-6.51,41.39,41.39,0,0,1-10.85-14.07,42.78,42.78,0,0,1-2.72-7.55,58.38,58.38,0,0,1-1.41-7.49,36.13,36.13,0,0,1,.29-11.37,23,23,0,0,1,3.82-9,21.25,21.25,0,0,1,7.3-6.32,30.08,30.08,0,0,1,10.83-3.19,32.93,32.93,0,0,1,12.67.7,27.7,27.7,0,0,1,9.89,4.92,32.8,32.8,0,0,1,7.44,8.37,56.92,56.92,0,0,1,5.35,11.09,95.46,95.46,0,0,1,3.63,13q1.43,6.93,2.29,14.18l3.33-.4a21.27,21.27,0,0,0,7.61-2.21,14,14,0,0,0,4.87-4.17,14.37,14.37,0,0,0,2.38-5.78,23.69,23.69,0,0,0,.15-7.12,32.87,32.87,0,0,0-1.29-6.08,24.21,24.21,0,0,0-2.66-5.61,37.58,37.58,0,0,0-4.48-5.65,76.64,76.64,0,0,0-6.85-6.28ZM6956,4514.49a77.7,77.7,0,0,0-4.07-16,29.87,29.87,0,0,0-5.68-9.54,15,15,0,0,0-7.1-4.39,22.35,22.35,0,0,0-8.32-.48,19.47,19.47,0,0,0-6.13,1.59,10.11,10.11,0,0,0-3.72,2.91,8.94,8.94,0,0,0-1.72,4.06,17.65,17.65,0,0,0-.06,4.94,48.68,48.68,0,0,0,.84,4.88,31.76,31.76,0,0,0,1.6,5,33.84,33.84,0,0,0,2.65,5.14,38,38,0,0,0,3.9,5.16Z" transform="translate(-5407.61 -3727.21)" fill="#1e467e"/>
      <path d="M6935.77,4605.3l68.34,20.36-0.4,24.4-99.25-38.22q-7.76-3.56-13.81-6.84a42.2,42.2,0,0,1-10.15-7.47,27.86,27.86,0,0,1-6.2-9.77,37.43,37.43,0,0,1-2-13.74,38.76,38.76,0,0,1,2.09-12.21,46.32,46.32,0,0,1,4.8-10l13.51,4.43q-0.54,1.28-1.17,3.29a42.49,42.49,0,0,0-1.1,4.32q-0.47,2.31-.81,4.8a39.72,39.72,0,0,0-.38,4.72,12.35,12.35,0,0,0,1.32,6,16.11,16.11,0,0,0,4,4.88,32.91,32.91,0,0,0,6.68,4.19q4,2,9.13,3.93a25.31,25.31,0,0,0,3.42,1.22,30.55,30.55,0,0,0,4,.88l87.27-33.91-0.4,24.4Z" transform="translate(-5407.61 -3727.21)" fill="#1e467e"/>
    </g>
    <circle cx="752.03" cy="870.45" r="752.03" fill="none"/>
  </g>
</svg>
