<svg id="Layer_1" data-name="Layer 1" xmlns="http://www.w3.org/2000/svg" viewBox="0 0 1584.3 1634">
  <title>days</title>
  <g>
    <path d="M6305.63,3426.15l-3.05-6.54a51.54,51.54,0,0,1-4.85-15.76,30.14,30.14,0,0,1,1-12.76,24.17,24.17,0,0,1,6.07-9.85,36.3,36.3,0,0,1,10.32-7.05,50.79,50.79,0,0,1,5.87-2.27q3.3-1.06,6.74-1.82a52.4,52.4,0,0,1,6.68-1,29.54,29.54,0,0,1,5.84,0l-1.75,19.41q-1.49-.35-3.29-0.64a26.43,26.43,0,0,0-3.85-.33,22.54,22.54,0,0,0-4.37.38,19.31,19.31,0,0,0-4.73,1.55,31.33,31.33,0,0,0-7.35,4.48q-2.52,2.22-1.68,4a18.85,18.85,0,0,0,1.25,2.07q1,1.45,2.26,3.31t2.76,3.88q1.46,2,2.78,3.92t2.29,3.39a19.91,19.91,0,0,1,1.31,2.19l17.91-8.37,5.6,15-16.74,7.82,32.53,69.6-20.24,9.46-32.53-69.6-11.37,5.31-4.91-10.51Z" transform="translate(-5925.24 -3303.25)" fill="#1e467e"/>
    <path d="M6386.4,3391.79a164.73,164.73,0,0,1,8.72,16.59,29.21,29.21,0,0,1,1.94-8.55,41.49,41.49,0,0,1,4.3-8.35,37.3,37.3,0,0,1,5.95-6.94,20.84,20.84,0,0,1,6.89-4.31,30.4,30.4,0,0,1,6.83-1.82,25.74,25.74,0,0,1,3.88-.12l2.32,20.63a22.69,22.69,0,0,0-5.41.08,23.93,23.93,0,0,0-4.57,1.14,24.27,24.27,0,0,0-11.61,8.2,29.67,29.67,0,0,0-5.39,12.54L6421,3478l-21.18,7.63-26.16-72.6q-0.5-1.37-1.29-3.46l-1.62-4.26q-0.83-2.17-1.63-4t-1.32-2.77Z" transform="translate(-5925.24 -3303.25)" fill="#1e467e"/>
    <path d="M6437.21,3344.66a12,12,0,0,1-.32-5,12.27,12.27,0,0,1,1.56-4.43,11.9,11.9,0,0,1,3.16-3.48,13.09,13.09,0,0,1,4.45-2.14,12.08,12.08,0,0,1,9.5,1.22A11.34,11.34,0,0,1,6459,3334a13.41,13.41,0,0,1,2.07,4.38,13.06,13.06,0,0,1,.4,4.79,11.88,11.88,0,0,1-1.38,4.47,12.47,12.47,0,0,1-3,3.66,11.76,11.76,0,0,1-4.54,2.29,11.24,11.24,0,0,1-5,.23,13.11,13.11,0,0,1-4.55-1.71,13.72,13.72,0,0,1-3.62-3.21A11.65,11.65,0,0,1,6437.21,3344.66Zm8.65,27.75,21.57-5.82,24.18,89.61L6470,3462Z" transform="translate(-5925.24 -3303.25)" fill="#1e467e"/>
    <path d="M6542.38,3349.62a38.17,38.17,0,0,1,11.43-.33,27,27,0,0,1,8.22,2.44l-7.12-45,22.07-3.49L6593,3404.68q0.56,3.57,1.54,7.5t2.39,7.93a84.6,84.6,0,0,0,3.25,7.88,54.56,54.56,0,0,0,4.11,7.27l-20.63,3.26a11.63,11.63,0,0,1-2-1.51q-1.07-1-2.12-2.1a22.62,22.62,0,0,1-2-2.43,22.34,22.34,0,0,1-1.53-2.5,33.32,33.32,0,0,1-9.26,9.95,31,31,0,0,1-13.16,5.08,39.71,39.71,0,0,1-17.77-.93,38,38,0,0,1-14.44-8,44.89,44.89,0,0,1-10.41-13.84,63.34,63.34,0,0,1-5.75-18.49,52.36,52.36,0,0,1,.26-18.14,46.56,46.56,0,0,1,6.45-16.42,44.13,44.13,0,0,1,12.35-12.7A43.21,43.21,0,0,1,6542.38,3349.62Zm12.53,78.06a40.34,40.34,0,0,0,9.34-2.57,37.29,37.29,0,0,0,8.57-5.23l-8.41-53.14a41.65,41.65,0,0,0-8-1.35,38.06,38.06,0,0,0-8.72.42,21.68,21.68,0,0,0-9.85,4,23,23,0,0,0-6.5,7.6,29.7,29.7,0,0,0-3.18,10.16,40,40,0,0,0,.19,11.67,53.33,53.33,0,0,0,3.19,11.63,35.25,35.25,0,0,0,5.6,9.55,22.21,22.21,0,0,0,7.83,6.07A16.93,16.93,0,0,0,6554.91,3427.68Z" transform="translate(-5925.24 -3303.25)" fill="#1e467e"/>
    <path d="M6620.67,3353.87a53.09,53.09,0,0,1,17.18-10.66,60.19,60.19,0,0,1,21.07-4.11,59,59,0,0,1,14.38,1.47,39.15,39.15,0,0,1,12.29,5,26.63,26.63,0,0,1,8.67,8.92,25.92,25.92,0,0,1,3.41,13l0.72,41.42a30.77,30.77,0,0,0,.43,5,7.75,7.75,0,0,0,1.22,3.16,4.35,4.35,0,0,0,2.13,1.6,9.27,9.27,0,0,0,3.19.42,23.05,23.05,0,0,0,2.57-.3q1.89-.29,3.6-0.66l2.58,9.84q-2,1.32-4.17,2.48a31.42,31.42,0,0,1-4.56,2,38.09,38.09,0,0,1-5.3,1.42,35.86,35.86,0,0,1-6.31.63,18.67,18.67,0,0,1-10.83-2.78,13.25,13.25,0,0,1-5.69-8.37,41.4,41.4,0,0,1-15.09,9.37,42.84,42.84,0,0,1-7.79,1.94,58.11,58.11,0,0,1-7.6.65,36.14,36.14,0,0,1-11.29-1.44,23,23,0,0,1-8.59-4.71,21.24,21.24,0,0,1-5.55-7.9,30.07,30.07,0,0,1-2.08-11.09,32.92,32.92,0,0,1,2-12.54,27.71,27.71,0,0,1,5.9-9.34,32.78,32.78,0,0,1,9.08-6.56,56.89,56.89,0,0,1,11.57-4.2,95.34,95.34,0,0,1,13.33-2.29q7-.72,14.34-0.85l-0.06-3.35a21.3,21.3,0,0,0-1.42-7.8,14,14,0,0,0-3.66-5.27,14.35,14.35,0,0,0-5.51-3,23.71,23.71,0,0,0-7.06-.87,32.82,32.82,0,0,0-6.18.67,24.14,24.14,0,0,0-5.85,2.08,37.52,37.52,0,0,0-6.08,3.89,76.5,76.5,0,0,0-6.94,6.18Zm54.94,30.76a77.71,77.71,0,0,0-16.33,2.43,29.88,29.88,0,0,0-10.06,4.69,15,15,0,0,0-5.08,6.62,22.32,22.32,0,0,0-1.32,8.23,19.42,19.42,0,0,0,1,6.26,10.07,10.07,0,0,0,2.52,4,8.92,8.92,0,0,0,3.86,2.12,17.58,17.58,0,0,0,4.91.56,49,49,0,0,0,4.94-.34,31.78,31.78,0,0,0,5.18-1.08,33.73,33.73,0,0,0,5.38-2.11,38,38,0,0,0,5.53-3.36Z" transform="translate(-5925.24 -3303.25)" fill="#1e467e"/>
    <path d="M6763.87,3413.82l26.61-66.16,24.26,2.66-47.26,95.28q-4.27,7.4-8.09,13.12a42.19,42.19,0,0,1-8.38,9.41,27.84,27.84,0,0,1-10.3,5.27,37.45,37.45,0,0,1-13.86.69,38.77,38.77,0,0,1-12-3.21,46.28,46.28,0,0,1-9.53-5.71l5.66-13q1.22,0.65,3.17,1.47a42.22,42.22,0,0,0,4.2,1.5q2.26,0.68,4.71,1.25a39.49,39.49,0,0,0,4.67.81,12.36,12.36,0,0,0,6.09-.76,16.12,16.12,0,0,0,5.23-3.58,32.87,32.87,0,0,0,4.79-6.26q2.32-3.81,4.76-8.73a25.68,25.68,0,0,0,1.53-3.29,30.62,30.62,0,0,0,1.25-3.93l-25.68-90,24.26,2.66Z" transform="translate(-5925.24 -3303.25)" fill="#1e467e"/>
    <path d="M6912.43,3401.18l73,25.7-6.77,19.21-73-25.7Z" transform="translate(-5925.24 -3303.25)" fill="#1e467e"/>
    <path d="M7121.85,3465.2a34.46,34.46,0,0,1-1.32,3.85q-1,2.42-1.85,4.31a31,31,0,0,1,6.43,0,53.1,53.1,0,0,1,7.39,1.27,49.57,49.57,0,0,1,7.65,2.55,39.42,39.42,0,0,1,7.15,3.94,33,33,0,0,1,9.66,10,23.43,23.43,0,0,1,3.61,11.05,69,69,0,0,1,8.85.67,50.07,50.07,0,0,1,7.78,1.76,45.08,45.08,0,0,1,7.16,2.95,62.54,62.54,0,0,1,7.06,4.29,33.63,33.63,0,0,1,9.25,9.12,23.3,23.3,0,0,1,3.72,9.92,24,24,0,0,1-1.07,10.25,37.84,37.84,0,0,1-5.06,10l-37.68,54.08-18.33-12.77,34.15-49a29.17,29.17,0,0,0,4.06-7.7,13.11,13.11,0,0,0,.56-6.21,11.08,11.08,0,0,0-2.43-5.15,24.57,24.57,0,0,0-5-4.45,37.31,37.31,0,0,0-7.08-3.89,43.2,43.2,0,0,0-8.62-2.44,23.45,23.45,0,0,1-1.73,4.29,44.51,44.51,0,0,1-3.08,5l-36.16,51.89-18.33-12.77,34.15-49a32.45,32.45,0,0,0,4.2-7.76,12.31,12.31,0,0,0,.66-6.14,10.64,10.64,0,0,0-2.45-5.06,27.07,27.07,0,0,0-5.2-4.57,29.91,29.91,0,0,0-8.15-4.16,39.61,39.61,0,0,0-8.37-1.59l-41.56,59.65-18.33-12.77,46.87-67.26q1.67-2.4,3.27-4.84a29.13,29.13,0,0,0,2.43-4.38Z" transform="translate(-5925.24 -3303.25)" fill="#1e467e"/>
    <path d="M7205.49,3653.19a53.27,53.27,0,0,1-11.78-16.62,39.58,39.58,0,0,1-3.37-17.42,43,43,0,0,1,4.62-17.43,64.28,64.28,0,0,1,12.19-16.65,56.69,56.69,0,0,1,14.71-10.83,42.21,42.21,0,0,1,16.63-4.58,40.91,40.91,0,0,1,17.49,2.92,51.22,51.22,0,0,1,17.22,11.73q8.36,8.28,11.75,17a38.11,38.11,0,0,1,2.67,17.21,42.54,42.54,0,0,1-5.11,16.71,67,67,0,0,1-11.53,15.37,56,56,0,0,1-15.26,11.07,45.12,45.12,0,0,1-17,4.61,41.77,41.77,0,0,1-17.27-2.59A44.57,44.57,0,0,1,7205.49,3653.19Zm10.33-11.54a15.88,15.88,0,0,0,9.14,4.69,23.89,23.89,0,0,0,10.57-1,42.63,42.63,0,0,0,10.85-5.34,65.13,65.13,0,0,0,10-8.31,55.59,55.59,0,0,0,7.31-9,27.93,27.93,0,0,0,4-9.47,19.92,19.92,0,0,0-.32-9.45,20.31,20.31,0,0,0-5.57-8.91,18.31,18.31,0,0,0-8.56-5,20.74,20.74,0,0,0-9.72,0,33.66,33.66,0,0,0-10.22,4.4,56,56,0,0,0-10.11,8.19,55.14,55.14,0,0,0-7.22,9.06,37.52,37.52,0,0,0-4.69,10.35,24,24,0,0,0-.59,10.49A17,17,0,0,0,7215.82,3641.66Z" transform="translate(-5925.24 -3303.25)" fill="#1e467e"/>
    <path d="M7313.65,3652.41q2.19-1.66,5.57-4.38a55.49,55.49,0,0,0,6.43-6.11l12.71,16.79a10.74,10.74,0,0,1-1,1.42l-1.51,1.85q-0.81,1-1.74,2l-1.72,1.79a37.75,37.75,0,0,1,6,1.69,43.72,43.72,0,0,1,6.57,3.05,42.06,42.06,0,0,1,6.46,4.54,38.49,38.49,0,0,1,5.8,6.17,39.54,39.54,0,0,1,6.34,12.07,31.66,31.66,0,0,1,1.4,12.52,30.15,30.15,0,0,1-3.84,12,34.29,34.29,0,0,1-9.42,10.48l-49,37.09-13.49-17.81,45.63-34.55a34.56,34.56,0,0,0,6.86-6.6,15.21,15.21,0,0,0,3-6.4,12.77,12.77,0,0,0-.5-6.36,22.8,22.8,0,0,0-3.55-6.47,37.09,37.09,0,0,0-3.42-3.88,46.53,46.53,0,0,0-4.32-3.79q-2.36-1.83-4.86-3.43a41,41,0,0,0-5-2.74l-57.21,43.32-13.49-17.81Z" transform="translate(-5925.24 -3303.25)" fill="#1e467e"/>
    <path d="M7418,3775.63a38.2,38.2,0,0,1,4.2,10.64,27,27,0,0,1,.5,8.56l39.88-22,10.79,19.57L7383.45,3842q-3.16,1.74-6.53,4t-6.65,4.94a84.79,84.79,0,0,0-6.31,5.74,54.94,54.94,0,0,0-5.44,6.33l-10.08-18.29a11.85,11.85,0,0,1,.73-2.41q0.54-1.33,1.26-2.7a22.74,22.74,0,0,1,1.63-2.66,22.23,22.23,0,0,1,1.83-2.29,33.31,33.31,0,0,1-12.5-5.32,31,31,0,0,1-9.26-10.65,39.71,39.71,0,0,1-5.17-17,38.06,38.06,0,0,1,2.59-16.3,44.88,44.88,0,0,1,9.47-14.5,63.34,63.34,0,0,1,15.43-11.7,52.39,52.39,0,0,1,17.15-5.92,46.57,46.57,0,0,1,17.63.48,44.09,44.09,0,0,1,16.14,7.29A43.17,43.17,0,0,1,7418,3775.63ZM7348.86,3814a40.31,40.31,0,0,0,5.59,7.91,37.24,37.24,0,0,0,7.83,6.28l47.11-26a41.45,41.45,0,0,0-1.44-7.94,38,38,0,0,0-3.36-8.06,21.66,21.66,0,0,0-7.11-7.91,23.06,23.06,0,0,0-9.35-3.53,29.74,29.74,0,0,0-10.64.47,40.15,40.15,0,0,0-10.91,4.15,53.39,53.39,0,0,0-9.85,7,35.17,35.17,0,0,0-7.08,8.52,22.22,22.22,0,0,0-3,9.43A16.94,16.94,0,0,0,7348.86,3814Z" transform="translate(-5925.24 -3303.25)" fill="#1e467e"/>
    <path d="M7440.62,3850.64a53.1,53.1,0,0,1,15.85,12.55,60.22,60.22,0,0,1,11,18.44,59,59,0,0,1,3.49,14,39.15,39.15,0,0,1-.57,13.27,26.6,26.6,0,0,1-5.46,11.17,25.9,25.9,0,0,1-11.12,7.63l-38.72,14.71a30.61,30.61,0,0,0-4.58,2.11,7.75,7.75,0,0,0-2.56,2.21,4.35,4.35,0,0,0-.78,2.55,9.29,9.29,0,0,0,.69,3.14,23.29,23.29,0,0,0,1.16,2.32q0.91,1.67,1.84,3.16l-8.38,5.76q-1.94-1.47-3.74-3.08a31.44,31.44,0,0,1-3.44-3.61,38.08,38.08,0,0,1-3.14-4.51,35.94,35.94,0,0,1-2.73-5.72,18.67,18.67,0,0,1-1.06-11.13,13.25,13.25,0,0,1,5.94-8.19,41.38,41.38,0,0,1-13.93-11,42.86,42.86,0,0,1-4.46-6.67,58.11,58.11,0,0,1-3.18-6.93,36.1,36.1,0,0,1-2.47-11.1,23,23,0,0,1,1.52-9.68,21.24,21.24,0,0,1,5.55-7.9,30.08,30.08,0,0,1,9.73-5.72,32.94,32.94,0,0,1,12.47-2.39,27.7,27.7,0,0,1,10.79,2.38,32.77,32.77,0,0,1,9.25,6.32,56.79,56.79,0,0,1,7.87,9.47,95.11,95.11,0,0,1,6.67,11.76q3.06,6.37,5.66,13.2l3.13-1.19a21.29,21.29,0,0,0,6.85-4,14,14,0,0,0,3.71-5.23,14.36,14.36,0,0,0,.91-6.18,23.77,23.77,0,0,0-1.58-6.94,32.93,32.93,0,0,0-2.72-5.59,24.11,24.11,0,0,0-3.94-4.8,37.66,37.66,0,0,0-5.72-4.4,76.77,76.77,0,0,0-8.17-4.44Zm-10.33,62.11a77.77,77.77,0,0,0-7.82-14.54,29.89,29.89,0,0,0-7.82-7.88,15,15,0,0,0-8-2.54,22.33,22.33,0,0,0-8.19,1.55,19.49,19.49,0,0,0-5.56,3,10.1,10.1,0,0,0-2.91,3.72,8.92,8.92,0,0,0-.69,4.35,17.6,17.6,0,0,0,1.14,4.81,48.91,48.91,0,0,0,2,4.53,31.83,31.83,0,0,0,2.77,4.51,33.72,33.72,0,0,0,3.81,4.34,38,38,0,0,0,5,4.06Z" transform="translate(-5925.24 -3303.25)" fill="#1e467e"/>
    <path d="M7432.62,4005.85l71.26,2.81,5.66,23.74-105.63-12.46q-8.4-1.53-15.08-3.21a42.22,42.22,0,0,1-11.68-4.72,27.88,27.88,0,0,1-8.43-7.93,37.47,37.47,0,0,1-5.31-12.83,38.78,38.78,0,0,1-1-12.35,46.35,46.35,0,0,1,2.17-10.9l14.19,0.95q-0.21,1.37-.32,3.48a42.47,42.47,0,0,0,0,4.46q0.12,2.36.41,4.85a39.33,39.33,0,0,0,.8,4.67,12.35,12.35,0,0,0,2.76,5.48,16.08,16.08,0,0,0,5.13,3.73,32.78,32.78,0,0,0,7.51,2.41q4.37,0.9,9.82,1.55a25.39,25.39,0,0,0,3.61.33,30.63,30.63,0,0,0,4.12-.14l76.16-54.46,5.66,23.74Z" transform="translate(-5925.24 -3303.25)" fill="#1e467e"/>
  </g>
  <circle cx="752.03" cy="881.97" r="752.03" fill="none"/>
</svg>
