<svg id="Layer_1" data-name="Layer 1" xmlns="http://www.w3.org/2000/svg" viewBox="0 0 110.46 144.87">
  <title>hours</title>
  <g>
    <path d="M2822.22,1784.1a33.44,33.44,0,0,1,3.76,1.83,12.91,12.91,0,0,1,2.87,2.19,8.81,8.81,0,0,1,1.83,2.77,9.61,9.61,0,0,1,.64,3.7,13,13,0,0,1-.51,3.81,9.49,9.49,0,0,1-1.42,2.89,8.9,8.9,0,0,1-2.15,2.08,12.26,12.26,0,0,1-2.68,1.37,14.61,14.61,0,0,1-3.05.75,23.6,23.6,0,0,1-3.24.22,19.83,19.83,0,0,1-4.92-.59,11.39,11.39,0,0,1-4.08-1.92,9.29,9.29,0,0,1-2.78-3.45,11.94,11.94,0,0,1-1-5.22,9.84,9.84,0,0,1,.59-3.55,10.43,10.43,0,0,1,1.64-2.84,13.86,13.86,0,0,1,2.51-2.39,25.42,25.42,0,0,1,3.22-2,29.3,29.3,0,0,1-2.91-1.69,9.85,9.85,0,0,1-2.14-1.9,7.7,7.7,0,0,1-1.32-2.35,9.1,9.1,0,0,1-.46-3,8.38,8.38,0,0,1,3.64-7.2,11.54,11.54,0,0,1,3.72-1.68,17.16,17.16,0,0,1,8.67,0,11.42,11.42,0,0,1,3.76,1.74,8.81,8.81,0,0,1,2.62,3,9,9,0,0,1,1,4.35,8.07,8.07,0,0,1-.59,3.13,8.69,8.69,0,0,1-1.65,2.56,11.16,11.16,0,0,1-2.47,2A16.39,16.39,0,0,1,2822.22,1784.1Zm-6,1.38q-1.39.79-2.6,1.58a10.21,10.21,0,0,0-2.1,1.81,7.88,7.88,0,0,0-1.41,2.34,9.17,9.17,0,0,0-.52,3.33,7.73,7.73,0,0,0,.67,3.28,6.87,6.87,0,0,0,1.85,2.44,8.28,8.28,0,0,0,2.81,1.51,11.39,11.39,0,0,0,3.5.52,12.58,12.58,0,0,0,3.46-.46,7.84,7.84,0,0,0,2.79-1.41,6.56,6.56,0,0,0,1.86-2.39,7.91,7.91,0,0,0,.67-3.36,6.66,6.66,0,0,0-.52-2.76,7.13,7.13,0,0,0-1.4-2.05,9.83,9.83,0,0,0-2-1.58,19.23,19.23,0,0,0-2.36-1.2,25.11,25.11,0,0,0-2.44-.89Zm2.6-2.87a20.53,20.53,0,0,0,3-1.62,14.12,14.12,0,0,0,2.25-1.82,7.93,7.93,0,0,0,1.43-1.93,4.32,4.32,0,0,0,.51-2,6.31,6.31,0,0,0-.64-2.94,6,6,0,0,0-1.71-2,7.21,7.21,0,0,0-2.46-1.19,11.06,11.06,0,0,0-2.93-.38,11.45,11.45,0,0,0-2.81.35,7.36,7.36,0,0,0-2.45,1.1,5.68,5.68,0,0,0-1.73,1.94,5.79,5.79,0,0,0-.66,2.84,5.13,5.13,0,0,0,.79,2.87,8.07,8.07,0,0,0,2,2.1,14.22,14.22,0,0,0,2.66,1.53Q2817.5,1782.1,2818.81,1782.62Z" transform="translate(-2798.52 -1765.33)" fill="#1e457d"/>
    <path d="M2836.67,1781.7a11.52,11.52,0,0,1,2.14-1.53,16.89,16.89,0,0,1,2.6-1.19,17.23,17.23,0,0,1,2.84-.75,16.88,16.88,0,0,1,2.93-.26,9.77,9.77,0,0,1,6.53,2.05,7.08,7.08,0,0,1,2.42,5.71v11.9a23.54,23.54,0,0,0,.1,2.4,4.65,4.65,0,0,0,.36,1.48,1.52,1.52,0,0,0,.69.75,2.52,2.52,0,0,0,1.1.21,8.63,8.63,0,0,0,1.71-.17l0.62,1.81a4.83,4.83,0,0,1-1.89,1,8.51,8.51,0,0,1-2.63.4,3.16,3.16,0,0,1-2.51-1.1,5.92,5.92,0,0,1-1.22-3.15,17.49,17.49,0,0,1-4.59,3.1,12.52,12.52,0,0,1-5.33,1.15,9,9,0,0,1-2.91-.46,6.87,6.87,0,0,1-2.34-1.32,6,6,0,0,1-1.54-2.13,7,7,0,0,1-.56-2.87,7.94,7.94,0,0,1,.83-3.73,8.59,8.59,0,0,1,2.19-2.7,11.53,11.53,0,0,1,3.13-1.81,22.88,22.88,0,0,1,3.66-1.09,28.5,28.5,0,0,1,3.77-.53q1.88-.13,3.46-0.14V1786a4.81,4.81,0,0,0-1.36-3.81,5.6,5.6,0,0,0-3.81-1.19,10,10,0,0,0-2.58.32,13.21,13.21,0,0,0-2.24.82,14,14,0,0,0-1.9,1.09q-0.87.59-1.56,1.14Zm15.56,9.4a30.46,30.46,0,0,0-5.79.61,13.67,13.67,0,0,0-4,1.45,6.35,6.35,0,0,0-2.3,2.15,5.2,5.2,0,0,0-.74,2.72,3.8,3.8,0,0,0,1.19,3.09,5,5,0,0,0,3.29,1,10.51,10.51,0,0,0,2.26-.25,14.29,14.29,0,0,0,4.23-1.67,18.62,18.62,0,0,0,1.84-1.25v-7.84Z" transform="translate(-2798.52 -1765.33)" fill="#1e457d"/>
    <path d="M2869.24,1778.39a10.19,10.19,0,0,1,.3,2q0.74-.4,1.67-0.84a16.17,16.17,0,0,1,2-.79,20.08,20.08,0,0,1,2.23-.58,11.87,11.87,0,0,1,2.35-.23,9.25,9.25,0,0,1,3.57.64,6.46,6.46,0,0,1,2.68,2.15,19.19,19.19,0,0,1,9.4-2.79,7.92,7.92,0,0,1,3.28.63,6.25,6.25,0,0,1,2.3,1.73,7.36,7.36,0,0,1,1.35,2.6,11.18,11.18,0,0,1,.45,3.2v19h-3.91v-18.6a7,7,0,0,0-.36-2.36,4.61,4.61,0,0,0-1-1.67,4,4,0,0,0-1.51-1,5.3,5.3,0,0,0-1.85-.32,14.65,14.65,0,0,0-7,1.83,15,15,0,0,1,.32,3.22v18.9h-3.91v-18.55a5.82,5.82,0,0,0-1.22-4.08,4.62,4.62,0,0,0-3.55-1.31,12.18,12.18,0,0,0-3.71.58,21.89,21.89,0,0,0-3.41,1.4v22h-3.91v-23.6a29,29,0,0,0-.2-3.12h3.66Z" transform="translate(-2798.52 -1765.33)" fill="#1e457d"/>
    <path d="M2867.53,1837.93a9.5,9.5,0,0,1-1.21,1.79,8.71,8.71,0,0,1-3.95,2.65,8.43,8.43,0,0,1-2.68.41,8.17,8.17,0,0,1-2-.25,15.22,15.22,0,0,1-1.91-.62q-0.93-.37-1.84-0.82t-1.83-.82a15.42,15.42,0,0,0-1.86-.62,7.55,7.55,0,0,0-1.93-.25,5.45,5.45,0,0,0-2.54.57,6.56,6.56,0,0,0-1.94,1.53,2.56,2.56,0,0,0-.38.53,8.05,8.05,0,0,0-.33.75l-2.77-1.9a10.61,10.61,0,0,1,1.25-1.9,10.12,10.12,0,0,1,1.82-1.74,9.46,9.46,0,0,1,2.29-1.26,7.44,7.44,0,0,1,2.71-.48,9.25,9.25,0,0,1,3.12.52q1.46,0.52,2.82,1.15t2.7,1.15a7.57,7.57,0,0,0,2.77.52,5.91,5.91,0,0,0,2.72-.59,7.14,7.14,0,0,0,2-1.53,3.11,3.11,0,0,0,.57-0.82Z" transform="translate(-2798.52 -1765.33)" fill="#1e457d"/>
    <path d="M2822,1875.2a10.78,10.78,0,0,0-1.83.1,11.55,11.55,0,0,0-1.66.37,10.13,10.13,0,0,1,1.05,2.14,8.28,8.28,0,0,1,.43,2.81,9.68,9.68,0,0,1-.84,4.19,8.3,8.3,0,0,1-2.25,2.92,9.38,9.38,0,0,1-3.24,1.71,13,13,0,0,1-3.81.56,15.38,15.38,0,0,1-3.49-.42,5,5,0,0,0-1,.27,6,6,0,0,0-1.2.59,4.6,4.6,0,0,0-1,.85,1.57,1.57,0,0,0-.42,1.05,1.15,1.15,0,0,0,.87,1,10.88,10.88,0,0,0,2.28.63q1.41,0.26,5,.75a55.19,55.19,0,0,1,5.58,1.13,13.32,13.32,0,0,1,3.2,1.35,7.37,7.37,0,0,1,2.28,2.07,5.08,5.08,0,0,1,.87,3,6.32,6.32,0,0,1-.64,2.94,6.69,6.69,0,0,1-1.72,2.11,9.33,9.33,0,0,1-2.49,1.43,17.88,17.88,0,0,1-3,.88,23.69,23.69,0,0,1-3.15.43q-1.6.11-3,.11a20.39,20.39,0,0,1-4.17-.4,10.26,10.26,0,0,1-3.25-1.22,6.2,6.2,0,0,1-2.13-2.1,5.76,5.76,0,0,1-.77-3,5.47,5.47,0,0,1,.33-1.87,7.67,7.67,0,0,1,.92-1.77,9.89,9.89,0,0,1,1.34-1.56,12.37,12.37,0,0,1,1.6-1.29q-0.67-.32-1.31-0.68a6.24,6.24,0,0,1-1.15-.82,3.82,3.82,0,0,1-.83-1.06,3,3,0,0,1-.32-1.42,2.74,2.74,0,0,1,.53-1.63,6.26,6.26,0,0,1,1.31-1.34,8.64,8.64,0,0,1,1.65-1,9.61,9.61,0,0,1,1.53-.57,8.23,8.23,0,0,1-3.14-3,9.12,9.12,0,0,1-1.06-4.61,8.55,8.55,0,0,1,.9-4,8.87,8.87,0,0,1,2.36-2.91,10.44,10.44,0,0,1,3.34-1.77,12.41,12.41,0,0,1,3.83-.61,12.84,12.84,0,0,1,3.41.47,11.76,11.76,0,0,1,3.19,1.41,19,19,0,0,1,3.75-1,21.5,21.5,0,0,1,3.45-.3l-0.44,3.17Zm-17.54,22.38a10.73,10.73,0,0,0-1.72,2.42,5.24,5.24,0,0,0-.61,2.35,4.44,4.44,0,0,0,.64,2.49,4.72,4.72,0,0,0,1.66,1.55,7.16,7.16,0,0,0,2.28.79,14.49,14.49,0,0,0,2.52.22q0.69,0,1.67-.09t2-.28a16.83,16.83,0,0,0,2.08-.53,8.84,8.84,0,0,0,1.84-.83,4.58,4.58,0,0,0,1.32-1.18,2.56,2.56,0,0,0,.51-1.57,2.45,2.45,0,0,0-.53-1.55,5,5,0,0,0-1.41-1.2,11.66,11.66,0,0,0-2.08-.94,31.65,31.65,0,0,0-4.09-1q-1.93-.3-3-0.41l-1.89-.17Zm5.76-10.12a6.09,6.09,0,0,0,2.61-.51,4.59,4.59,0,0,0,1.77-1.45,6.09,6.09,0,0,0,1-2.25,12.67,12.67,0,0,0,.31-2.92,7.89,7.89,0,0,0-.35-2.34,5.55,5.55,0,0,0-1.05-2,5.14,5.14,0,0,0-1.79-1.35,6,6,0,0,0-2.57-.51,6.81,6.81,0,0,0-3,.58,5.24,5.24,0,0,0-1.9,1.52,5.78,5.78,0,0,0-1,2.13,9.89,9.89,0,0,0-.3,2.4,7.83,7.83,0,0,0,.38,2.42,6.34,6.34,0,0,0,1.16,2.13,5.89,5.89,0,0,0,2,1.52A6.21,6.21,0,0,0,2810.27,1887.47Z" transform="translate(-2798.52 -1765.33)" fill="#1e457d"/>
    <path d="M2839.82,1899.12q-6.28,0-9.5-3.88t-3.21-10.29a13.81,13.81,0,0,1,3.44-9.57,11.69,11.69,0,0,1,9.15-3.83q5.84,0,9,4a15.4,15.4,0,0,1,3.18,9.92,14.63,14.63,0,0,1-3.34,9.66A10.8,10.8,0,0,1,2839.82,1899.12Zm-0.17-3.14a6.59,6.59,0,0,0,3.59-1,10.36,10.36,0,0,0,3.05-3.49,13.23,13.23,0,0,0,1.52-6.85,12.07,12.07,0,0,0-2.09-6.89,6.91,6.91,0,0,0-6.12-3.1,7.27,7.27,0,0,0-6.22,3,12.77,12.77,0,0,0-2.19,7.77,11.13,11.13,0,0,0,1.57,6.38,10.83,10.83,0,0,0,3.17,3.23A7.12,7.12,0,0,0,2839.65,1896Z" transform="translate(-2798.52 -1765.33)" fill="#1e457d"/>
    <path d="M2858.84,1875.4a28.54,28.54,0,0,0-.22-3.44h3.78a16.7,16.7,0,0,1,.3,2.37,18.68,18.68,0,0,1,4.17-2,15.11,15.11,0,0,1,4.91-.84,8.13,8.13,0,0,1,6,2.2A8.43,8.43,0,0,1,2880,1880v18.67h-3.91v-18.35a6.24,6.24,0,0,0-1.26-4,4.28,4.28,0,0,0-3.56-1.6,15.39,15.39,0,0,0-4.55.69,16.13,16.13,0,0,0-4,1.78v21.47h-3.91V1875.4Z" transform="translate(-2798.52 -1765.33)" fill="#1e457d"/>
    <path d="M2909,1893.9a14.16,14.16,0,0,1-4.27,3.77,13.07,13.07,0,0,1-6.57,1.45,10.56,10.56,0,0,1-8.43-3.72q-3.19-3.72-3.19-10.5a15.25,15.25,0,0,1,2.89-9.63q2.89-3.72,8.48-3.72a10.43,10.43,0,0,1,7.47,2.6,10.65,10.65,0,0,1,3.09,7.25,30.24,30.24,0,0,1,.07,3.68h-17.91a13.84,13.84,0,0,0,2,7.61,6.27,6.27,0,0,0,5.54,3.18,9,9,0,0,0,4.45-1.06,11.61,11.61,0,0,0,3.51-3.17Zm-11.13-19.29a6.16,6.16,0,0,0-5.27,2.39,9.49,9.49,0,0,0-1.9,5.4h13.88a10.54,10.54,0,0,0-1.58-5.49Q2901.49,1874.61,2897.85,1874.61Z" transform="translate(-2798.52 -1765.33)" fill="#1e457d"/>
  </g>
</svg>
