<svg id="Layer_1" data-name="Layer 1" xmlns="http://www.w3.org/2000/svg" viewBox="0 0 429.19 467.43">
  <title>notfound</title>
  <g>
    <g>
      <path d="M-566,1570l2.18-3.18-5.57-3.82,2.21-3.22,5.57,3.82,3.68-5.36,2.56,2.26-3.44,5,12.72,8.74a7.72,7.72,0,0,0,3.47,1.46,2.51,2.51,0,0,0,2.48-1.16,11.5,11.5,0,0,0,1-1.94q0.53-1.23.66-1.64l3,1.67q-0.2.46-.93,1.9a20.64,20.64,0,0,1-1.25,2.19,7.08,7.08,0,0,1-4,3.15q-2.27.56-5.74-1.83l-13.56-9.31-2.18,3.18Z" transform="translate(574.24 -1460.26)" fill="#1e457d"/>
      <path d="M-562.31,1543.92l2.55-3,10.68,9.21a23.91,23.91,0,0,1,1.06-3.74,13.75,13.75,0,0,1,2.6-4.3,8.33,8.33,0,0,1,6-3.3,9.28,9.28,0,0,1,6.43,2.58l13.75,11.85-2.55,3-13.57-11.73a6.43,6.43,0,0,0-4.27-1.82,5.61,5.61,0,0,0-4.07,2.3,12.46,12.46,0,0,0-2,3.34,22.58,22.58,0,0,0-1.22,3.72l16.51,14.23-2.55,3Z" transform="translate(574.24 -1460.26)" fill="#1e457d"/>
      <path d="M-538.75,1523.14a2.44,2.44,0,0,1-.66-1.62,2.15,2.15,0,0,1,.72-1.71,2.08,2.08,0,0,1,1.72-.62,2.46,2.46,0,0,1,1.58.75,2.27,2.27,0,0,1,.67,1.7,2.22,2.22,0,0,1-.69,1.6,2.29,2.29,0,0,1-1.66.64A2.26,2.26,0,0,1-538.75,1523.14Zm6.26,6,2.83-2.7,18.44,19.33-2.83,2.7Z" transform="translate(574.24 -1460.26)" fill="#1e457d"/>
      <path d="M-509.66,1535.49a14.55,14.55,0,0,0,4.48.06,9,9,0,0,0,4.13-2,8,8,0,0,0,2.78-3.69,3.58,3.58,0,0,0-.6-3.56,3.47,3.47,0,0,0-2.19-1.31,9.06,9.06,0,0,0-4,.7l-4,1.42a15.71,15.71,0,0,1-5.67,1.3,5.87,5.87,0,0,1-5.06-2.41,5.93,5.93,0,0,1-1.07-5.58,11.41,11.41,0,0,1,4.16-5.77,22,22,0,0,1,2.26-1.6,12.64,12.64,0,0,1,2.21-1.08,10.74,10.74,0,0,1,2.26-.57,11,11,0,0,1,2.44-.05l-0.08,3.51a12.38,12.38,0,0,0-3.89.38,9.36,9.36,0,0,0-3.27,1.75,8.32,8.32,0,0,0-2.67,3.34,3,3,0,0,0,.43,3.17,3.17,3.17,0,0,0,2.92,1.2,13.19,13.19,0,0,0,3.87-1q1.09-.42,2.17-0.81t2.17-.81a12.33,12.33,0,0,1,5.79-.83,6.44,6.44,0,0,1,4,2.54,6.46,6.46,0,0,1,1.22,6.08,11.68,11.68,0,0,1-4.21,6,18.42,18.42,0,0,1-5,3,12.2,12.2,0,0,1-5.83.49Z" transform="translate(574.24 -1460.26)" fill="#1e457d"/>
      <path d="M-482,1482.42a2.44,2.44,0,0,1-.15-1.75,2.15,2.15,0,0,1,1.2-1.43,2.08,2.08,0,0,1,1.83-.08,2.47,2.47,0,0,1,1.29,1.18,2.28,2.28,0,0,1,.14,1.83,2.22,2.22,0,0,1-1.13,1.33,2.29,2.29,0,0,1-1.78.13A2.26,2.26,0,0,1-482,1482.42Zm4.22,7.57,3.5-1.75,11.94,23.9-3.5,1.75Z" transform="translate(574.24 -1460.26)" fill="#1e457d"/>
      <path d="M-457.88,1502.79a14.54,14.54,0,0,0,4.26,1.38,9,9,0,0,0,4.54-.69,8,8,0,0,0,3.75-2.71,3.59,3.59,0,0,0,.48-3.58,3.47,3.47,0,0,0-1.7-1.9,9.07,9.07,0,0,0-4.06-.52l-4.2.19a15.71,15.71,0,0,1-5.8-.43,5.87,5.87,0,0,1-4.12-3.8,5.94,5.94,0,0,1,.62-5.65,11.4,11.4,0,0,1,5.67-4.29,22,22,0,0,1,2.63-.86,12.71,12.71,0,0,1,2.43-.38,10.8,10.8,0,0,1,2.33.12,10.94,10.94,0,0,1,2.35.67l-1.11,3.33a12.41,12.41,0,0,0-3.83-.78,9.39,9.39,0,0,0-3.64.71,8.32,8.32,0,0,0-3.54,2.4,3,3,0,0,0-.53,3.16,3.17,3.17,0,0,0,2.44,2,13.16,13.16,0,0,0,4,.2q1.16-.08,2.31-0.14t2.31-.14a12.34,12.34,0,0,1,5.78.92,6.44,6.44,0,0,1,3.07,3.61,6.46,6.46,0,0,1-.63,6.17,11.68,11.68,0,0,1-5.79,4.48,18.39,18.39,0,0,1-5.68,1.34,12.2,12.2,0,0,1-5.71-1.25Z" transform="translate(574.24 -1460.26)" fill="#1e457d"/>
      <path d="M-413.09,1471.83a28.64,28.64,0,0,0-.64-3.38l3.76-.46a16.69,16.69,0,0,1,.58,2.32,18.76,18.76,0,0,1,3.9-2.45,15.09,15.09,0,0,1,4.77-1.43,8.13,8.13,0,0,1,6.22,1.46,8.44,8.44,0,0,1,3,5.94l2.27,18.54-3.88.48-2.23-18.22a6.24,6.24,0,0,0-1.74-3.81,4.28,4.28,0,0,0-3.73-1.15,15.4,15.4,0,0,0-4.43,1.24,16.18,16.18,0,0,0-3.71,2.25l2.61,21.31-3.88.48Z" transform="translate(574.24 -1460.26)" fill="#1e457d"/>
      <path d="M-371.14,1492.66q-6.28-.12-9.42-4.07t-3-10.35a13.81,13.81,0,0,1,3.63-9.5,11.69,11.69,0,0,1,9.22-3.65q5.84,0.11,8.94,4.16a15.4,15.4,0,0,1,3,10,14.63,14.63,0,0,1-3.53,9.59A10.8,10.8,0,0,1-371.14,1492.66Zm-0.11-3.14a6.6,6.6,0,0,0,3.61-.89,10.35,10.35,0,0,0,3.12-3.43,13.23,13.23,0,0,0,1.66-6.82,12.07,12.07,0,0,0-2-6.93,6.91,6.91,0,0,0-6.06-3.22,7.27,7.27,0,0,0-6.28,2.85,12.76,12.76,0,0,0-2.34,7.72,11.12,11.12,0,0,0,1.45,6.41,10.81,10.81,0,0,0,3.1,3.29A7.12,7.12,0,0,0-371.25,1489.52Z" transform="translate(574.24 -1460.26)" fill="#1e457d"/>
      <path d="M-352.88,1466.43l3.82,0.52,0.9-6.69,3.87,0.52-0.9,6.69,6.45,0.87-0.87,3.3-6-.81-2.07,15.29a7.71,7.71,0,0,0,.25,3.75,2.51,2.51,0,0,0,2.16,1.69,11.61,11.61,0,0,0,2.19,0q1.33-.08,1.77-0.15l-0.16,3.4q-0.5,0-2.11,0a20.6,20.6,0,0,1-2.52-.13,7.08,7.08,0,0,1-4.63-2.2q-1.52-1.78-1-5.95l2.2-16.3-3.82-.52Z" transform="translate(574.24 -1460.26)" fill="#1e457d"/>
      <path d="M-307.56,1475.71l3.64,1.29,2.26-6.36,3.68,1.31-2.26,6.36,6.13,2.17-1.53,3.05-5.73-2-5.16,14.55a7.71,7.71,0,0,0-.52,3.73,2.51,2.51,0,0,0,1.76,2.09,11.65,11.65,0,0,0,2.14.48q1.32,0.19,1.76.22l-0.85,3.29q-0.5-.07-2.07-0.41a20.33,20.33,0,0,1-2.44-.64,7.08,7.08,0,0,1-4.08-3.1q-1.12-2.05.28-6l5.5-15.5-3.64-1.29Z" transform="translate(574.24 -1460.26)" fill="#1e457d"/>
      <path d="M-281.36,1472.52l3.52,1.71-6.15,12.69a23.93,23.93,0,0,1,3.88.07,13.76,13.76,0,0,1,4.83,1.41,8.33,8.33,0,0,1,4.74,5,9.28,9.28,0,0,1-.85,6.87l-7.92,16.34-3.52-1.71,7.85-16.12a6.43,6.43,0,0,0,.66-4.6,5.61,5.61,0,0,0-3.27-3.34,12.45,12.45,0,0,0-3.75-1.11,22.61,22.61,0,0,0-3.91-.22l-9.51,19.61-3.52-1.71Z" transform="translate(574.24 -1460.26)" fill="#1e457d"/>
      <path d="M-253.3,1527.7a14.14,14.14,0,0,1-5.64.77,13.06,13.06,0,0,1-6.27-2.44,10.56,10.56,0,0,1-5-7.78q-0.59-4.87,3.17-10.51a15.24,15.24,0,0,1,7.75-6.41q4.47-1.49,9.12,1.61a10.43,10.43,0,0,1,4.78,6.3,10.65,10.65,0,0,1-1.45,7.75,30.22,30.22,0,0,1-2,3.11l-14.9-9.93a13.83,13.83,0,0,0-2.53,7.45,6.27,6.27,0,0,0,2.85,5.72,9,9,0,0,0,4.29,1.58,11.61,11.61,0,0,0,4.68-.69Zm1.44-22.23a6.16,6.16,0,0,0-5.71-.94,9.49,9.49,0,0,0-4.58,3.44l11.55,7.7a10.53,10.53,0,0,0,1.73-5.45Q-248.84,1507.49-251.86,1505.47Z" transform="translate(574.24 -1460.26)" fill="#1e457d"/>
      <path d="M-211.38,1536.06l-1.25,1.5a29.88,29.88,0,0,1,4.25,2.08,12.53,12.53,0,0,1,2.82,2.36,9.13,9.13,0,0,1,2.42,8.28q-0.95,4.49-5.65,8.66a16,16,0,0,1-9.43,4.34,9.47,9.47,0,0,1-8.26-3.3,14.17,14.17,0,0,1-2.57-3.85,9.83,9.83,0,0,1-.81-3.17l-9.65,8.55-2.59-2.92,25.44-22.54q1.23-1.15,2.8-2.77Zm2.74,7.49a14.14,14.14,0,0,0-2.63-2.33,15.05,15.05,0,0,0-3.44-1.68l-12.57,11.14a7.61,7.61,0,0,0,.69,3.16,13,13,0,0,0,2.33,3.56,6,6,0,0,0,5.88,2.13,14.55,14.55,0,0,0,7-3.73q3.68-3.26,4.36-6.47A6.32,6.32,0,0,0-208.65,1543.54Z" transform="translate(574.24 -1460.26)" fill="#1e457d"/>
      <path d="M-196.17,1559.21a11.49,11.49,0,0,1,2.46.93,16.88,16.88,0,0,1,2.43,1.5,17.2,17.2,0,0,1,2.2,2,16.81,16.81,0,0,1,1.84,2.3,9.78,9.78,0,0,1,1.91,6.57,7.09,7.09,0,0,1-3.42,5.18l-9.91,6.59a23.62,23.62,0,0,0-1.94,1.41,4.64,4.64,0,0,0-1,1.12,1.52,1.52,0,0,0-.24,1,2.52,2.52,0,0,0,.43,1,8.7,8.7,0,0,0,1.09,1.33l-1.16,1.51a4.82,4.82,0,0,1-1.91-1,8.54,8.54,0,0,1-1.79-2,3.16,3.16,0,0,1-.47-2.7,5.93,5.93,0,0,1,1.95-2.77,17.56,17.56,0,0,1-5.12-2.1,12.54,12.54,0,0,1-3.91-3.8,9,9,0,0,1-1.23-2.67,6.84,6.84,0,0,1-.19-2.68,6,6,0,0,1,.92-2.46,7,7,0,0,1,2.08-2.05,7.93,7.93,0,0,1,3.57-1.38,8.59,8.59,0,0,1,3.46.33,11.56,11.56,0,0,1,3.24,1.61,22.87,22.87,0,0,1,2.93,2.45,28.6,28.6,0,0,1,2.53,2.85q1.15,1.49,2,2.81l2.29-1.52a4.81,4.81,0,0,0,2.42-3.24,5.61,5.61,0,0,0-1.12-3.83,10,10,0,0,0-1.7-2,13,13,0,0,0-1.92-1.41,13.88,13.88,0,0,0-2-1q-1-.39-1.81-0.67Zm0.79,18.16a30.58,30.58,0,0,0-3.71-4.48,13.69,13.69,0,0,0-3.41-2.51,6.34,6.34,0,0,0-3.07-.72,5.19,5.19,0,0,0-2.68.89,3.8,3.8,0,0,0-1.92,2.7,5,5,0,0,0,1,3.29,10.44,10.44,0,0,0,1.46,1.75,14.26,14.26,0,0,0,1.77,1.45,14.26,14.26,0,0,0,2,1.14,18.5,18.5,0,0,0,2.06.84Z" transform="translate(574.24 -1460.26)" fill="#1e457d"/>
      <path d="M-170,1605.22a10.74,10.74,0,0,0-.88-1.61,11.51,11.51,0,0,0-1.05-1.33,10.2,10.2,0,0,1-1.47,1.88,8.25,8.25,0,0,1-2.34,1.61,9.66,9.66,0,0,1-4.14,1.06,8.29,8.29,0,0,1-3.61-.76,9.39,9.39,0,0,1-2.95-2.18,13,13,0,0,1-2.16-3.19,15.32,15.32,0,0,1-1.14-3.32,5,5,0,0,0-.69-0.79,6,6,0,0,0-1.06-.82,4.62,4.62,0,0,0-1.2-.53,1.58,1.58,0,0,0-1.13.08,1.15,1.15,0,0,0-.54,1.22,10.94,10.94,0,0,0,.42,2.32q0.38,1.38,1.49,4.83a55.51,55.51,0,0,1,1.41,5.51,13.31,13.31,0,0,1,.18,3.47,7.36,7.36,0,0,1-.87,2.95,5.08,5.08,0,0,1-2.33,2.09,6.3,6.3,0,0,1-2.93.7,6.67,6.67,0,0,1-2.65-.63,9.31,9.31,0,0,1-2.37-1.62,17.91,17.91,0,0,1-2.08-2.29,24,24,0,0,1-1.76-2.65q-0.79-1.39-1.42-2.68a20.38,20.38,0,0,1-1.45-3.93,10.24,10.24,0,0,1-.31-3.46,6.19,6.19,0,0,1,1-2.83,5.77,5.77,0,0,1,2.4-2,5.48,5.48,0,0,1,1.83-.51,7.67,7.67,0,0,1,2,.06,9.92,9.92,0,0,1,2,.53,12.29,12.29,0,0,1,1.85.88q0-.74,0-1.48a6.27,6.27,0,0,1,.24-1.39,3.84,3.84,0,0,1,.6-1.21,3,3,0,0,1,1.14-.91,2.74,2.74,0,0,1,1.7-.23,6.28,6.28,0,0,1,1.77.6,8.63,8.63,0,0,1,1.61,1.05,9.58,9.58,0,0,1,1.18,1.13,8.23,8.23,0,0,1,1.36-4.15,9.1,9.1,0,0,1,3.69-3,8.56,8.56,0,0,1,4-.92,8.87,8.87,0,0,1,3.64.86,10.47,10.47,0,0,1,3,2.24,12.44,12.44,0,0,1,2.21,3.19,12.85,12.85,0,0,1,1.06,3.28,11.77,11.77,0,0,1,.12,3.49,18.94,18.94,0,0,1,2.56,2.92,21.65,21.65,0,0,1,1.77,3l-3,1Zm-27.78-6.07a10.69,10.69,0,0,0-2.93-.5,5.24,5.24,0,0,0-2.38.48,4.44,4.44,0,0,0-2,1.66,4.73,4.73,0,0,0-.67,2.16,7.14,7.14,0,0,0,.28,2.39,14.48,14.48,0,0,0,.9,2.37q0.3,0.62.8,1.47t1.14,1.7a16.68,16.68,0,0,0,1.38,1.64,8.77,8.77,0,0,0,1.55,1.3,4.58,4.58,0,0,0,1.63.68,2.56,2.56,0,0,0,1.63-.23,2.44,2.44,0,0,0,1.16-1.15,5,5,0,0,0,.47-1.79,11.69,11.69,0,0,0-.06-2.28,31.82,31.82,0,0,0-.91-4.11q-0.57-1.87-.94-2.88t-0.67-1.78Q-197.61,1599.53-197.73,1599.15Zm11.62,0.79a6.07,6.07,0,0,0,1.59,2.13,4.59,4.59,0,0,0,2.07,1A6.12,6.12,0,0,0-180,1603a12.75,12.75,0,0,0,2.76-1,7.88,7.88,0,0,0,2-1.33,5.59,5.59,0,0,0,1.31-1.8,5.14,5.14,0,0,0,.44-2.2,6.06,6.06,0,0,0-.66-2.54,6.81,6.81,0,0,0-1.82-2.44,5.25,5.25,0,0,0-2.2-1.05,5.76,5.76,0,0,0-2.36,0,9.84,9.84,0,0,0-2.29.77,7.81,7.81,0,0,0-2,1.4,6.34,6.34,0,0,0-1.41,2,5.87,5.87,0,0,0-.52,2.42A6.2,6.2,0,0,0-186.12,1599.95Z" transform="translate(574.24 -1460.26)" fill="#1e457d"/>
      <path d="M-178.29,1638.74a14.17,14.17,0,0,1-4.91-2.89,13.07,13.07,0,0,1-3.4-5.8,10.56,10.56,0,0,1,.94-9.17q2.55-4.18,9-6.28a15.24,15.24,0,0,1,10.06-.22q4.43,1.6,6.16,6.92a10.43,10.43,0,0,1-.16,7.91,10.65,10.65,0,0,1-5.94,5.18,30,30,0,0,1-3.48,1.21l-5.53-17a13.84,13.84,0,0,0-6.61,4.28,6.27,6.27,0,0,0-1.31,6.25,9,9,0,0,0,2.39,3.91,11.62,11.62,0,0,0,4.1,2.36Zm14.91-16.54a6.16,6.16,0,0,0-3.9-4.27,9.48,9.48,0,0,0-5.73-.14l4.29,13.2a10.53,10.53,0,0,0,4.73-3.2Q-162.25,1625.66-163.37,1622.2Z" transform="translate(574.24 -1460.26)" fill="#1e457d"/>
      <path d="M-171.64,1678.6l21.76,5.7,0.26,4.22-29.34-8.87a34.81,34.81,0,0,1-4.14-1.58,13.51,13.51,0,0,1-3.05-1.91,7.68,7.68,0,0,1-2-2.6,10.43,10.43,0,0,1-.87-3.83,19.38,19.38,0,0,1,.22-4l3.77,0.49a8.26,8.26,0,0,0-.42,3.2,6.33,6.33,0,0,0,.64,2.59,5.36,5.36,0,0,0,1.51,1.77A9.28,9.28,0,0,0-181,1675q1.37,0.52,3.11,1.06a12.09,12.09,0,0,0,2.48.52l24.29-11.56,0.26,4.2Z" transform="translate(574.24 -1460.26)" fill="#1e457d"/>
      <path d="M-177.61,1705.86q0.45-6.27,4.56-9.19t10.5-2.46a13.81,13.81,0,0,1,9.3,4.12,11.69,11.69,0,0,1,3.16,9.41q-0.42,5.82-4.62,8.7a15.39,15.39,0,0,1-10.12,2.45,14.62,14.62,0,0,1-9.39-4A10.81,10.81,0,0,1-177.61,1705.86Zm3.15,0.05a6.6,6.6,0,0,0,.7,3.65,10.34,10.34,0,0,0,3.26,3.3,13.23,13.23,0,0,0,6.72,2,12.07,12.07,0,0,0,7-1.59,6.91,6.91,0,0,0,3.54-5.88,7.27,7.27,0,0,0-2.51-6.42,12.77,12.77,0,0,0-7.59-2.75,11.13,11.13,0,0,0-6.48,1.11,10.81,10.81,0,0,0-3.45,2.92A7.12,7.12,0,0,0-174.47,1705.91Z" transform="translate(574.24 -1460.26)" fill="#1e457d"/>
      <path d="M-153.6,1732.45l-17.71-3.88a5.71,5.71,0,0,0-4.3.44,4.66,4.66,0,0,0-2.13,3.14,14.58,14.58,0,0,0-.3,5,9.41,9.41,0,0,0,1.26,3.8l20.34,4.46-0.84,3.82-22.69-5a19.36,19.36,0,0,0-3.48-.41l0.85-3.89q1.42,0.11,2.77.3a15.34,15.34,0,0,1-1.09-3.56,18.31,18.31,0,0,1-.39-3.38,11.47,11.47,0,0,1,.24-2.43q0.92-4.2,3.66-5.64a9.25,9.25,0,0,1,6.45-.62l18.19,4Z" transform="translate(574.24 -1460.26)" fill="#1e457d"/>
      <path d="M-154.67,1758.23q0.28,1,.57,1.87a8.82,8.82,0,0,0,.69,1.57,4.81,4.81,0,0,0,1,1.21,3.84,3.84,0,0,0,1.41.78,2.82,2.82,0,0,0,.52.12l0.57,0.05a2,2,0,0,1-.08-0.62,2.73,2.73,0,0,1,.14-0.92,1.89,1.89,0,0,1,1.17-1.31,2.78,2.78,0,0,1,1.81,0,2.5,2.5,0,0,1,.92.53,2.78,2.78,0,0,1,.64.84,3,3,0,0,1,.29,1,2.73,2.73,0,0,1-.12,1.1,3.67,3.67,0,0,1-.91,1.55,3.85,3.85,0,0,1-1.33.86,4.17,4.17,0,0,1-1.5.27,4.72,4.72,0,0,1-1.44-.21,8.51,8.51,0,0,1-2.68-1.35,7.59,7.59,0,0,1-1.73-1.89,9,9,0,0,1-1-2.31,22.61,22.61,0,0,1-.59-2.57Z" transform="translate(574.24 -1460.26)" fill="#1e457d"/>
      <path d="M-165.16,1772.68a10.06,10.06,0,0,1-1.69-.4q-1-.32-2.64-1a14.56,14.56,0,0,1,1.7,5.49,11.38,11.38,0,0,1-.74,5.45,4.82,4.82,0,0,1-.3.61,4.16,4.16,0,0,1-.29.46l-3.48-2.29a7.46,7.46,0,0,0,.88-1.67,9.49,9.49,0,0,0,.65-5.63,7.48,7.48,0,0,0-1.67-3.68l-17.37-6.94,1.45-3.63,21.38,8.54q3,1.14,3.48,1.23Z" transform="translate(574.24 -1460.26)" fill="#1e457d"/>
      <path d="M-201.24,1797a14.17,14.17,0,0,1-1.31-5.54,13.08,13.08,0,0,1,1.83-6.47,10.56,10.56,0,0,1,7.27-5.67q4.79-1.05,10.76,2.15a15.25,15.25,0,0,1,7.12,7.11q1.91,4.31-.73,9.24a10.43,10.43,0,0,1-5.82,5.35,10.65,10.65,0,0,1-7.85-.7,30,30,0,0,1-3.28-1.68l8.47-15.78a13.84,13.84,0,0,0-7.66-1.81,6.27,6.27,0,0,0-5.42,3.38A9,9,0,0,0-199,1791a11.63,11.63,0,0,0,1.13,4.59Zm22.26-.68a6.16,6.16,0,0,0,.39-5.77,9.49,9.49,0,0,0-3.86-4.23l-6.56,12.23a10.54,10.54,0,0,0,5.59,1.2Q-180.7,1799.54-179,1796.34Z" transform="translate(574.24 -1460.26)" fill="#1e457d"/>
      <path d="M-193.89,1844.26l-2.55,3-25.2-21.76a2.75,2.75,0,0,0-1.94-.89,3.07,3.07,0,0,0-1.77,1.22l-0.36.46q-0.23.3-.45,0.64l-2.09-1.06q0.14-.47.35-1t0.47-1.09a10.11,10.11,0,0,1,.59-1.06,7.78,7.78,0,0,1,.66-0.9,3.77,3.77,0,0,1,2.9-1.47,5.48,5.48,0,0,1,3.49,1.59Z" transform="translate(574.24 -1460.26)" fill="#1e457d"/>
      <path d="M-239.75,1835.69q4.57-4.31,9.58-3.68t9.39,5.29a13.81,13.81,0,0,1,4.06,9.33,11.69,11.69,0,0,1-4,9.06q-4.25,4-9.29,3.28a15.4,15.4,0,0,1-9.11-5,14.62,14.62,0,0,1-4.19-9.32A10.81,10.81,0,0,1-239.75,1835.69Zm2.28,2.17a6.59,6.59,0,0,0-2,3.16,10.34,10.34,0,0,0,.17,4.63,13.23,13.23,0,0,0,3.59,6,12.06,12.06,0,0,0,6.24,3.58,6.91,6.91,0,0,0,6.59-1.93,7.27,7.27,0,0,0,2.5-6.42,12.77,12.77,0,0,0-3.73-7.16,11.13,11.13,0,0,0-5.52-3.57,10.81,10.81,0,0,0-4.52-.18A7.11,7.11,0,0,0-237.47,1837.86Z" transform="translate(574.24 -1460.26)" fill="#1e457d"/>
      <path d="M-262.54,1854.11q5.16-3.59,10-2.24t8.52,6.61a13.81,13.81,0,0,1,2.64,9.82,11.69,11.69,0,0,1-5.32,8.37q-4.79,3.33-9.67,1.88a15.39,15.39,0,0,1-8.27-6.33,14.62,14.62,0,0,1-2.78-9.84A10.81,10.81,0,0,1-262.54,1854.11Zm1.94,2.48a6.59,6.59,0,0,0-2.39,2.84,10.34,10.34,0,0,0-.52,4.61,13.22,13.22,0,0,0,2.66,6.49,12.07,12.07,0,0,0,5.65,4.46,6.91,6.91,0,0,0,6.8-.95,7.27,7.27,0,0,0,3.41-6,12.76,12.76,0,0,0-2.64-7.62,11.12,11.12,0,0,0-4.93-4.34,10.84,10.84,0,0,0-4.44-.84A7.12,7.12,0,0,0-260.6,1856.6Z" transform="translate(574.24 -1460.26)" fill="#1e457d"/>
      <path d="M-272.86,1880.54l-5.29,14-4.23,2.16,5-13.64-17.6-9.92,4.12-2.11,14.77,8.89,1.37-3.09-5.7-11.14,3.48-1.78,17.66,34.53-3.48,1.78Z" transform="translate(574.24 -1460.26)" fill="#1e457d"/>
      <path d="M-289.58,1899.59l-3.63,1.46-10-24.79,3.63-1.46Zm3.6,7.88a2.44,2.44,0,0,1,0,1.75,2.15,2.15,0,0,1-1.31,1.32,2.08,2.08,0,0,1-1.83-.07,2.47,2.47,0,0,1-1.19-1.28,2.28,2.28,0,0,1,0-1.83,2.23,2.23,0,0,1,1.24-1.23,2.3,2.3,0,0,1,1.78,0A2.27,2.27,0,0,1-286,1907.48Z" transform="translate(574.24 -1460.26)" fill="#1e457d"/>
      <path d="M-303.34,1901.36a28.58,28.58,0,0,0,1.17,3.24l-3.63,1.06a16.48,16.48,0,0,1-.95-2.2,18.67,18.67,0,0,1-3.46,3,15.11,15.11,0,0,1-4.48,2.18,8.13,8.13,0,0,1-6.37-.44,8.44,8.44,0,0,1-3.87-5.39l-5.21-17.93,3.75-1.09,5.12,17.62a6.23,6.23,0,0,0,2.33,3.48,4.28,4.28,0,0,0,3.87.54,15.42,15.42,0,0,0,4.18-1.93,16.22,16.22,0,0,0,3.3-2.81l-6-20.62,3.75-1.09Z" transform="translate(574.24 -1460.26)" fill="#1e457d"/>
      <path d="M-354.82,1912.64a10.74,10.74,0,0,0,1.8-.36,11.63,11.63,0,0,0,1.59-.61,10.19,10.19,0,0,1-1.35-2,8.27,8.27,0,0,1-.83-2.72,9.67,9.67,0,0,1,.23-4.27,8.29,8.29,0,0,1,1.8-3.21,9.39,9.39,0,0,1,3-2.16,13,13,0,0,1,3.69-1.1,15.36,15.36,0,0,1,3.51-.09,5,5,0,0,0,1-.42,6,6,0,0,0,1.1-.76,4.61,4.61,0,0,0,.87-1,1.57,1.57,0,0,0,.26-1.1,1.15,1.15,0,0,0-1-.88,10.94,10.94,0,0,0-2.34-.29q-1.43-.05-5.05,0a55,55,0,0,1-5.68-.31,13.28,13.28,0,0,1-3.36-.87,7.34,7.34,0,0,1-2.55-1.71,5.07,5.07,0,0,1-1.29-2.85,6.31,6.31,0,0,1,.21-3,6.68,6.68,0,0,1,1.4-2.34,9.3,9.3,0,0,1,2.25-1.78,17.92,17.92,0,0,1,2.81-1.3,24,24,0,0,1,3.06-.88q1.56-.34,3-0.55a20.41,20.41,0,0,1,4.18-.21,10.27,10.27,0,0,1,3.4.74,6.19,6.19,0,0,1,2.41,1.77,5.76,5.76,0,0,1,1.2,2.89,5.47,5.47,0,0,1-.06,1.9,7.64,7.64,0,0,1-.65,1.88,10,10,0,0,1-1.1,1.74,12.37,12.37,0,0,1-1.39,1.5q0.71,0.22,1.4.48a6.25,6.25,0,0,1,1.26.64,3.84,3.84,0,0,1,1,.93,3,3,0,0,1,.52,1.36,2.74,2.74,0,0,1-.29,1.69,6.29,6.29,0,0,1-1.1,1.51,8.59,8.59,0,0,1-1.48,1.22,9.55,9.55,0,0,1-1.43.78,8.25,8.25,0,0,1,3.55,2.54,9.12,9.12,0,0,1,1.72,4.41A8.56,8.56,0,0,1-334,1908a8.88,8.88,0,0,1-1.92,3.22,10.45,10.45,0,0,1-3,2.23,12.45,12.45,0,0,1-3.71,1.15,12.82,12.82,0,0,1-3.45,0,11.78,11.78,0,0,1-3.36-.93,19,19,0,0,1-3.56,1.57,21.44,21.44,0,0,1-3.37.79l0-3.2Zm14.12-24.68a10.72,10.72,0,0,0,1.35-2.65,5.24,5.24,0,0,0,.26-2.41,4.44,4.44,0,0,0-1-2.37,4.74,4.74,0,0,0-1.86-1.29,7.16,7.16,0,0,0-2.37-.45,14.43,14.43,0,0,0-2.53.14q-0.69.1-1.64,0.33t-2,.57a16.78,16.78,0,0,0-2,.83,8.77,8.77,0,0,0-1.7,1.09,4.56,4.56,0,0,0-1.14,1.35,2.56,2.56,0,0,0-.27,1.63,2.44,2.44,0,0,0,.75,1.45,5,5,0,0,0,1.57,1,11.73,11.73,0,0,0,2.19.63,31.66,31.66,0,0,0,4.19.36q2,0,3,0l1.9-.1Zm-4.24,10.84a6.07,6.07,0,0,0-2.51.88,4.59,4.59,0,0,0-1.54,1.69,6.12,6.12,0,0,0-.67,2.37,12.74,12.74,0,0,0,.12,2.93,7.92,7.92,0,0,0,.68,2.26,5.58,5.58,0,0,0,1.32,1.79,5.13,5.13,0,0,0,2,1.07,6,6,0,0,0,2.62.13,6.82,6.82,0,0,0,2.88-1,5.24,5.24,0,0,0,1.66-1.78,5.74,5.74,0,0,0,.7-2.25,9.85,9.85,0,0,0-.05-2.42,7.84,7.84,0,0,0-.73-2.34,6.37,6.37,0,0,0-1.46-1.94,5.9,5.9,0,0,0-2.15-1.22A6.21,6.21,0,0,0-344.95,1898.8Z" transform="translate(574.24 -1460.26)" fill="#1e457d"/>
      <path d="M-390.62,1916l-0.17,2.07q-0.41,5.1-3,7.5a8.67,8.67,0,0,1-6.83,2.05,12.17,12.17,0,0,1-3-.61,7.08,7.08,0,0,1-2.08-1l1.95-3.22a10.47,10.47,0,0,0,1.45.92,5.27,5.27,0,0,0,2.16.71q2.79,0.22,4-1.16a4.94,4.94,0,0,0,1-2.57q0.31-1.84.56-5l-6.26-.5,0.63-3.25,5.89,0.47,1.88-23.35,3.9,0.31-1.88,23.35,3.6,0.29-0.26,3.28Z" transform="translate(574.24 -1460.26)" fill="#1e457d"/>
      <path d="M-413.86,1885.63q6.17,1.2,8.58,5.63t1.19,10.71a13.8,13.8,0,0,1-5.2,8.74,11.69,11.69,0,0,1-9.71,2q-5.73-1.12-8.09-5.63a15.4,15.4,0,0,1-1.22-10.34,14.62,14.62,0,0,1,5.12-8.84A10.81,10.81,0,0,1-413.86,1885.63Zm-0.43,3.12a6.6,6.6,0,0,0-3.71.26,10.36,10.36,0,0,0-3.67,2.84,13.24,13.24,0,0,0-2.8,6.43,12.06,12.06,0,0,0,.74,7.16,6.91,6.91,0,0,0,5.42,4.22,7.27,7.27,0,0,0,6.67-1.72,12.77,12.77,0,0,0,3.63-7.21,11.13,11.13,0,0,0-.32-6.56,10.83,10.83,0,0,0-2.49-3.77A7.12,7.12,0,0,0-414.29,1888.74Z" transform="translate(574.24 -1460.26)" fill="#1e457d"/>
      <path d="M-442.68,1906.31a9.92,9.92,0,0,1,.28-1.72q0.25-1.05.78-2.7A14.57,14.57,0,0,1-447,1904a11.37,11.37,0,0,1-5.48-.36,5,5,0,0,1-.63-0.26,4.27,4.27,0,0,1-.48-0.26l2.05-3.63a7.46,7.46,0,0,0,1.73.76,9.48,9.48,0,0,0,5.66.26,7.48,7.48,0,0,0,3.56-1.92l5.73-17.8,3.72,1.2-7.06,21.92q-0.93,3.05-1,3.55Z" transform="translate(574.24 -1460.26)" fill="#1e457d"/>
    </g>
    <circle cx="198.81" cy="230.72" r="198.81" fill="none"/>
  </g>
</svg>
