<?xml version="1.0" encoding="UTF-8" standalone="no"?>
<svg width="112px" height="119px" viewBox="0 0 112 119" version="1.1" xmlns="http://www.w3.org/2000/svg" xmlns:xlink="http://www.w3.org/1999/xlink">
    <title>Patio</title>
    <g id="Page-1" stroke="none" stroke-width="1" fill="none" fill-rule="evenodd">
        <g id="Desktop" transform="translate(-1019.000000, -280.000000)">
            <g id="patio" transform="translate(1036.093080, 383.780674) rotate(-332.000000) translate(-1036.093080, -383.780674) translate(946.593080, 287.780674)">
                <path d="M47.0146527,18.5982529 L46.6489015,17.5310271 L44.9324348,12.5235653 L38.8667207,14.6090732 L40.9490432,20.6835512 L47.0146527,18.5982529 Z M54.0664824,19.523154 C54.3571997,20.3715477 54.3188978,21.1952075 53.9514722,21.9944478 C53.5473145,22.7757665 52.9354269,23.3073358 52.1157047,23.5891555 L43.0172381,26.7172601 L47.1678601,38.825447 L41.1431687,40.8968062 L39.4124696,35.8482611 L36.9925466,28.7885145 L34.9243518,22.7549104 L32.8420292,16.6802229 L30.7738344,10.6467235 L36.7984212,8.57536429 L45.8968878,5.44736449 C46.71661,5.16543996 47.5255533,5.20851467 48.323613,5.57658863 C49.1037776,5.98123941 49.6344569,6.59403224 49.915965,7.41496713 L54.0664824,19.523154 Z" id="Fill-4" fill="#FFD5C7"></path>
                <g id="Group-8" transform="translate(70.860803, 0.000000)" fill="#FFD5C7">
                    <path d="M14.1277416,12.3404365 L14.4318336,7.00738675 L7.95829182,6.63876615 L7.5893395,13.1083433 L14.0628813,13.4770696 L14.1277416,12.3404365 Z M12.9611032,32.7983514 L13.6964684,19.9028691 L7.22292659,19.5341427 L6.48756135,32.4295193 L0.057718235,32.0634365 L0.680927042,21.1350939 L1.10976665,13.6163333 L1.71297775,3.03768333 C1.76291911,2.16350475 2.12679263,1.42414868 2.80480996,0.819509376 C3.45214298,0.242363289 4.22782103,-0.0205141702 5.13173832,0.0310884847 L18.0350174,0.766003344 C18.9098375,0.815808366 19.6504932,1.16486649 20.2571959,1.81349494 C20.8330028,2.48951087 21.0959355,3.26460812 21.0461,4.13889245 L19.3908405,33.1645399 L12.9611032,32.7983514 Z" id="Fill-6"></path>
                </g>
                <polygon id="Fill-9" fill="#FFD5C7" points="132.81339 13.97014 130.040647 19.7299798 124.256028 16.9691143 113.127432 40.0869685 107.303501 37.3074237 118.431993 14.1895695 112.647374 11.428704 114.382643 7.82391131 115.420117 5.66886423"></polygon>
                <polygon id="Fill-11" fill="#FFD5C7" points="155.893766 31.1202909 139.313441 48.4822466 133.796745 54.259129 129.169121 49.8634838 138.373763 40.2248754 151.266142 26.7246456"></polygon>
                <path d="M154.379584,70.9995147 L155.493219,70.3980753 L171.391193,61.8115709 L168.314672,56.1410372 L159.828061,60.7246449 L151.303064,65.3289811 L154.379584,70.9995147 Z M154.63205,78.1457633 C153.838375,78.5744309 153.027299,78.665657 152.198506,78.4197571 C151.330483,78.1618621 150.688561,77.64986 150.272847,76.8836456 L144.140581,65.5808785 C143.711051,64.7890956 143.63238,63.9727963 143.904566,63.1321912 C144.137312,62.2799065 144.65047,61.6394304 145.444145,61.2108681 L153.969037,56.6064267 L159.806021,53.4539206 L168.100593,48.9740602 C168.868642,48.5591764 169.686678,48.4806821 170.554807,48.7384719 C171.383389,48.984477 172.01255,49.5034236 172.44208,50.2952066 L178.574345,61.5979736 C178.99006,62.3643985 179.081597,63.173648 178.848852,64.0259326 C178.576665,64.8665377 178.056548,65.4942822 177.288498,65.9089555 L154.63205,78.1457633 Z" id="Fill-13" fill="#FFD5C7"></path>
            </g>
        </g>
    </g>
</svg>