<svg id="Layer_1" data-name="Layer 1" xmlns="http://www.w3.org/2000/svg" viewBox="0 0 397.62 429.89">
  <title>phrase-circle</title>
  <g>
    <g>
      <path d="M2515.56,1488.54q-3.72,5.06-8.75,5.35t-10.2-3.5a13.81,13.81,0,0,1-5.67-8.44,11.69,11.69,0,0,1,2.33-9.64q3.46-4.7,8.55-4.9a15.4,15.4,0,0,1,9.87,3.32,14.63,14.63,0,0,1,5.8,8.41A10.81,10.81,0,0,1,2515.56,1488.54Zm-2.63-1.72a6.58,6.58,0,0,0,1.35-3.46,10.34,10.34,0,0,0-1-4.53,13.24,13.24,0,0,0-4.62-5.28,12.06,12.06,0,0,0-6.79-2.4,6.91,6.91,0,0,0-6.13,3.09,7.27,7.27,0,0,0-1.29,6.77,12.77,12.77,0,0,0,5,6.37,11.13,11.13,0,0,0,6.07,2.52,10.84,10.84,0,0,0,4.48-.64A7.12,7.12,0,0,0,2512.93,1486.81Z" transform="translate(-2476.47 -1375.11)" fill="#1e457d"/>
      <path d="M2509.14,1453.67a10,10,0,0,1,1.43,1q0.85,0.67,2.11,1.85a14.57,14.57,0,0,1,.41-5.73,11.38,11.38,0,0,1,2.67-4.8,5,5,0,0,1,.5-0.46,4.09,4.09,0,0,1,.44-0.32l2.41,3.4a7.45,7.45,0,0,0-1.43,1.24,9.49,9.49,0,0,0-2.65,5,7.46,7.46,0,0,0,.22,4l13.66,12.77-2.67,2.85-16.82-15.73q-2.36-2.14-2.79-2.41Z" transform="translate(-2476.47 -1375.11)" fill="#1e457d"/>
      <path d="M2529.36,1433.68a18.4,18.4,0,0,1,6.11-3.38l-8.38-9.92,3-2.52,19.58,23.16a31.13,31.13,0,0,0,3.44,3.61,27.81,27.81,0,0,0,2.87,2.09l-2.79,2.36a5.4,5.4,0,0,1-1.1-.38,7.4,7.4,0,0,1-1.13-.65,20.29,20.29,0,0,1-1.55,3.78,12.78,12.78,0,0,1-3.09,3.57,9.76,9.76,0,0,1-8.58,2.3,16.95,16.95,0,0,1-12.51-15.27A10.89,10.89,0,0,1,2529.36,1433.68Zm15.28,18.79a15.57,15.57,0,0,0,2.73-2.84,9.57,9.57,0,0,0,1.34-3.68l-11.28-13.33a18.49,18.49,0,0,0-5.34,3.22q-3.55,3-3.06,6.75a14,14,0,0,0,9.39,11.11A6.32,6.32,0,0,0,2544.63,1452.48Z" transform="translate(-2476.47 -1375.11)" fill="#1e457d"/>
      <path d="M2576.39,1427.84a14.14,14.14,0,0,1-1.6,5.47A13.06,13.06,0,0,1,2570,1438a10.56,10.56,0,0,1-9.12,1.35q-4.68-1.45-8.3-7.18a15.24,15.24,0,0,1-2.69-9.69q0.46-4.69,5.19-7.67a10.42,10.42,0,0,1,7.7-1.78,10.65,10.65,0,0,1,6.48,4.48,30.43,30.43,0,0,1,2,3.08l-15.15,9.55a13.84,13.84,0,0,0,5.77,5.35,6.27,6.27,0,0,0,6.38-.27,9,9,0,0,0,3.2-3.27,11.63,11.63,0,0,0,1.28-4.55Zm-19.7-10.39a6.16,6.16,0,0,0-3.18,4.83,9.48,9.48,0,0,0,1.27,5.59l11.74-7.4a10.54,10.54,0,0,0-4.27-3.8Q2559.76,1415.52,2556.69,1417.46Z" transform="translate(-2476.47 -1375.11)" fill="#1e457d"/>
      <path d="M2575.44,1403.91a9.94,9.94,0,0,1,1,1.43q0.54,0.93,1.3,2.49a14.57,14.57,0,0,1,2.45-5.19,11.38,11.38,0,0,1,4.22-3.52,5,5,0,0,1,.63-0.25,4.26,4.26,0,0,1,.52-0.14l1,4a7.47,7.47,0,0,0-1.78.64,9.48,9.48,0,0,0-4.28,3.71,7.48,7.48,0,0,0-1.25,3.84l8.13,16.84-3.52,1.7-10-20.74q-1.43-2.85-1.74-3.25Z" transform="translate(-2476.47 -1375.11)" fill="#1e457d"/>
      <path d="M2618,1391.17a11.53,11.53,0,0,1,1.77-1.95,17,17,0,0,1,2.29-1.71,17.28,17.28,0,0,1,2.62-1.33,16.85,16.85,0,0,1,2.81-.87,9.77,9.77,0,0,1,6.82.64,7.08,7.08,0,0,1,3.57,5.08l2.5,11.63a23.59,23.59,0,0,0,.6,2.33,4.6,4.6,0,0,0,.66,1.38,1.52,1.52,0,0,0,.84.59,2.53,2.53,0,0,0,1.12,0,8.78,8.78,0,0,0,1.63-.53l1,1.64a4.82,4.82,0,0,1-1.63,1.41,8.51,8.51,0,0,1-2.49.94,3.16,3.16,0,0,1-2.69-.55,5.92,5.92,0,0,1-1.86-2.83,17.56,17.56,0,0,1-3.83,4,12.57,12.57,0,0,1-5,2.24,9,9,0,0,1-2.94.16,6.83,6.83,0,0,1-2.56-.8,6,6,0,0,1-2-1.75,7.05,7.05,0,0,1-1.15-2.69,8,8,0,0,1,0-3.83,8.58,8.58,0,0,1,1.57-3.09,11.52,11.52,0,0,1,2.68-2.42,23,23,0,0,1,3.35-1.83,28.54,28.54,0,0,1,3.58-1.31q1.81-.53,3.36-0.86l-0.58-2.68a4.81,4.81,0,0,0-2.13-3.44,5.6,5.6,0,0,0-4-.36,10,10,0,0,0-2.46.86,13.13,13.13,0,0,0-2,1.27,14.19,14.19,0,0,0-1.63,1.46q-0.72.76-1.28,1.44Zm17.18,5.92a30.45,30.45,0,0,0-5.53,1.81,13.72,13.72,0,0,0-3.59,2.25,6.34,6.34,0,0,0-1.8,2.59,5.18,5.18,0,0,0-.15,2.82,3.8,3.8,0,0,0,1.81,2.77,5,5,0,0,0,3.42.28,10.49,10.49,0,0,0,2.16-.72,14.27,14.27,0,0,0,3.79-2.52,18.57,18.57,0,0,0,1.54-1.61Z" transform="translate(-2476.47 -1375.11)" fill="#1e457d"/>
      <path d="M2644.54,1382.61l3.84-.39-0.68-6.72,3.89-.39,0.68,6.72,6.47-.65-0.08,3.41-6.05.61,1.54,15.36a7.72,7.72,0,0,0,1.12,3.59,2.51,2.51,0,0,0,2.49,1.14,11.6,11.6,0,0,0,2.14-.48q1.28-.39,1.68-0.55l0.63,3.34q-0.48.15-2,.52a20.41,20.41,0,0,1-2.48.46,7.08,7.08,0,0,1-5-1.06q-1.89-1.38-2.31-5.56l-1.65-16.37-3.84.39Z" transform="translate(-2476.47 -1375.11)" fill="#1e457d"/>
      <path d="M2694,1384.5a11.6,11.6,0,0,1,2.32-1.24,16.88,16.88,0,0,1,2.73-.84,17.16,17.16,0,0,1,2.92-.38,16.8,16.8,0,0,1,2.94.13,9.77,9.77,0,0,1,6.21,2.89,7.09,7.09,0,0,1,1.66,6l-1.55,11.79a23.87,23.87,0,0,0-.22,2.39,4.67,4.67,0,0,0,.16,1.52,1.53,1.53,0,0,0,.59.84,2.51,2.51,0,0,0,1.06.35,8.68,8.68,0,0,0,1.71.05l0.38,1.87a4.82,4.82,0,0,1-2,.78,8.53,8.53,0,0,1-2.66,0,3.16,3.16,0,0,1-2.34-1.42,5.9,5.9,0,0,1-.8-3.29,17.54,17.54,0,0,1-5,2.48,12.53,12.53,0,0,1-5.43.44,9,9,0,0,1-2.82-.83,6.84,6.84,0,0,1-2.14-1.62,6,6,0,0,1-1.25-2.31,7,7,0,0,1-.18-2.92,7.94,7.94,0,0,1,1.31-3.59,8.58,8.58,0,0,1,2.52-2.39,11.56,11.56,0,0,1,3.34-1.38,22.84,22.84,0,0,1,3.77-.6,28.55,28.55,0,0,1,3.81,0q1.88,0.11,3.45.32l0.36-2.72a4.81,4.81,0,0,0-.85-4,5.61,5.61,0,0,0-3.62-1.67,10,10,0,0,0-2.6,0,13.07,13.07,0,0,0-2.33.52,14,14,0,0,0-2,.83q-0.93.47-1.69,0.92Zm14.2,11.35a30.49,30.49,0,0,0-5.82-.16,13.69,13.69,0,0,0-4.14.91,6.34,6.34,0,0,0-2.56,1.83,5.18,5.18,0,0,0-1.09,2.6,3.8,3.8,0,0,0,.77,3.22,5,5,0,0,0,3.13,1.41,10.55,10.55,0,0,0,2.28.05,14.23,14.23,0,0,0,4.41-1.1,18.37,18.37,0,0,0,2-1Z" transform="translate(-2476.47 -1375.11)" fill="#1e457d"/>
      <path d="M2724.75,1389.39a28.55,28.55,0,0,0,.71-3.37l3.65,1a16.65,16.65,0,0,1-.35,2.37,18.64,18.64,0,0,1,4.54-.77,15.11,15.11,0,0,1,5,.5,8.14,8.14,0,0,1,5.19,3.73,8.44,8.44,0,0,1,.46,6.62l-5,18-3.77-1,4.91-17.68a6.24,6.24,0,0,0-.15-4.19,4.28,4.28,0,0,0-3-2.49,15.41,15.41,0,0,0-4.57-.55,16.2,16.2,0,0,0-4.29.66l-5.75,20.69-3.77-1Z" transform="translate(-2476.47 -1375.11)" fill="#1e457d"/>
      <path d="M2754.21,1398.14a11.59,11.59,0,0,1,2.57-.55,17.22,17.22,0,0,1,8.55,1.33,9.78,9.78,0,0,1,5.17,4.49,7.08,7.08,0,0,1-.06,6.21l-4.75,10.91a23.67,23.67,0,0,0-.87,2.24,4.64,4.64,0,0,0-.26,1.5,1.53,1.53,0,0,0,.33,1,2.52,2.52,0,0,0,.93.63,8.72,8.72,0,0,0,1.63.52l-0.16,1.9a4.84,4.84,0,0,1-2.15.2,8.53,8.53,0,0,1-2.57-.69,3.16,3.16,0,0,1-1.86-2,5.91,5.91,0,0,1,.14-3.38,17.53,17.53,0,0,1-5.45,1,12.53,12.53,0,0,1-5.35-1.08,9,9,0,0,1-2.48-1.58,6.84,6.84,0,0,1-1.61-2.15,6,6,0,0,1-.57-2.57,7,7,0,0,1,.64-2.85,7.92,7.92,0,0,1,2.25-3.09,8.59,8.59,0,0,1,3.08-1.6,11.57,11.57,0,0,1,3.59-.4,22.9,22.9,0,0,1,3.79.46,28.61,28.61,0,0,1,3.67,1q1.78,0.63,3.23,1.26l1.1-2.52a4.8,4.8,0,0,0,.28-4,5.61,5.61,0,0,0-3-2.61,9.94,9.94,0,0,0-2.5-.74,13.07,13.07,0,0,0-2.38-.15,14,14,0,0,0-2.18.24q-1,.2-1.88.42Zm10.51,14.83a30.62,30.62,0,0,0-5.55-1.76,13.71,13.71,0,0,0-4.23-.26,6.34,6.34,0,0,0-3,1.05,5.19,5.19,0,0,0-1.77,2.2,3.8,3.8,0,0,0-.15,3.31,5,5,0,0,0,2.62,2.22,10.46,10.46,0,0,0,2.17.68,14.22,14.22,0,0,0,4.54.16,18.44,18.44,0,0,0,2.19-.41Z" transform="translate(-2476.47 -1375.11)" fill="#1e457d"/>
      <path d="M2789.14,1397.63l3.41,1.91-16.29,29a2.75,2.75,0,0,0-.49,2.08,3.08,3.08,0,0,0,1.54,1.49l0.52,0.26,0.72,0.32-0.62,2.26q-0.48,0-1.06-.14t-1.17-.24a10,10,0,0,1-1.16-.37,7.83,7.83,0,0,1-1-.47,3.77,3.77,0,0,1-2-2.55,5.48,5.48,0,0,1,.86-3.74Z" transform="translate(-2476.47 -1375.11)" fill="#1e457d"/>
      <path d="M2789.92,1444.29q-5.13-3.63-5.52-8.65t3.31-10.26a13.81,13.81,0,0,1,8.33-5.83,11.69,11.69,0,0,1,9.69,2.15q4.77,3.37,5.06,8.46a15.4,15.4,0,0,1-3.13,9.93,14.62,14.62,0,0,1-8.3,6A10.81,10.81,0,0,1,2789.92,1444.29Zm1.67-2.67a6.59,6.59,0,0,0,3.48,1.28,10.35,10.35,0,0,0,4.51-1.08,13.23,13.23,0,0,0,5.2-4.72,12.07,12.07,0,0,0,2.27-6.83,6.91,6.91,0,0,0-3.21-6.07A7.27,7.27,0,0,0,2797,1423a12.77,12.77,0,0,0-6.27,5.08,11.13,11.13,0,0,0-2.4,6.12,10.82,10.82,0,0,0,.72,4.46A7.13,7.13,0,0,0,2791.59,1441.62Z" transform="translate(-2476.47 -1375.11)" fill="#1e457d"/>
      <path d="M2836.39,1452.59a10.84,10.84,0,0,0-1.4-1.18,11.56,11.56,0,0,0-1.46-.87,10.22,10.22,0,0,1-.7,2.28,8.28,8.28,0,0,1-1.61,2.34,9.68,9.68,0,0,1-3.49,2.47,8.29,8.29,0,0,1-3.64.58,9.36,9.36,0,0,1-3.53-1,13,13,0,0,1-3.15-2.21,15.37,15.37,0,0,1-2.25-2.7,5,5,0,0,0-.92-0.5,6,6,0,0,0-1.28-.39,4.59,4.59,0,0,0-1.31-.07,1.56,1.56,0,0,0-1,.48,1.15,1.15,0,0,0-.07,1.33,11,11,0,0,0,1.22,2q0.85,1.16,3.12,4a55.28,55.28,0,0,1,3.29,4.64,13.28,13.28,0,0,1,1.41,3.18,7.34,7.34,0,0,1,.24,3.06,5.07,5.07,0,0,1-1.43,2.78,6.3,6.3,0,0,1-2.49,1.7,6.68,6.68,0,0,1-2.7.36,9.29,9.29,0,0,1-2.79-.66,17.94,17.94,0,0,1-2.76-1.4,23.87,23.87,0,0,1-2.59-1.85q-1.24-1-2.28-2a20.53,20.53,0,0,1-2.76-3.15,10.27,10.27,0,0,1-1.53-3.12,6.2,6.2,0,0,1-.11-3,5.77,5.77,0,0,1,1.52-2.73,5.46,5.46,0,0,1,1.52-1.13,7.66,7.66,0,0,1,1.88-.66,9.93,9.93,0,0,1,2-.22,12.41,12.41,0,0,1,2,.16q-0.27-.69-0.49-1.39a6.25,6.25,0,0,1-.28-1.38,3.84,3.84,0,0,1,.13-1.34,3,3,0,0,1,.74-1.26,2.74,2.74,0,0,1,1.51-.82,6.3,6.3,0,0,1,1.87-.07,8.63,8.63,0,0,1,1.88.41,9.49,9.49,0,0,1,1.51.64,8.25,8.25,0,0,1-.21-4.36,9.12,9.12,0,0,1,2.39-4.09,8.58,8.58,0,0,1,3.4-2.29,8.88,8.88,0,0,1,3.71-.49,10.45,10.45,0,0,1,3.64,1,12.42,12.42,0,0,1,3.21,2.19,12.83,12.83,0,0,1,2.16,2.68,11.76,11.76,0,0,1,1.35,3.21,19,19,0,0,1,3.44,1.82,21.51,21.51,0,0,1,2.71,2.15l-2.5,2Zm-28.12,4.26a10.73,10.73,0,0,0-2.91.58,5.25,5.25,0,0,0-2.05,1.29,4.44,4.44,0,0,0-1.24,2.25,4.71,4.71,0,0,0,.14,2.26,7.16,7.16,0,0,0,1.11,2.14,14.35,14.35,0,0,0,1.68,1.89q0.5,0.48,1.27,1.08t1.67,1.18a16.85,16.85,0,0,0,1.88,1,8.85,8.85,0,0,0,1.91.66,4.61,4.61,0,0,0,1.77.05,2.57,2.57,0,0,0,1.45-.79,2.44,2.44,0,0,0,.67-1.49,5,5,0,0,0-.2-1.84,11.8,11.8,0,0,0-.87-2.11,31.92,31.92,0,0,0-2.32-3.51q-1.2-1.54-1.91-2.36t-1.26-1.42Q2808.53,1457.16,2808.28,1456.85Zm11.13-3.41a6.09,6.09,0,0,0,2.25,1.42,4.59,4.59,0,0,0,2.28.16,6.11,6.11,0,0,0,2.27-1,12.69,12.69,0,0,0,2.23-1.91,7.87,7.87,0,0,0,1.35-1.94,5.55,5.55,0,0,0,.58-2.15,5.13,5.13,0,0,0-.38-2.21,6.06,6.06,0,0,0-1.52-2.13,6.81,6.81,0,0,0-2.58-1.63,5.25,5.25,0,0,0-2.43-.2,5.76,5.76,0,0,0-2.2.85,9.83,9.83,0,0,0-1.86,1.54,7.86,7.86,0,0,0-1.38,2,6.35,6.35,0,0,0-.61,2.34,5.88,5.88,0,0,0,.38,2.45A6.21,6.21,0,0,0,2819.41,1453.44Z" transform="translate(-2476.47 -1375.11)" fill="#1e457d"/>
    </g>
    <circle cx="198.81" cy="231.08" r="198.81" fill="none"/>
  </g>
</svg>
